
<svg viewBox="-1739.954771 -289.954771 3189.502478 1202.275005" xmlns="http://www.w3.org/2000/svg">
 <style>svg { background-color: white; }</style>
 <polyline  stroke-width="1" fill="none" stroke="black" points="1449.547708,31.933864,1448.191602,63.833774,1445.933999,95.665853,1442.778747,127.396378,1438.731227,158.991854,1433.798326,190.419093,1427.988432,221.645283,1421.311404,252.638069,1413.778549,283.365621,1405.402596,313.796704,1396.197659,343.900751,1386.179206,373.647928,1375.364014,403.009203,1363.770132,431.956404,1351.416830,460.462285,1338.324552,488.500585,1324.514867,516.046081,1310.010408,543.074642,1294.834822,569.563283,1279.012702,595.490207,1262.569532,620.834856,1245.531619,645.577945,1227.926026,669.701503,1209.780506,693.188908,1191.123430,716.024917,1171.983720,738.195689,1152.390769,759.688814,1132.374375,780.493329,1111.964663,800.599733,1091.192009,820.000000,1070.086967,838.687586,1048.680193,856.657433,1027.002367,873.905969,1005.084120,890.431103,982.955957,906.232217,960.648184,921.310156,938.190832,935.667210,915.613587,949.307096,892.945716,962.234932,870.215998,974.457215,847.452654,985.981784,824.683282,996.817793,801.934790,1006.975666,779.233333,1016.467064,756.604256,1025.304833,734.072030,1033.502964,711.660201,1041.076538,689.391335,1048.041678,667.286969,1054.415488,645.367561,1060.215998,623.652453,1065.462106,602.159822,1070.173512,580.906648,1074.370653,559.908680,1078.074642,539.180403,1081.307194,518.735014,1084.090563,498.584399,1086.447464,478.739113,1088.401009,459.208363,1089.974631,440.000000,1091.192009,421.120510,1092.076999,402.575009,1092.653559,384.367245,1092.945672,366.499601,1092.977277,348.973103,1092.772193,331.787432,1092.354048,314.940941,1091.746205,298.430671,1090.971695,282.252377,1090.053142,266.400554,1089.012702,250.868467,1087.871989,235.648184,1086.652013,220.730615,1085.373118,206.105551,1084.054922,191.761708,1082.716253,177.686773,1081.375098,163.867454,1080.048549,150.289532,1078.752748,136.937918,1077.502843,123.796704,1076.312942,110.849231,1075.196070,98.078145,1074.164130,85.465462,1073.227870,72.992635,1072.396850,60.640617,1071.679413,48.389936,1071.082659,36.220757,1070.612429,24.112958,1070.273282,12.046200,1070.068484,0.000000,1070.000000,-12.046200,1070.068484,-24.112958,1070.273282,-36.220757,1070.612429,-48.389936,1071.082659,-60.640617,1071.679413,-72.992635,1072.396850,-85.465462,1073.227870,-98.078145,1074.164130,-110.849231,1075.196070,-123.796704,1076.312942,-136.937918,1077.502843,-150.289532,1078.752748,-163.867454,1080.048549,-177.686773,1081.375098,-191.761708,1082.716253,-206.105551,1084.054922,-220.730615,1085.373118,-235.648184,1086.652013,-250.868467,1087.871989,-266.400554,1089.012702,-282.252377,1090.053142,-298.430671,1090.971695,-314.940941,1091.746205,-331.787432,1092.354048,-348.973103,1092.772193,-366.499601,1092.977277,-384.367245,1092.945672,-402.575009,1092.653559,-421.120510,1092.076999,-440.000000,1091.192009,-459.208363,1089.974631,-478.739113,1088.401009,-498.584399,1086.447464,-518.735014,1084.090563,-539.180403,1081.307194,-559.908680,1078.074642,-580.906648,1074.370653,-602.159822,1070.173512,-623.652453,1065.462106,-645.367561,1060.215998,-667.286969,1054.415488,-689.391335,1048.041678,-711.660201,1041.076538,-734.072030,1033.502964,-756.604256,1025.304833,-779.233333,1016.467064,-801.934790,1006.975666,-824.683282,996.817793,-847.452654,985.981784,-870.215998,974.457215,-892.945716,962.234932,-915.613587,949.307096,-938.190832,935.667210,-960.648184,921.310156,-982.955957,906.232217,-1005.084120,890.431103,-1027.002367,873.905969,-1048.680193,856.657433,-1070.086967,838.687586,-1091.192009,820.000000,-1111.964663,800.599733,-1132.374375,780.493329,-1152.390769,759.688814,-1171.983720,738.195689,-1191.123430,716.024917,-1209.780506,693.188908,-1227.926026,669.701503,-1245.531619,645.577945,-1262.569532,620.834856,-1279.012702,595.490207,-1294.834822,569.563283,-1310.010408,543.074642,-1324.514867,516.046081,-1338.324552,488.500585,-1351.416830,460.462285,-1363.770132,431.956404,-1375.364014,403.009203,-1386.179206,373.647928,-1396.197659,343.900751,-1405.402596,313.796704,-1413.778549,283.365621,-1421.311404,252.638069,-1427.988432,221.645283,-1433.798326,190.419093,-1438.731227,158.991854,-1442.778747,127.396378,-1445.933999,95.665853,-1448.191602,63.833774,-1449.547708,31.933864,-1450.000000,-0.000000" /><line x1="-1400.000000" y1="-0.000000" x2="-140.000000" y2="-0.000000" stroke="black" /><circle cx="549.773854" cy="296.488639" r="570.000000" stroke-width="1" fill="none" stroke="black" /><circle cx="549.773854" cy="296.488639" r="380.000000" stroke-width="1" fill="none" stroke="black" />
</svg>
