0
SECTION
2
HEADER
0
ENDSEC
0
SECTION
2
TABLES
0
TABLE
2
LTYPE
0
LTYPE
72
65
70
64
2
CONTINUOUS
3
______
73
0
40
0
0
ENDTAB
0
TABLE
2
LAYER
0
ENDTAB
0
ENDSEC
0
SECTION
2
ENTITIES
0
CIRCLE
8
0
10
7.5
20
0
40
2
0
CIRCLE
8
0
10
7.5
20
0
40
2
0
LINE
8
0
10
00
20
-0.5
11
00
21
0.5
0
LINE
8
0
10
-0.5
20
00
11
0.5
21
00
0
LINE
8
0
10
00
20
-0.5
11
00
21
0.5
0
LINE
8
0
10
-0.5
20
00
11
0.5
21
00
0
LINE
8
layer0
10
22.9951082
20
2.7883849
11
22.7648544
21
2.6243382
0
LINE
8
layer0
10
22.7648544
20
2.6243382
11
22.5497424
21
2.4843158
0
LINE
8
layer0
10
22.5497424
20
2.4843158
11
22.3503296
21
2.3660737
0
LINE
8
layer0
10
22.3503296
20
2.3660737
11
22.1687804
21
2.2684418
0
LINE
8
layer0
10
22.1687804
20
2.2684418
11
22.005634
21
2.1892546
0
LINE
8
layer0
10
22.005634
20
2.1892546
11
21.8608419
21
2.1262948
0
LINE
8
layer0
10
21.8608419
20
2.1262948
11
21.736216
21
2.0782044
0
LINE
8
layer0
10
21.736216
20
2.0782044
11
21.5199211
21
2.0058792
0
LINE
8
layer0
10
21.5199211
20
2.0058792
11
21.4715482
21
1.984908
0
LINE
8
layer0
10
21.4715482
20
1.984908
11
21.4302095
21
1.9629265
0
LINE
8
layer0
10
21.4302095
20
1.9629265
11
21.3959143
21
1.9402273
0
LINE
8
layer0
10
21.3959143
20
1.9402273
11
21.3686743
21
1.9170832
0
LINE
8
layer0
10
21.3686743
20
1.9170832
11
21.3484879
21
1.8937956
0
LINE
8
layer0
10
21.3484879
20
1.8937956
11
21.3353568
21
1.8706361
0
LINE
8
layer0
10
21.3353568
20
1.8706361
11
21.3292606
21
1.8478943
0
LINE
8
layer0
10
21.3292606
20
1.8478943
11
21.335621
21
1.7830741
0
LINE
8
layer0
10
21.335621
20
1.7830741
11
21.3735804
21
1.4581721
0
LINE
8
layer0
10
21.3735804
20
1.4581721
11
21.4040014
21
1.1324777
0
LINE
8
layer0
10
21.4040014
20
1.1324777
11
21.4112569
21
1.0677516
0
LINE
8
layer0
10
21.4112569
20
1.0677516
11
21.4219482
21
1.0467742
0
LINE
8
layer0
10
21.4219482
20
1.0467742
11
21.4396075
21
1.0268509
0
LINE
8
layer0
10
21.4396075
20
1.0268509
11
21.4641945
21
1.0082692
0
LINE
8
layer0
10
21.4641945
20
1.0082692
11
21.4956512
21
0.9912943
0
LINE
8
layer0
10
21.4956512
20
0.9912943
11
21.5339163
21
0.9762216
0
LINE
8
layer0
10
21.5339163
20
0.9762216
11
21.5789219
21
0.9633152
0
LINE
8
layer0
10
21.5789219
20
0.9633152
11
21.6305979
21
0.9528596
0
LINE
8
layer0
10
21.6305979
20
0.9528596
11
21.8572035
21
0.9270851
0
LINE
8
layer0
10
21.8572035
20
0.9270851
11
21.9891046
21
0.9059568
0
LINE
8
layer0
10
21.9891046
20
0.9059568
11
22.1438227
21
0.8744768
0
LINE
8
layer0
10
22.1438227
20
0.8744768
11
22.3198679
21
0.83094
0
LINE
8
layer0
10
22.3198679
20
0.83094
11
22.5177487
21
0.7731878
0
LINE
8
layer0
10
22.5177487
20
0.7731878
11
22.7373877
21
0.6989899
0
LINE
8
layer0
10
22.7373877
20
0.6989899
11
22.9769113
21
0.6067516
0
LINE
8
layer0
10
22.9769113
20
0.6067516
11
23.2362408
21
0.4941621
0
LINE
8
layer0
10
23.2362408
20
0.4941621
11
23.4957453
21
0.3685715
0
ARC
8
layer0
10
7.499991
20
0
40
16
50
358.6800334
51
361.3199662
0
LINE
8
layer0
10
23.4957453
20
-0.3685715
11
23.2362408
21
-0.4941621
0
LINE
8
layer0
10
23.2362408
20
-0.4941621
11
22.9769113
21
-0.6067516
0
LINE
8
layer0
10
22.9769113
20
-0.6067516
11
22.7373877
21
-0.6989899
0
LINE
8
layer0
10
22.7373877
20
-0.6989899
11
22.5177487
21
-0.7731878
0
LINE
8
layer0
10
22.5177487
20
-0.7731878
11
22.3198679
21
-0.83094
0
LINE
8
layer0
10
22.3198679
20
-0.83094
11
22.1438227
21
-0.8744768
0
LINE
8
layer0
10
22.1438227
20
-0.8744768
11
21.9891046
21
-0.9059568
0
LINE
8
layer0
10
21.9891046
20
-0.9059568
11
21.8572035
21
-0.9270851
0
LINE
8
layer0
10
21.8572035
20
-0.9270851
11
21.6305979
21
-0.9528596
0
LINE
8
layer0
10
21.6305979
20
-0.9528596
11
21.5789219
21
-0.9633152
0
LINE
8
layer0
10
21.5789219
20
-0.9633152
11
21.5339163
21
-0.9762216
0
LINE
8
layer0
10
21.5339163
20
-0.9762216
11
21.4956512
21
-0.9912943
0
LINE
8
layer0
10
21.4956512
20
-0.9912943
11
21.4641945
21
-1.0082692
0
LINE
8
layer0
10
21.4641945
20
-1.0082692
11
21.4396075
21
-1.0268509
0
LINE
8
layer0
10
21.4396075
20
-1.0268509
11
21.4219482
21
-1.0467742
0
LINE
8
layer0
10
21.4219482
20
-1.0467742
11
21.4112569
21
-1.0677516
0
LINE
8
layer0
10
21.4112569
20
-1.0677516
11
21.4040014
21
-1.1324777
0
LINE
8
layer0
10
21.4040014
20
-1.1324777
11
21.3735804
21
-1.4581721
0
LINE
8
layer0
10
21.3735804
20
-1.4581721
11
21.335621
21
-1.7830741
0
LINE
8
layer0
10
21.335621
20
-1.7830741
11
21.3292606
21
-1.8478943
0
LINE
8
layer0
10
21.3292606
20
-1.8478943
11
21.3353568
21
-1.8706361
0
LINE
8
layer0
10
21.3353568
20
-1.8706361
11
21.3484879
21
-1.8937956
0
LINE
8
layer0
10
21.3484879
20
-1.8937956
11
21.3686743
21
-1.9170832
0
LINE
8
layer0
10
21.3686743
20
-1.9170832
11
21.3959143
21
-1.9402273
0
LINE
8
layer0
10
21.3959143
20
-1.9402273
11
21.4302095
21
-1.9629265
0
LINE
8
layer0
10
21.4302095
20
-1.9629265
11
21.4715482
21
-1.984908
0
LINE
8
layer0
10
21.4715482
20
-1.984908
11
21.5199211
21
-2.0058792
0
LINE
8
layer0
10
21.5199211
20
-2.0058792
11
21.736216
21
-2.0782044
0
LINE
8
layer0
10
21.736216
20
-2.0782044
11
21.8608419
21
-2.1262948
0
LINE
8
layer0
10
21.8608419
20
-2.1262948
11
22.005634
21
-2.1892546
0
LINE
8
layer0
10
22.005634
20
-2.1892546
11
22.1687804
21
-2.2684418
0
LINE
8
layer0
10
22.1687804
20
-2.2684418
11
22.3503296
21
-2.3660737
0
LINE
8
layer0
10
22.3503296
20
-2.3660737
11
22.5497424
21
-2.4843158
0
LINE
8
layer0
10
22.5497424
20
-2.4843158
11
22.7648544
21
-2.6243382
0
LINE
8
layer0
10
22.7648544
20
-2.6243382
11
22.9951082
21
-2.7883849
0
LINE
8
layer0
10
22.9951082
20
-2.7883849
11
23.2228302
21
-2.9651851
0
ARC
8
layer0
10
7.4999914
20
0.0000027
40
16
50
346.6800306
51
349.3199632
0
LINE
8
layer0
10
23.0695695
20
-3.6862198
11
22.7896241
21
-3.7551119
0
LINE
8
layer0
10
22.7896241
20
-3.7551119
11
22.5125529
21
-3.8113234
0
LINE
8
layer0
10
22.5125529
20
-3.8113234
11
22.259086
21
-3.8517463
0
LINE
8
layer0
10
22.259086
20
-3.8517463
11
22.02882
21
-3.8786573
0
LINE
8
layer0
10
22.02882
20
-3.8786573
11
21.8232561
21
-3.8940058
0
LINE
8
layer0
10
21.8232561
20
-3.8940058
11
21.6420061
21
-3.8999893
0
LINE
8
layer0
10
21.6420061
20
-3.8999893
11
21.4841239
21
-3.8986137
0
LINE
8
layer0
10
21.4841239
20
-3.8986137
11
21.3507123
21
-3.8918565
0
LINE
8
layer0
10
21.3507123
20
-3.8918565
11
21.1236998
21
-3.8699538
0
LINE
8
layer0
10
21.1236998
20
-3.8699538
11
21.0709792
21
-3.8694369
0
LINE
8
layer0
10
21.0709792
20
-3.8694369
11
21.0242737
21
-3.872704
0
LINE
8
layer0
10
21.0242737
20
-3.872704
11
20.9837109
21
-3.8794917
0
LINE
8
layer0
10
20.9837109
20
-3.8794917
11
20.9494124
21
-3.8895554
0
LINE
8
layer0
10
20.9494124
20
-3.8895554
11
20.9214993
21
-3.9026191
0
LINE
8
layer0
10
20.9214993
20
-3.9026191
11
20.9000836
21
-3.9184354
0
LINE
8
layer0
10
20.9000836
20
-3.9184354
11
20.8852645
21
-3.9367316
0
LINE
8
layer0
10
20.8852645
20
-3.9367316
11
20.8647103
21
-3.9985348
0
LINE
8
layer0
10
20.8647103
20
-3.9985348
11
20.7672384
21
-4.3107871
0
LINE
8
layer0
10
20.7672384
20
-4.3107871
11
20.6625575
21
-4.620697
0
LINE
8
layer0
10
20.6625575
20
-4.620697
11
20.6428592
21
-4.6827783
0
LINE
8
layer0
10
20.6428592
20
-4.6827783
11
20.644094
21
-4.7062907
0
LINE
8
layer0
10
20.644094
20
-4.7062907
11
20.652123
21
-4.7316741
0
LINE
8
layer0
10
20.652123
20
-4.7316741
11
20.6670265
21
-4.7586498
0
LINE
8
layer0
10
20.6670265
20
-4.7586498
11
20.6888593
21
-4.7869517
0
LINE
8
layer0
10
20.6888593
20
-4.7869517
11
20.7176856
21
-4.8162853
0
LINE
8
layer0
10
20.7176856
20
-4.8162853
11
20.7535508
21
-4.8463812
0
LINE
8
layer0
10
20.7535508
20
-4.8463812
11
20.7965065
21
-4.8769515
0
LINE
8
layer0
10
20.7965065
20
-4.8769515
11
20.9930375
21
-4.9926664
0
LINE
8
layer0
10
20.9930375
20
-4.9926664
11
21.1049415
21
-5.0656171
0
LINE
8
layer0
10
21.1049415
20
-5.0656171
11
21.2334794
21
-5.157305
0
LINE
8
layer0
10
21.2334794
20
-5.157305
11
21.3765968
21
-5.2686819
0
LINE
8
layer0
10
21.3765968
20
-5.2686819
11
21.5338799
21
-5.4019265
0
LINE
8
layer0
10
21.5338799
20
-5.4019265
11
21.7043511
21
-5.5590449
0
LINE
8
layer0
10
21.7043511
20
-5.5590449
11
21.8856502
21
-5.7407318
0
LINE
8
layer0
10
21.8856502
20
-5.7407318
11
22.0767651
21
-5.9490662
0
LINE
8
layer0
10
22.0767651
20
-5.9490662
11
22.262752
21
-6.1693489
0
ARC
8
layer0
10
7.4999918
20
0.0000037
40
16
50
334.6800335
51
337.3199662
0
LINE
8
layer0
10
21.9629289
20
-6.8427626
11
21.6747774
21
-6.8519453
0
LINE
8
layer0
10
21.6747774
20
-6.8519453
11
21.3920739
21
-6.8493221
0
LINE
8
layer0
10
21.3920739
20
-6.8493221
11
21.1357415
21
-6.8361629
0
LINE
8
layer0
10
21.1357415
20
-6.8361629
11
20.9049123
21
-6.8146109
0
LINE
8
layer0
10
20.9049123
20
-6.8146109
11
20.7006493
21
-6.7868848
0
LINE
8
layer0
10
20.7006493
20
-6.7868848
11
20.522116
21
-6.7550535
0
LINE
8
layer0
10
20.522116
20
-6.7550535
11
20.3679698
21
-6.7208824
0
LINE
8
layer0
10
20.3679698
20
-6.7208824
11
20.2388786
21
-6.6865351
0
LINE
8
layer0
10
20.2388786
20
-6.6865351
11
20.0213807
21
-6.6179125
0
LINE
8
layer0
10
20.0213807
20
-6.6179125
11
19.9699196
21
-6.6064457
0
LINE
8
layer0
10
19.9699196
20
-6.6064457
11
19.9235554
21
-6.5999308
0
LINE
8
layer0
10
19.9235554
20
-6.5999308
11
19.8824678
21
-6.5981366
0
LINE
8
layer0
10
19.8824678
20
-6.5981366
11
19.8468264
21
-6.6008493
0
LINE
8
layer0
10
19.8468264
20
-6.6008493
11
19.8168072
21
-6.6078242
0
LINE
8
layer0
10
19.8168072
20
-6.6078242
11
19.7925711
21
-6.6188423
0
LINE
8
layer0
10
19.7925711
20
-6.6188423
11
19.7742719
21
-6.6336575
0
LINE
8
layer0
10
19.7742719
20
-6.6336575
11
19.7413171
21
-6.6898368
0
LINE
8
layer0
10
19.7413171
20
-6.6898368
11
19.5810544
21
-6.975
0
LINE
8
layer0
10
19.5810544
20
-6.975
11
19.4142271
21
-7.2563732
0
LINE
8
layer0
10
19.4142271
20
-7.2563732
11
19.3820519
21
-7.3130025
0
LINE
8
layer0
10
19.3820519
20
-7.3130025
11
19.3783711
21
-7.3362577
0
LINE
8
layer0
10
19.3783711
20
-7.3362577
11
19.3809472
21
-7.3627558
0
LINE
8
layer0
10
19.3809472
20
-7.3627558
11
19.3899164
21
-7.3922407
0
LINE
8
layer0
10
19.3899164
20
-7.3922407
11
19.4053878
21
-7.4244634
0
LINE
8
layer0
10
19.4053878
20
-7.4244634
11
19.4274854
21
-7.4591492
0
LINE
8
layer0
10
19.4274854
20
-7.4591492
11
19.4563096
21
-7.4960443
0
LINE
8
layer0
10
19.4563096
20
-7.4960443
11
19.4919707
21
-7.5348775
0
LINE
8
layer0
10
19.4919707
20
-7.5348775
11
19.6601486
21
-7.6889249
0
LINE
8
layer0
10
19.6601486
20
-7.6889249
11
19.7544398
21
-7.7835476
0
LINE
8
layer0
10
19.7544398
20
-7.7835476
11
19.861106
21
-7.8999565
0
LINE
8
layer0
10
19.861106
20
-7.8999565
11
19.9779393
21
-8.0386552
0
LINE
8
layer0
10
19.9779393
20
-8.0386552
11
20.1040823
21
-8.2016891
0
LINE
8
layer0
10
20.1040823
20
-8.2016891
11
20.2381615
21
-8.3908171
0
LINE
8
layer0
10
20.2381615
20
-8.3908171
11
20.3777239
21
-8.6062279
0
LINE
8
layer0
10
20.3777239
20
-8.6062279
11
20.5213474
21
-8.8497447
0
LINE
8
layer0
10
20.5213474
20
-8.8497447
11
20.6574707
21
-9.1038825
0
ARC
8
layer0
10
7.4999923
20
0.0000046
40
16
50
322.6800367
51
325.3199694
0
LINE
8
layer0
10
20.2241889
20
-9.7002438
11
19.940425
21
-9.6493158
0
LINE
8
layer0
10
19.940425
20
-9.6493158
11
19.6644446
21
-9.5879726
0
LINE
8
layer0
10
19.6644446
20
-9.5879726
11
19.4164496
21
-9.5218064
0
LINE
8
layer0
10
19.4164496
20
-9.5218064
11
19.1951455
21
-9.4527333
0
LINE
8
layer0
10
19.1951455
20
-9.4527333
11
19.0011107
21
-9.3831444
0
LINE
8
layer0
10
19.0011107
20
-9.3831444
11
18.8330969
21
-9.3148896
0
LINE
8
layer0
10
18.8330969
20
-9.3148896
11
18.6894238
21
-9.2494164
0
LINE
8
layer0
10
18.6894238
20
-9.2494164
11
18.5702947
21
-9.1889801
0
LINE
8
layer0
10
18.5702947
20
-9.1889801
11
18.3718171
21
-9.0766367
0
LINE
8
layer0
10
18.3718171
20
-9.0766367
11
18.3238646
21
-9.0547211
0
LINE
8
layer0
10
18.3238646
20
-9.0547211
11
18.2798682
21
-9.0387089
0
LINE
8
layer0
10
18.2798682
20
-9.0387089
11
18.2400515
21
-9.0284113
0
LINE
8
layer0
10
18.2400515
20
-9.0284113
11
18.2046249
21
-9.0236545
0
LINE
8
layer0
10
18.2046249
20
-9.0236545
11
18.1738115
21
-9.0242356
0
LINE
8
layer0
10
18.1738115
20
-9.0242356
11
18.1478143
21
-9.0299739
0
LINE
8
layer0
10
18.1478143
20
-9.0299739
11
18.1268346
21
-9.0406608
0
LINE
8
layer0
10
18.1268346
20
-9.0406608
11
18.0829197
21
-9.0887607
0
LINE
8
layer0
10
18.0829197
20
-9.0887607
11
17.8668703
21
-9.334372
0
LINE
8
layer0
10
17.8668703
20
-9.334372
11
17.6451879
21
-9.5749112
0
LINE
8
layer0
10
17.6451879
20
-9.5749112
11
17.6019418
21
-9.6236133
0
LINE
8
layer0
10
17.6019418
20
-9.6236133
11
17.5935065
21
-9.6455951
0
LINE
8
layer0
10
17.5935065
20
-9.6455951
11
17.590517
21
-9.6720498
0
LINE
8
layer0
10
17.590517
20
-9.6720498
11
17.59316
21
-9.7027551
0
LINE
8
layer0
10
17.59316
20
-9.7027551
11
17.6015938
21
-9.7374904
0
LINE
8
layer0
10
17.6015938
20
-9.7374904
11
17.6159969
21
-9.7760126
0
LINE
8
layer0
10
17.6159969
20
-9.7760126
11
17.6365203
21
-9.8180943
0
LINE
8
layer0
10
17.6365203
20
-9.8180943
11
17.6633282
21
-9.8634933
0
LINE
8
layer0
10
17.6633282
20
-9.8634933
11
17.7958028
21
-10.0491405
0
LINE
8
layer0
10
17.7958028
20
-10.0491405
11
17.8683604
21
-10.1612997
0
LINE
8
layer0
10
17.8683604
20
-10.1612997
11
17.9484928
21
-10.2973419
0
LINE
8
layer0
10
17.9484928
20
-10.2973419
11
18.033936
21
-10.4573008
0
LINE
8
layer0
10
18.033936
20
-10.4573008
11
18.1234258
21
-10.6429986
0
LINE
8
layer0
10
18.1234258
20
-10.6429986
11
18.2152531
21
-10.8558703
0
LINE
8
layer0
10
18.2152531
20
-10.8558703
11
18.3069794
21
-11.0955905
0
LINE
8
layer0
10
18.3069794
20
-11.0955905
11
18.3968344
21
-11.3636469
0
LINE
8
layer0
10
18.3968344
20
-11.3636469
11
18.4771448
21
-11.6405328
0
ARC
8
layer0
10
7.4999933
20
0.0000061
40
16
50
310.6800372
51
313.3199697
0
LINE
8
layer0
10
17.9293407
20
-12.1337778
11
17.6623663
21
-12.0249649
0
LINE
8
layer0
10
17.6623663
20
-12.0249649
11
17.4051707
21
-11.9075826
0
LINE
8
layer0
10
17.4051707
20
-11.9075826
11
17.1763518
21
-11.7913013
0
LINE
8
layer0
10
17.1763518
20
-11.7913013
11
16.9742448
21
-11.6777258
0
LINE
8
layer0
10
16.9742448
20
-11.6777258
11
16.7989184
21
-11.5693155
0
LINE
8
layer0
10
16.7989184
20
-11.5693155
11
16.6487671
21
-11.4676202
0
LINE
8
layer0
10
16.6487671
20
-11.4676202
11
16.5218462
21
-11.3737065
0
LINE
8
layer0
10
16.5218462
20
-11.3737065
11
16.4178858
21
-11.2898225
0
LINE
8
layer0
10
16.4178858
20
-11.2898225
11
16.2471029
21
-11.1386682
0
LINE
8
layer0
10
16.2471029
20
-11.1386682
11
16.2047549
21
-11.1072617
0
LINE
8
layer0
10
16.2047549
20
-11.1072617
11
16.1650489
21
-11.082452
0
LINE
8
layer0
10
16.1650489
20
-11.082452
11
16.1282433
21
-11.0641011
0
LINE
8
layer0
10
16.1282433
20
-11.0641011
11
16.0945799
21
-11.0520827
0
LINE
8
layer0
10
16.0945799
20
-11.0520827
11
16.064319
21
-11.0462446
0
LINE
8
layer0
10
16.064319
20
-11.0462446
11
16.0376968
21
-11.0464524
0
LINE
8
layer0
10
16.0376968
20
-11.0464524
11
16.0149537
21
-11.0525438
0
LINE
8
layer0
10
16.0149537
20
-11.0525438
11
15.9619979
21
-11.0904622
0
LINE
8
layer0
10
15.9619979
20
-11.0904622
11
15.6996043
21
-11.2857871
0
LINE
8
layer0
10
15.6996043
20
-11.2857871
11
15.4327552
21
-11.4749796
0
LINE
8
layer0
10
15.4327552
20
-11.4749796
11
15.3803284
21
-11.5136261
0
LINE
8
layer0
10
15.3803284
20
-11.5136261
11
15.3675071
21
-11.5333737
0
LINE
8
layer0
10
15.3675071
20
-11.5333737
11
15.3590827
21
-11.5586287
0
LINE
8
layer0
10
15.3590827
20
-11.5586287
11
15.355284
21
-11.5892126
0
LINE
8
layer0
10
15.355284
20
-11.5892126
11
15.3563117
21
-11.6249423
0
LINE
8
layer0
10
15.3563117
20
-11.6249423
11
15.3623908
21
-11.6656173
0
LINE
8
layer0
10
15.3623908
20
-11.6656173
11
15.3737164
21
-11.7110465
0
LINE
8
layer0
10
15.3737164
20
-11.7110465
11
15.3904996
21
-11.761027
0
LINE
8
layer0
10
15.3904996
20
-11.761027
11
15.481481
21
-11.9701604
0
LINE
8
layer0
10
15.481481
20
-11.9701604
11
15.5291339
21
-12.0949542
0
LINE
8
layer0
10
15.5291339
20
-12.0949542
11
15.5792304
21
-12.2446841
0
LINE
8
layer0
10
15.5792304
20
-12.2446841
11
15.6295491
21
-12.4189121
0
LINE
8
layer0
10
15.6295491
20
-12.4189121
11
15.6784746
21
-12.619158
0
LINE
8
layer0
10
15.6784746
20
-12.619158
11
15.7240368
21
-12.8464699
0
LINE
8
layer0
10
15.7240368
20
-12.8464699
11
15.763918
21
-13.1000226
0
LINE
8
layer0
10
15.763918
20
-13.1000226
11
15.7960773
21
-13.3809032
0
LINE
8
layer0
10
15.7960773
20
-13.3809032
11
15.8170649
21
-13.668436
0
ARC
8
layer0
10
7.4999958
20
0.000008
40
16
50
298.6800323
51
301.3199649
0
LINE
8
layer0
10
15.1786803
20
-14.0370075
11
14.9401634
21
-13.8750653
0
LINE
8
layer0
10
14.9401634
20
-13.8750653
11
14.7129934
21
-13.7067742
0
LINE
8
layer0
10
14.7129934
20
-13.7067742
11
14.5133509
21
-13.5454597
0
LINE
8
layer0
10
14.5133509
20
-13.5454597
11
14.3392741
21
-13.3923457
0
LINE
8
layer0
10
14.3392741
20
-13.3923457
11
14.1903188
21
-13.2498521
0
LINE
8
layer0
10
14.1903188
20
-13.2498521
11
14.0645923
21
-13.1191608
0
LINE
8
layer0
10
14.0645923
20
-13.1191608
11
13.9599707
21
-13.000911
0
LINE
8
layer0
10
13.9599707
20
-13.000911
11
13.8757225
21
-12.8972455
0
LINE
8
layer0
10
13.8757225
20
-12.8972455
11
13.7400984
21
-12.7138866
0
LINE
8
layer0
10
13.7400984
20
-12.7138866
11
13.7052055
21
-12.6743617
0
LINE
8
layer0
10
13.7052055
20
-12.6743617
11
13.6715255
21
-12.6418388
0
LINE
8
layer0
10
13.6715255
20
-12.6418388
11
13.6393395
21
-12.6162366
0
LINE
8
layer0
10
13.6393395
20
-12.6162366
11
13.6089105
21
-12.5974818
0
LINE
8
layer0
10
13.6089105
20
-12.5974818
11
13.5805247
21
-12.5854797
0
LINE
8
layer0
10
13.5805247
20
-12.5854797
11
13.5544411
21
-12.5801479
0
LINE
8
layer0
10
13.5544411
20
-12.5801479
11
13.5309285
21
-12.5813776
0
LINE
8
layer0
10
13.5309285
20
-12.5813776
11
13.4712462
21
-12.6074573
0
LINE
8
layer0
10
13.4712462
20
-12.6074573
11
13.1739762
21
-12.7439591
0
LINE
8
layer0
10
13.1739762
20
-12.7439591
11
12.8736231
21
-12.8735363
0
LINE
8
layer0
10
12.8736231
20
-12.8735363
11
12.8143069
21
-12.9004381
0
LINE
8
layer0
10
12.8143069
20
-12.9004381
11
12.79766
21
-12.9170885
0
LINE
8
layer0
10
12.79766
20
-12.9170885
11
12.7841689
21
-12.9400401
0
LINE
8
layer0
10
12.7841689
20
-12.9400401
11
12.7740944
21
-12.9691658
0
LINE
8
layer0
10
12.7740944
20
-12.9691658
11
12.767671
21
-13.0043285
0
LINE
8
layer0
10
12.767671
20
-13.0043285
11
12.7651605
21
-13.0453785
0
LINE
8
layer0
10
12.7651605
20
-13.0453785
11
12.7667934
21
-13.0921697
0
LINE
8
layer0
10
12.7667934
20
-13.0921697
11
12.7728182
21
-13.1445475
0
LINE
8
layer0
10
12.7728182
20
-13.1445475
11
12.8183302
21
-13.3680269
0
LINE
8
layer0
10
12.8183302
20
-13.3680269
11
12.8389956
21
-13.5000013
0
LINE
8
layer0
10
12.8389956
20
-13.5000013
11
12.8568669
21
-13.6568748
0
LINE
8
layer0
10
12.8568669
20
-13.6568748
11
12.8698619
21
-13.8377574
0
LINE
8
layer0
10
12.8698619
20
-13.8377574
11
12.8760848
21
-14.0437996
0
LINE
8
layer0
10
12.8760848
20
-14.0437996
11
12.8733906
21
-14.2756171
0
LINE
8
layer0
10
12.8733906
20
-14.2756171
11
12.8596837
21
-14.5319208
0
LINE
8
layer0
10
12.8596837
20
-14.5319208
11
12.8327419
21
-14.8133498
0
LINE
8
layer0
10
12.8327419
20
-14.8133498
11
12.7934895
21
-15.0989629
0
ARC
8
layer0
10
7.4999978
20
0.0000088
40
16
50
286.6800316
51
289.3199641
0
LINE
8
layer0
10
12.0924248
20
-15.3267526
11
11.8927897
21
-15.1187588
0
LINE
8
layer0
10
11.8927897
20
-15.1187588
11
11.7055736
21
-14.9069139
0
LINE
8
layer0
10
11.7055736
20
-14.9069139
11
11.5438329
21
-14.7076166
0
LINE
8
layer0
10
11.5438329
20
-14.7076166
11
11.4053943
21
-14.5216559
0
LINE
8
layer0
10
11.4053943
20
-14.5216559
11
11.2893201
21
-14.3513065
0
LINE
8
layer0
10
11.2893201
20
-14.3513065
11
11.1935133
21
-14.1973312
0
LINE
8
layer0
10
11.1935133
20
-14.1973312
11
11.1157635
21
-14.0599133
0
LINE
8
layer0
10
11.1157635
20
-14.0599133
11
11.0549096
21
-13.940997
0
LINE
8
layer0
10
11.0549096
20
-13.940997
11
10.9603716
21
-13.7334471
0
LINE
8
layer0
10
10.9603716
20
-13.7334471
11
10.9344589
21
-13.6875312
0
LINE
8
layer0
10
10.9344589
20
-13.6875312
11
10.9082768
21
-13.6487166
0
LINE
8
layer0
10
10.9082768
20
-13.6487166
11
10.8821171
21
-13.616982
0
LINE
8
layer0
10
10.8821171
20
-13.616982
11
10.8562524
21
-13.5923105
0
LINE
8
layer0
10
10.8562524
20
-13.5923105
11
10.8309823
21
-13.5746689
0
LINE
8
layer0
10
10.8309823
20
-13.5746689
11
10.8065772
21
-13.5640306
0
LINE
8
layer0
10
10.8065772
20
-13.5640306
11
10.7833227
21
-13.5603449
0
LINE
8
layer0
10
10.7833227
20
-13.5603449
11
10.7195224
21
-13.573446
0
LINE
8
layer0
10
10.7195224
20
-13.573446
11
10.4003681
21
-13.645159
0
LINE
8
layer0
10
10.4003681
20
-13.645159
11
10.0796378
21
-13.7094577
0
LINE
8
layer0
10
10.0796378
20
-13.7094577
11
10.0160246
21
-13.7234391
0
LINE
8
layer0
10
10.0160246
20
-13.7234391
11
9.9962797
21
-13.7362646
0
LINE
8
layer0
10
9.9962797
20
-13.7362646
11
9.9783115
21
-13.7559097
0
LINE
8
layer0
10
9.9783115
20
-13.7559097
11
9.9624016
21
-13.7823043
0
LINE
8
layer0
10
9.9624016
20
-13.7823043
11
9.9488078
21
-13.8153631
0
LINE
8
layer0
10
9.9488078
20
-13.8153631
11
9.9378174
21
-13.8549941
0
LINE
8
layer0
10
9.9378174
20
-13.8549941
11
9.9296862
21
-13.9011023
0
LINE
8
layer0
10
9.9296862
20
-13.9011023
11
9.9246894
21
-13.9535881
0
LINE
8
layer0
10
9.9246894
20
-13.9535881
11
9.9227428
21
-14.1816464
0
LINE
8
layer0
10
9.9227428
20
-14.1816464
11
9.9155177
21
-14.3150335
0
LINE
8
layer0
10
9.9155177
20
-14.3150335
11
9.9003826
21
-14.4721946
0
LINE
8
layer0
10
9.9003826
20
-14.4721946
11
9.875486
21
-14.6518262
0
LINE
8
layer0
10
9.875486
20
-14.6518262
11
9.8387344
21
-14.8546597
0
LINE
8
layer0
10
9.8387344
20
-14.8546597
11
9.7879014
21
-15.0808513
0
LINE
8
layer0
10
9.7879014
20
-15.0808513
11
9.7212055
21
-15.3287044
0
LINE
8
layer0
10
9.7212055
20
-15.3287044
11
9.6363401
21
-15.598382
0
LINE
8
layer0
10
9.6363401
20
-15.598382
11
9.5385631
21
-15.8695927
0
ARC
8
layer0
10
7.4999997
20
0.000009
40
16
50
274.6800313
51
277.3199639
0
LINE
8
layer0
10
8.8054582
20
-15.9466451
11
8.65343
21
-15.70169
0
LINE
8
layer0
10
8.65343
20
-15.70169
11
8.51435
21
-15.45555
0
LINE
8
layer0
10
8.51435
20
-15.45555
11
8.39758
21
-15.22698
0
LINE
8
layer0
10
8.39758
20
-15.22698
11
8.30083
21
-15.0163
0
LINE
8
layer0
10
8.30083
20
-15.0163
11
8.22271
21
-14.82554
0
LINE
8
layer0
10
8.22271
20
-14.82554
11
8.16101
21
-14.65501
0
LINE
8
layer0
10
8.16101
20
-14.65501
11
8.11353
21
-14.50443
0
LINE
8
layer0
10
8.11353
20
-14.50443
11
8.07873
21
-14.37546
0
LINE
8
layer0
10
8.07873
20
-14.37546
11
8.02941
21
-14.15279
0
LINE
8
layer0
10
8.02941
20
-14.15279
11
8.01361
21
-14.10249
0
LINE
8
layer0
10
8.01361
20
-14.10249
11
7.99607
21
-14.05908
0
LINE
8
layer0
10
7.99607
20
-14.05908
11
7.97708
21
-14.0226
0
LINE
8
layer0
10
7.97708
20
-14.0226
11
7.95691
21
-13.99309
0
LINE
8
layer0
10
7.95691
20
-13.99309
11
7.93586
21
-13.97058
0
LINE
8
layer0
10
7.93586
20
-13.97058
11
7.9142
21
-13.9551
0
LINE
8
layer0
10
7.9142
20
-13.9551
11
7.89222
21
-13.94666
0
LINE
8
layer0
10
7.89222
20
-13.94666
11
7.82709
21
-13.94621
0
LINE
8
layer0
10
7.82709
20
-13.94621
11
7.5
21
-13.95
0
LINE
8
layer0
10
7.5
20
-13.95
11
7.17291
21
-13.94621
0
LINE
8
layer0
10
7.17291
20
-13.94621
11
7.10778
21
-13.94666
0
LINE
8
layer0
10
7.10778
20
-13.94666
11
7.0858
21
-13.9551
0
LINE
8
layer0
10
7.0858
20
-13.9551
11
7.06414
21
-13.97058
0
LINE
8
layer0
10
7.06414
20
-13.97058
11
7.04309
21
-13.99309
0
LINE
8
layer0
10
7.04309
20
-13.99309
11
7.02292
21
-14.0226
0
LINE
8
layer0
10
7.02292
20
-14.0226
11
7.00393
21
-14.05908
0
LINE
8
layer0
10
7.00393
20
-14.05908
11
6.98639
21
-14.10249
0
LINE
8
layer0
10
6.98639
20
-14.10249
11
6.97059
21
-14.15279
0
LINE
8
layer0
10
6.97059
20
-14.15279
11
6.92127
21
-14.37546
0
LINE
8
layer0
10
6.92127
20
-14.37546
11
6.88647
21
-14.50443
0
LINE
8
layer0
10
6.88647
20
-14.50443
11
6.83899
21
-14.65501
0
LINE
8
layer0
10
6.83899
20
-14.65501
11
6.77729
21
-14.82554
0
LINE
8
layer0
10
6.77729
20
-14.82554
11
6.69917
21
-15.0163
0
LINE
8
layer0
10
6.69917
20
-15.0163
11
6.60242
21
-15.22698
0
LINE
8
layer0
10
6.60242
20
-15.22698
11
6.48565
21
-15.45555
0
LINE
8
layer0
10
6.48565
20
-15.45555
11
6.34657
21
-15.70169
0
LINE
8
layer0
10
6.34657
20
-15.70169
11
6.1945418
21
-15.9466451
0
ARC
8
layer0
10
7.5000003
20
0.000009
40
16
50
262.6800361
51
265.3199687
0
LINE
8
layer0
10
5.4614369
20
-15.8695927
11
5.3636599
21
-15.598382
0
LINE
8
layer0
10
5.3636599
20
-15.598382
11
5.2787945
21
-15.3287044
0
LINE
8
layer0
10
5.2787945
20
-15.3287044
11
5.2120986
21
-15.0808513
0
LINE
8
layer0
10
5.2120986
20
-15.0808513
11
5.1612656
21
-14.8546597
0
LINE
8
layer0
10
5.1612656
20
-14.8546597
11
5.124514
21
-14.6518262
0
LINE
8
layer0
10
5.124514
20
-14.6518262
11
5.0996174
21
-14.4721946
0
LINE
8
layer0
10
5.0996174
20
-14.4721946
11
5.0844823
21
-14.3150335
0
LINE
8
layer0
10
5.0844823
20
-14.3150335
11
5.0772572
21
-14.1816464
0
LINE
8
layer0
10
5.0772572
20
-14.1816464
11
5.0753106
21
-13.9535881
0
LINE
8
layer0
10
5.0753106
20
-13.9535881
11
5.0703138
21
-13.9011023
0
LINE
8
layer0
10
5.0703138
20
-13.9011023
11
5.0621826
21
-13.8549941
0
LINE
8
layer0
10
5.0621826
20
-13.8549941
11
5.0511922
21
-13.8153631
0
LINE
8
layer0
10
5.0511922
20
-13.8153631
11
5.0375984
21
-13.7823043
0
LINE
8
layer0
10
5.0375984
20
-13.7823043
11
5.0216885
21
-13.7559097
0
LINE
8
layer0
10
5.0216885
20
-13.7559097
11
5.0037203
21
-13.7362646
0
LINE
8
layer0
10
5.0037203
20
-13.7362646
11
4.9839754
21
-13.7234391
0
LINE
8
layer0
10
4.9839754
20
-13.7234391
11
4.9203622
21
-13.7094577
0
LINE
8
layer0
10
4.9203622
20
-13.7094577
11
4.5996319
21
-13.645159
0
LINE
8
layer0
10
4.5996319
20
-13.645159
11
4.2804776
21
-13.573446
0
LINE
8
layer0
10
4.2804776
20
-13.573446
11
4.2166773
21
-13.5603449
0
LINE
8
layer0
10
4.2166773
20
-13.5603449
11
4.1934228
21
-13.5640306
0
LINE
8
layer0
10
4.1934228
20
-13.5640306
11
4.1690177
21
-13.5746689
0
LINE
8
layer0
10
4.1690177
20
-13.5746689
11
4.1437476
21
-13.5923105
0
LINE
8
layer0
10
4.1437476
20
-13.5923105
11
4.1178829
21
-13.616982
0
LINE
8
layer0
10
4.1178829
20
-13.616982
11
4.0917232
21
-13.6487166
0
LINE
8
layer0
10
4.0917232
20
-13.6487166
11
4.0655411
21
-13.6875312
0
LINE
8
layer0
10
4.0655411
20
-13.6875312
11
4.0396284
21
-13.7334471
0
LINE
8
layer0
10
4.0396284
20
-13.7334471
11
3.9450904
21
-13.940997
0
LINE
8
layer0
10
3.9450904
20
-13.940997
11
3.8842365
21
-14.0599133
0
LINE
8
layer0
10
3.8842365
20
-14.0599133
11
3.8064867
21
-14.1973312
0
LINE
8
layer0
10
3.8064867
20
-14.1973312
11
3.7106799
21
-14.3513065
0
LINE
8
layer0
10
3.7106799
20
-14.3513065
11
3.5946057
21
-14.5216559
0
LINE
8
layer0
10
3.5946057
20
-14.5216559
11
3.4561671
21
-14.7076166
0
LINE
8
layer0
10
3.4561671
20
-14.7076166
11
3.2944264
21
-14.9069139
0
LINE
8
layer0
10
3.2944264
20
-14.9069139
11
3.1072103
21
-15.1187588
0
LINE
8
layer0
10
3.1072103
20
-15.1187588
11
2.9075752
21
-15.3267526
0
ARC
8
layer0
10
7.5000022
20
0.0000088
40
16
50
250.6800359
51
253.3199684
0
LINE
8
layer0
10
2.2065105
20
-15.0989629
11
2.1672581
21
-14.8133498
0
LINE
8
layer0
10
2.1672581
20
-14.8133498
11
2.1403163
21
-14.5319208
0
LINE
8
layer0
10
2.1403163
20
-14.5319208
11
2.1266094
21
-14.2756171
0
LINE
8
layer0
10
2.1266094
20
-14.2756171
11
2.1239152
21
-14.0437996
0
LINE
8
layer0
10
2.1239152
20
-14.0437996
11
2.1301381
21
-13.8377574
0
LINE
8
layer0
10
2.1301381
20
-13.8377574
11
2.1431331
21
-13.6568748
0
LINE
8
layer0
10
2.1431331
20
-13.6568748
11
2.1610044
21
-13.5000013
0
LINE
8
layer0
10
2.1610044
20
-13.5000013
11
2.1816698
21
-13.3680269
0
LINE
8
layer0
10
2.1816698
20
-13.3680269
11
2.2271818
21
-13.1445475
0
LINE
8
layer0
10
2.2271818
20
-13.1445475
11
2.2332066
21
-13.0921697
0
LINE
8
layer0
10
2.2332066
20
-13.0921697
11
2.2348395
21
-13.0453785
0
LINE
8
layer0
10
2.2348395
20
-13.0453785
11
2.232329
21
-13.0043285
0
LINE
8
layer0
10
2.232329
20
-13.0043285
11
2.2259056
21
-12.9691658
0
LINE
8
layer0
10
2.2259056
20
-12.9691658
11
2.2158311
21
-12.9400401
0
LINE
8
layer0
10
2.2158311
20
-12.9400401
11
2.20234
21
-12.9170885
0
LINE
8
layer0
10
2.20234
20
-12.9170885
11
2.1856931
21
-12.9004381
0
LINE
8
layer0
10
2.1856931
20
-12.9004381
11
2.1263769
21
-12.8735363
0
LINE
8
layer0
10
2.1263769
20
-12.8735363
11
1.8260238
21
-12.7439591
0
LINE
8
layer0
10
1.8260238
20
-12.7439591
11
1.5287538
21
-12.6074573
0
LINE
8
layer0
10
1.5287538
20
-12.6074573
11
1.4690715
21
-12.5813776
0
LINE
8
layer0
10
1.4690715
20
-12.5813776
11
1.4455589
21
-12.5801479
0
LINE
8
layer0
10
1.4455589
20
-12.5801479
11
1.4194753
21
-12.5854797
0
LINE
8
layer0
10
1.4194753
20
-12.5854797
11
1.3910895
21
-12.5974818
0
LINE
8
layer0
10
1.3910895
20
-12.5974818
11
1.3606605
21
-12.6162366
0
LINE
8
layer0
10
1.3606605
20
-12.6162366
11
1.3284745
21
-12.6418388
0
LINE
8
layer0
10
1.3284745
20
-12.6418388
11
1.2947945
21
-12.6743617
0
LINE
8
layer0
10
1.2947945
20
-12.6743617
11
1.2599016
21
-12.7138866
0
LINE
8
layer0
10
1.2599016
20
-12.7138866
11
1.1242775
21
-12.8972455
0
LINE
8
layer0
10
1.1242775
20
-12.8972455
11
1.0400293
21
-13.000911
0
LINE
8
layer0
10
1.0400293
20
-13.000911
11
0.9354077
21
-13.1191608
0
LINE
8
layer0
10
0.9354077
20
-13.1191608
11
0.8096812
21
-13.2498521
0
LINE
8
layer0
10
0.8096812
20
-13.2498521
11
0.6607259
21
-13.3923457
0
LINE
8
layer0
10
0.6607259
20
-13.3923457
11
0.4866491
21
-13.5454597
0
LINE
8
layer0
10
0.4866491
20
-13.5454597
11
0.2870066
21
-13.7067742
0
LINE
8
layer0
10
0.2870066
20
-13.7067742
11
0.0598366
21
-13.8750653
0
LINE
8
layer0
10
0.0598366
20
-13.8750653
11
-0.1786803
21
-14.0370075
0
ARC
8
layer0
10
7.5000042
20
0.000008
40
16
50
238.6800351
51
241.3199677
0
LINE
8
layer0
10
-0.8170649
20
-13.668436
11
-0.7960773
21
-13.3809032
0
LINE
8
layer0
10
-0.7960773
20
-13.3809032
11
-0.763918
21
-13.1000226
0
LINE
8
layer0
10
-0.763918
20
-13.1000226
11
-0.7240368
21
-12.8464699
0
LINE
8
layer0
10
-0.7240368
20
-12.8464699
11
-0.6784746
21
-12.619158
0
LINE
8
layer0
10
-0.6784746
20
-12.619158
11
-0.6295491
21
-12.4189121
0
LINE
8
layer0
10
-0.6295491
20
-12.4189121
11
-0.5792304
21
-12.2446841
0
LINE
8
layer0
10
-0.5792304
20
-12.2446841
11
-0.5291339
21
-12.0949542
0
LINE
8
layer0
10
-0.5291339
20
-12.0949542
11
-0.481481
21
-11.9701604
0
LINE
8
layer0
10
-0.481481
20
-11.9701604
11
-0.3904996
21
-11.761027
0
LINE
8
layer0
10
-0.3904996
20
-11.761027
11
-0.3737164
21
-11.7110465
0
LINE
8
layer0
10
-0.3737164
20
-11.7110465
11
-0.3623908
21
-11.6656173
0
LINE
8
layer0
10
-0.3623908
20
-11.6656173
11
-0.3563117
21
-11.6249423
0
LINE
8
layer0
10
-0.3563117
20
-11.6249423
11
-0.355284
21
-11.5892126
0
LINE
8
layer0
10
-0.355284
20
-11.5892126
11
-0.3590827
21
-11.5586287
0
LINE
8
layer0
10
-0.3590827
20
-11.5586287
11
-0.3675071
21
-11.5333737
0
LINE
8
layer0
10
-0.3675071
20
-11.5333737
11
-0.3803284
21
-11.5136261
0
LINE
8
layer0
10
-0.3803284
20
-11.5136261
11
-0.4327552
21
-11.4749796
0
LINE
8
layer0
10
-0.4327552
20
-11.4749796
11
-0.6996043
21
-11.2857871
0
LINE
8
layer0
10
-0.6996043
20
-11.2857871
11
-0.9619979
21
-11.0904622
0
LINE
8
layer0
10
-0.9619979
20
-11.0904622
11
-1.0149537
21
-11.0525438
0
LINE
8
layer0
10
-1.0149537
20
-11.0525438
11
-1.0376968
21
-11.0464524
0
LINE
8
layer0
10
-1.0376968
20
-11.0464524
11
-1.064319
21
-11.0462446
0
LINE
8
layer0
10
-1.064319
20
-11.0462446
11
-1.0945799
21
-11.0520827
0
LINE
8
layer0
10
-1.0945799
20
-11.0520827
11
-1.1282433
21
-11.0641011
0
LINE
8
layer0
10
-1.1282433
20
-11.0641011
11
-1.1650489
21
-11.082452
0
LINE
8
layer0
10
-1.1650489
20
-11.082452
11
-1.2047549
21
-11.1072617
0
LINE
8
layer0
10
-1.2047549
20
-11.1072617
11
-1.2471029
21
-11.1386682
0
LINE
8
layer0
10
-1.2471029
20
-11.1386682
11
-1.4178858
21
-11.2898225
0
LINE
8
layer0
10
-1.4178858
20
-11.2898225
11
-1.5218462
21
-11.3737065
0
LINE
8
layer0
10
-1.5218462
20
-11.3737065
11
-1.6487671
21
-11.4676202
0
LINE
8
layer0
10
-1.6487671
20
-11.4676202
11
-1.7989184
21
-11.5693155
0
LINE
8
layer0
10
-1.7989184
20
-11.5693155
11
-1.9742448
21
-11.6777258
0
LINE
8
layer0
10
-1.9742448
20
-11.6777258
11
-2.1763518
21
-11.7913013
0
LINE
8
layer0
10
-2.1763518
20
-11.7913013
11
-2.4051707
21
-11.9075826
0
LINE
8
layer0
10
-2.4051707
20
-11.9075826
11
-2.6623663
21
-12.0249649
0
LINE
8
layer0
10
-2.6623663
20
-12.0249649
11
-2.9293407
21
-12.1337778
0
ARC
8
layer0
10
7.5000068
20
0.000006
40
16
50
226.68003
51
229.3199626
0
LINE
8
layer0
10
-3.4771448
20
-11.6405328
11
-3.3968344
21
-11.3636469
0
LINE
8
layer0
10
-3.3968344
20
-11.3636469
11
-3.3069794
21
-11.0955905
0
LINE
8
layer0
10
-3.3069794
20
-11.0955905
11
-3.2152531
21
-10.8558703
0
LINE
8
layer0
10
-3.2152531
20
-10.8558703
11
-3.1234258
21
-10.6429986
0
LINE
8
layer0
10
-3.1234258
20
-10.6429986
11
-3.033936
21
-10.4573008
0
LINE
8
layer0
10
-3.033936
20
-10.4573008
11
-2.9484928
21
-10.2973419
0
LINE
8
layer0
10
-2.9484928
20
-10.2973419
11
-2.8683604
21
-10.1612997
0
LINE
8
layer0
10
-2.8683604
20
-10.1612997
11
-2.7958028
21
-10.0491405
0
LINE
8
layer0
10
-2.7958028
20
-10.0491405
11
-2.6633282
21
-9.8634933
0
LINE
8
layer0
10
-2.6633282
20
-9.8634933
11
-2.6365203
21
-9.8180943
0
LINE
8
layer0
10
-2.6365203
20
-9.8180943
11
-2.6159969
21
-9.7760126
0
LINE
8
layer0
10
-2.6159969
20
-9.7760126
11
-2.6015938
21
-9.7374904
0
LINE
8
layer0
10
-2.6015938
20
-9.7374904
11
-2.59316
21
-9.7027551
0
LINE
8
layer0
10
-2.59316
20
-9.7027551
11
-2.590517
21
-9.6720498
0
LINE
8
layer0
10
-2.590517
20
-9.6720498
11
-2.5935065
21
-9.6455951
0
LINE
8
layer0
10
-2.5935065
20
-9.6455951
11
-2.6019418
21
-9.6236133
0
LINE
8
layer0
10
-2.6019418
20
-9.6236133
11
-2.6451879
21
-9.5749112
0
LINE
8
layer0
10
-2.6451879
20
-9.5749112
11
-2.8668703
21
-9.334372
0
LINE
8
layer0
10
-2.8668703
20
-9.334372
11
-3.0829197
21
-9.0887607
0
LINE
8
layer0
10
-3.0829197
20
-9.0887607
11
-3.1268346
21
-9.0406608
0
LINE
8
layer0
10
-3.1268346
20
-9.0406608
11
-3.1478143
21
-9.0299739
0
LINE
8
layer0
10
-3.1478143
20
-9.0299739
11
-3.1738115
21
-9.0242356
0
LINE
8
layer0
10
-3.1738115
20
-9.0242356
11
-3.2046249
21
-9.0236545
0
LINE
8
layer0
10
-3.2046249
20
-9.0236545
11
-3.2400515
21
-9.0284113
0
LINE
8
layer0
10
-3.2400515
20
-9.0284113
11
-3.2798682
21
-9.0387089
0
LINE
8
layer0
10
-3.2798682
20
-9.0387089
11
-3.3238646
21
-9.0547211
0
LINE
8
layer0
10
-3.3238646
20
-9.0547211
11
-3.3718171
21
-9.0766367
0
LINE
8
layer0
10
-3.3718171
20
-9.0766367
11
-3.5702947
21
-9.1889801
0
LINE
8
layer0
10
-3.5702947
20
-9.1889801
11
-3.6894238
21
-9.2494164
0
LINE
8
layer0
10
-3.6894238
20
-9.2494164
11
-3.8330969
21
-9.3148896
0
LINE
8
layer0
10
-3.8330969
20
-9.3148896
11
-4.0011107
21
-9.3831444
0
LINE
8
layer0
10
-4.0011107
20
-9.3831444
11
-4.1951455
21
-9.4527333
0
LINE
8
layer0
10
-4.1951455
20
-9.4527333
11
-4.4164496
21
-9.5218064
0
LINE
8
layer0
10
-4.4164496
20
-9.5218064
11
-4.6644446
21
-9.5879726
0
LINE
8
layer0
10
-4.6644446
20
-9.5879726
11
-4.940425
21
-9.6493158
0
LINE
8
layer0
10
-4.940425
20
-9.6493158
11
-5.2241889
21
-9.7002438
0
ARC
8
layer0
10
7.5000077
20
0.0000047
40
16
50
214.6800309
51
217.3199636
0
LINE
8
layer0
10
-5.6574707
20
-9.1038825
11
-5.5213474
21
-8.8497447
0
LINE
8
layer0
10
-5.5213474
20
-8.8497447
11
-5.3777239
21
-8.6062279
0
LINE
8
layer0
10
-5.3777239
20
-8.6062279
11
-5.2381615
21
-8.3908171
0
LINE
8
layer0
10
-5.2381615
20
-8.3908171
11
-5.1040823
21
-8.2016891
0
LINE
8
layer0
10
-5.1040823
20
-8.2016891
11
-4.9779393
21
-8.0386552
0
LINE
8
layer0
10
-4.9779393
20
-8.0386552
11
-4.861106
21
-7.8999565
0
LINE
8
layer0
10
-4.861106
20
-7.8999565
11
-4.7544398
21
-7.7835476
0
LINE
8
layer0
10
-4.7544398
20
-7.7835476
11
-4.6601486
21
-7.6889249
0
LINE
8
layer0
10
-4.6601486
20
-7.6889249
11
-4.4919707
21
-7.5348775
0
LINE
8
layer0
10
-4.4919707
20
-7.5348775
11
-4.4563096
21
-7.4960443
0
LINE
8
layer0
10
-4.4563096
20
-7.4960443
11
-4.4274854
21
-7.4591492
0
LINE
8
layer0
10
-4.4274854
20
-7.4591492
11
-4.4053878
21
-7.4244634
0
LINE
8
layer0
10
-4.4053878
20
-7.4244634
11
-4.3899164
21
-7.3922407
0
LINE
8
layer0
10
-4.3899164
20
-7.3922407
11
-4.3809472
21
-7.3627558
0
LINE
8
layer0
10
-4.3809472
20
-7.3627558
11
-4.3783711
21
-7.3362577
0
LINE
8
layer0
10
-4.3783711
20
-7.3362577
11
-4.3820519
21
-7.3130025
0
LINE
8
layer0
10
-4.3820519
20
-7.3130025
11
-4.4142271
21
-7.2563732
0
LINE
8
layer0
10
-4.4142271
20
-7.2563732
11
-4.5810544
21
-6.975
0
LINE
8
layer0
10
-4.5810544
20
-6.975
11
-4.7413171
21
-6.6898368
0
LINE
8
layer0
10
-4.7413171
20
-6.6898368
11
-4.7742719
21
-6.6336575
0
LINE
8
layer0
10
-4.7742719
20
-6.6336575
11
-4.7925711
21
-6.6188423
0
LINE
8
layer0
10
-4.7925711
20
-6.6188423
11
-4.8168072
21
-6.6078242
0
LINE
8
layer0
10
-4.8168072
20
-6.6078242
11
-4.8468264
21
-6.6008493
0
LINE
8
layer0
10
-4.8468264
20
-6.6008493
11
-4.8824678
21
-6.5981366
0
LINE
8
layer0
10
-4.8824678
20
-6.5981366
11
-4.9235554
21
-6.5999308
0
LINE
8
layer0
10
-4.9235554
20
-6.5999308
11
-4.9699196
21
-6.6064457
0
LINE
8
layer0
10
-4.9699196
20
-6.6064457
11
-5.0213807
21
-6.6179125
0
LINE
8
layer0
10
-5.0213807
20
-6.6179125
11
-5.2388786
21
-6.6865351
0
LINE
8
layer0
10
-5.2388786
20
-6.6865351
11
-5.3679698
21
-6.7208824
0
LINE
8
layer0
10
-5.3679698
20
-6.7208824
11
-5.522116
21
-6.7550535
0
LINE
8
layer0
10
-5.522116
20
-6.7550535
11
-5.7006493
21
-6.7868848
0
LINE
8
layer0
10
-5.7006493
20
-6.7868848
11
-5.9049123
21
-6.8146109
0
LINE
8
layer0
10
-5.9049123
20
-6.8146109
11
-6.1357415
21
-6.8361629
0
LINE
8
layer0
10
-6.1357415
20
-6.8361629
11
-6.3920739
21
-6.8493221
0
LINE
8
layer0
10
-6.3920739
20
-6.8493221
11
-6.6747774
21
-6.8519453
0
LINE
8
layer0
10
-6.6747774
20
-6.8519453
11
-6.9629289
21
-6.8427626
0
ARC
8
layer0
10
7.5000082
20
0.0000037
40
16
50
202.6800338
51
205.3199665
0
LINE
8
layer0
10
-7.262752
20
-6.1693489
11
-7.0767651
21
-5.9490662
0
LINE
8
layer0
10
-7.0767651
20
-5.9490662
11
-6.8856502
21
-5.7407318
0
LINE
8
layer0
10
-6.8856502
20
-5.7407318
11
-6.7043511
21
-5.5590449
0
LINE
8
layer0
10
-6.7043511
20
-5.5590449
11
-6.5338799
21
-5.4019265
0
LINE
8
layer0
10
-6.5338799
20
-5.4019265
11
-6.3765968
21
-5.2686819
0
LINE
8
layer0
10
-6.3765968
20
-5.2686819
11
-6.2334794
21
-5.157305
0
LINE
8
layer0
10
-6.2334794
20
-5.157305
11
-6.1049415
21
-5.0656171
0
LINE
8
layer0
10
-6.1049415
20
-5.0656171
11
-5.9930375
21
-4.9926664
0
LINE
8
layer0
10
-5.9930375
20
-4.9926664
11
-5.7965065
21
-4.8769515
0
LINE
8
layer0
10
-5.7965065
20
-4.8769515
11
-5.7535508
21
-4.8463812
0
LINE
8
layer0
10
-5.7535508
20
-4.8463812
11
-5.7176856
21
-4.8162853
0
LINE
8
layer0
10
-5.7176856
20
-4.8162853
11
-5.6888593
21
-4.7869517
0
LINE
8
layer0
10
-5.6888593
20
-4.7869517
11
-5.6670265
21
-4.7586498
0
LINE
8
layer0
10
-5.6670265
20
-4.7586498
11
-5.652123
21
-4.7316741
0
LINE
8
layer0
10
-5.652123
20
-4.7316741
11
-5.644094
21
-4.7062907
0
LINE
8
layer0
10
-5.644094
20
-4.7062907
11
-5.6428592
21
-4.6827783
0
LINE
8
layer0
10
-5.6428592
20
-4.6827783
11
-5.6625575
21
-4.620697
0
LINE
8
layer0
10
-5.6625575
20
-4.620697
11
-5.7672384
21
-4.3107871
0
LINE
8
layer0
10
-5.7672384
20
-4.3107871
11
-5.8647103
21
-3.9985348
0
LINE
8
layer0
10
-5.8647103
20
-3.9985348
11
-5.8852645
21
-3.9367316
0
LINE
8
layer0
10
-5.8852645
20
-3.9367316
11
-5.9000836
21
-3.9184354
0
LINE
8
layer0
10
-5.9000836
20
-3.9184354
11
-5.9214993
21
-3.9026191
0
LINE
8
layer0
10
-5.9214993
20
-3.9026191
11
-5.9494124
21
-3.8895554
0
LINE
8
layer0
10
-5.9494124
20
-3.8895554
11
-5.9837109
21
-3.8794917
0
LINE
8
layer0
10
-5.9837109
20
-3.8794917
11
-6.0242737
21
-3.872704
0
LINE
8
layer0
10
-6.0242737
20
-3.872704
11
-6.0709792
21
-3.8694369
0
LINE
8
layer0
10
-6.0709792
20
-3.8694369
11
-6.1236998
21
-3.8699538
0
LINE
8
layer0
10
-6.1236998
20
-3.8699538
11
-6.3507123
21
-3.8918565
0
LINE
8
layer0
10
-6.3507123
20
-3.8918565
11
-6.4841239
21
-3.8986137
0
LINE
8
layer0
10
-6.4841239
20
-3.8986137
11
-6.6420061
21
-3.8999893
0
LINE
8
layer0
10
-6.6420061
20
-3.8999893
11
-6.8232561
21
-3.8940058
0
LINE
8
layer0
10
-6.8232561
20
-3.8940058
11
-7.02882
21
-3.8786573
0
LINE
8
layer0
10
-7.02882
20
-3.8786573
11
-7.259086
21
-3.8517463
0
LINE
8
layer0
10
-7.259086
20
-3.8517463
11
-7.5125529
21
-3.8113234
0
LINE
8
layer0
10
-7.5125529
20
-3.8113234
11
-7.7896241
21
-3.7551119
0
LINE
8
layer0
10
-7.7896241
20
-3.7551119
11
-8.0695695
21
-3.6862198
0
ARC
8
layer0
10
7.5000086
20
0.0000028
40
16
50
190.6800371
51
193.3199697
0
LINE
8
layer0
10
-8.2228302
20
-2.9651851
11
-7.9951082
21
-2.7883849
0
LINE
8
layer0
10
-7.9951082
20
-2.7883849
11
-7.7648544
21
-2.6243382
0
LINE
8
layer0
10
-7.7648544
20
-2.6243382
11
-7.5497424
21
-2.4843158
0
LINE
8
layer0
10
-7.5497424
20
-2.4843158
11
-7.3503296
21
-2.3660737
0
LINE
8
layer0
10
-7.3503296
20
-2.3660737
11
-7.1687804
21
-2.2684418
0
LINE
8
layer0
10
-7.1687804
20
-2.2684418
11
-7.005634
21
-2.1892546
0
LINE
8
layer0
10
-7.005634
20
-2.1892546
11
-6.8608419
21
-2.1262948
0
LINE
8
layer0
10
-6.8608419
20
-2.1262948
11
-6.736216
21
-2.0782044
0
LINE
8
layer0
10
-6.736216
20
-2.0782044
11
-6.5199211
21
-2.0058792
0
LINE
8
layer0
10
-6.5199211
20
-2.0058792
11
-6.4715482
21
-1.984908
0
LINE
8
layer0
10
-6.4715482
20
-1.984908
11
-6.4302095
21
-1.9629265
0
LINE
8
layer0
10
-6.4302095
20
-1.9629265
11
-6.3959143
21
-1.9402273
0
LINE
8
layer0
10
-6.3959143
20
-1.9402273
11
-6.3686743
21
-1.9170832
0
LINE
8
layer0
10
-6.3686743
20
-1.9170832
11
-6.3484879
21
-1.8937956
0
LINE
8
layer0
10
-6.3484879
20
-1.8937956
11
-6.3353568
21
-1.8706361
0
LINE
8
layer0
10
-6.3353568
20
-1.8706361
11
-6.3292606
21
-1.8478943
0
LINE
8
layer0
10
-6.3292606
20
-1.8478943
11
-6.335621
21
-1.7830741
0
LINE
8
layer0
10
-6.335621
20
-1.7830741
11
-6.3735804
21
-1.4581721
0
LINE
8
layer0
10
-6.3735804
20
-1.4581721
11
-6.4040014
21
-1.1324777
0
LINE
8
layer0
10
-6.4040014
20
-1.1324777
11
-6.4112569
21
-1.0677516
0
LINE
8
layer0
10
-6.4112569
20
-1.0677516
11
-6.4219482
21
-1.0467742
0
LINE
8
layer0
10
-6.4219482
20
-1.0467742
11
-6.4396075
21
-1.0268509
0
LINE
8
layer0
10
-6.4396075
20
-1.0268509
11
-6.4641945
21
-1.0082692
0
LINE
8
layer0
10
-6.4641945
20
-1.0082692
11
-6.4956512
21
-0.9912943
0
LINE
8
layer0
10
-6.4956512
20
-0.9912943
11
-6.5339163
21
-0.9762216
0
LINE
8
layer0
10
-6.5339163
20
-0.9762216
11
-6.5789219
21
-0.9633152
0
LINE
8
layer0
10
-6.5789219
20
-0.9633152
11
-6.6305979
21
-0.9528596
0
LINE
8
layer0
10
-6.6305979
20
-0.9528596
11
-6.8572035
21
-0.9270851
0
LINE
8
layer0
10
-6.8572035
20
-0.9270851
11
-6.9891046
21
-0.9059568
0
LINE
8
layer0
10
-6.9891046
20
-0.9059568
11
-7.1438227
21
-0.8744768
0
LINE
8
layer0
10
-7.1438227
20
-0.8744768
11
-7.3198679
21
-0.83094
0
LINE
8
layer0
10
-7.3198679
20
-0.83094
11
-7.5177487
21
-0.7731878
0
LINE
8
layer0
10
-7.5177487
20
-0.7731878
11
-7.7373877
21
-0.6989899
0
LINE
8
layer0
10
-7.7373877
20
-0.6989899
11
-7.9769113
21
-0.6067516
0
LINE
8
layer0
10
-7.9769113
20
-0.6067516
11
-8.2362408
21
-0.4941621
0
LINE
8
layer0
10
-8.2362408
20
-0.4941621
11
-8.4957453
21
-0.3685715
0
ARC
8
layer0
10
7.500009
20
0
40
16
50
178.6800334
51
181.3199662
0
LINE
8
layer0
10
-8.4957453
20
0.3685715
11
-8.2362408
21
0.4941621
0
LINE
8
layer0
10
-8.2362408
20
0.4941621
11
-7.9769113
21
0.6067516
0
LINE
8
layer0
10
-7.9769113
20
0.6067516
11
-7.7373877
21
0.6989899
0
LINE
8
layer0
10
-7.7373877
20
0.6989899
11
-7.5177487
21
0.7731878
0
LINE
8
layer0
10
-7.5177487
20
0.7731878
11
-7.3198679
21
0.83094
0
LINE
8
layer0
10
-7.3198679
20
0.83094
11
-7.1438227
21
0.8744768
0
LINE
8
layer0
10
-7.1438227
20
0.8744768
11
-6.9891046
21
0.9059568
0
LINE
8
layer0
10
-6.9891046
20
0.9059568
11
-6.8572035
21
0.9270851
0
LINE
8
layer0
10
-6.8572035
20
0.9270851
11
-6.6305979
21
0.9528596
0
LINE
8
layer0
10
-6.6305979
20
0.9528596
11
-6.5789219
21
0.9633152
0
LINE
8
layer0
10
-6.5789219
20
0.9633152
11
-6.5339163
21
0.9762216
0
LINE
8
layer0
10
-6.5339163
20
0.9762216
11
-6.4956512
21
0.9912943
0
LINE
8
layer0
10
-6.4956512
20
0.9912943
11
-6.4641945
21
1.0082692
0
LINE
8
layer0
10
-6.4641945
20
1.0082692
11
-6.4396075
21
1.0268509
0
LINE
8
layer0
10
-6.4396075
20
1.0268509
11
-6.4219482
21
1.0467742
0
LINE
8
layer0
10
-6.4219482
20
1.0467742
11
-6.4112569
21
1.0677516
0
LINE
8
layer0
10
-6.4112569
20
1.0677516
11
-6.4040014
21
1.1324777
0
LINE
8
layer0
10
-6.4040014
20
1.1324777
11
-6.3735804
21
1.4581721
0
LINE
8
layer0
10
-6.3735804
20
1.4581721
11
-6.335621
21
1.7830741
0
LINE
8
layer0
10
-6.335621
20
1.7830741
11
-6.3292606
21
1.8478943
0
LINE
8
layer0
10
-6.3292606
20
1.8478943
11
-6.3353568
21
1.8706361
0
LINE
8
layer0
10
-6.3353568
20
1.8706361
11
-6.3484879
21
1.8937956
0
LINE
8
layer0
10
-6.3484879
20
1.8937956
11
-6.3686743
21
1.9170832
0
LINE
8
layer0
10
-6.3686743
20
1.9170832
11
-6.3959143
21
1.9402273
0
LINE
8
layer0
10
-6.3959143
20
1.9402273
11
-6.4302095
21
1.9629265
0
LINE
8
layer0
10
-6.4302095
20
1.9629265
11
-6.4715482
21
1.984908
0
LINE
8
layer0
10
-6.4715482
20
1.984908
11
-6.5199211
21
2.0058792
0
LINE
8
layer0
10
-6.5199211
20
2.0058792
11
-6.736216
21
2.0782044
0
LINE
8
layer0
10
-6.736216
20
2.0782044
11
-6.8608419
21
2.1262948
0
LINE
8
layer0
10
-6.8608419
20
2.1262948
11
-7.005634
21
2.1892546
0
LINE
8
layer0
10
-7.005634
20
2.1892546
11
-7.1687804
21
2.2684418
0
LINE
8
layer0
10
-7.1687804
20
2.2684418
11
-7.3503296
21
2.3660737
0
LINE
8
layer0
10
-7.3503296
20
2.3660737
11
-7.5497424
21
2.4843158
0
LINE
8
layer0
10
-7.5497424
20
2.4843158
11
-7.7648544
21
2.6243382
0
LINE
8
layer0
10
-7.7648544
20
2.6243382
11
-7.9951082
21
2.7883849
0
LINE
8
layer0
10
-7.9951082
20
2.7883849
11
-8.2228302
21
2.9651851
0
ARC
8
layer0
10
7.5000086
20
-0.0000027
40
16
50
166.6800306
51
169.3199632
0
LINE
8
layer0
10
-8.0695695
20
3.6862198
11
-7.7896241
21
3.7551119
0
LINE
8
layer0
10
-7.7896241
20
3.7551119
11
-7.5125529
21
3.8113234
0
LINE
8
layer0
10
-7.5125529
20
3.8113234
11
-7.259086
21
3.8517463
0
LINE
8
layer0
10
-7.259086
20
3.8517463
11
-7.02882
21
3.8786573
0
LINE
8
layer0
10
-7.02882
20
3.8786573
11
-6.8232561
21
3.8940058
0
LINE
8
layer0
10
-6.8232561
20
3.8940058
11
-6.6420061
21
3.8999893
0
LINE
8
layer0
10
-6.6420061
20
3.8999893
11
-6.4841239
21
3.8986137
0
LINE
8
layer0
10
-6.4841239
20
3.8986137
11
-6.3507123
21
3.8918565
0
LINE
8
layer0
10
-6.3507123
20
3.8918565
11
-6.1236998
21
3.8699538
0
LINE
8
layer0
10
-6.1236998
20
3.8699538
11
-6.0709792
21
3.8694369
0
LINE
8
layer0
10
-6.0709792
20
3.8694369
11
-6.0242737
21
3.872704
0
LINE
8
layer0
10
-6.0242737
20
3.872704
11
-5.9837109
21
3.8794917
0
LINE
8
layer0
10
-5.9837109
20
3.8794917
11
-5.9494124
21
3.8895554
0
LINE
8
layer0
10
-5.9494124
20
3.8895554
11
-5.9214993
21
3.9026191
0
LINE
8
layer0
10
-5.9214993
20
3.9026191
11
-5.9000836
21
3.9184354
0
LINE
8
layer0
10
-5.9000836
20
3.9184354
11
-5.8852645
21
3.9367316
0
LINE
8
layer0
10
-5.8852645
20
3.9367316
11
-5.8647103
21
3.9985348
0
LINE
8
layer0
10
-5.8647103
20
3.9985348
11
-5.7672384
21
4.3107871
0
LINE
8
layer0
10
-5.7672384
20
4.3107871
11
-5.6625575
21
4.620697
0
LINE
8
layer0
10
-5.6625575
20
4.620697
11
-5.6428592
21
4.6827783
0
LINE
8
layer0
10
-5.6428592
20
4.6827783
11
-5.644094
21
4.7062907
0
LINE
8
layer0
10
-5.644094
20
4.7062907
11
-5.652123
21
4.7316741
0
LINE
8
layer0
10
-5.652123
20
4.7316741
11
-5.6670265
21
4.7586498
0
LINE
8
layer0
10
-5.6670265
20
4.7586498
11
-5.6888593
21
4.7869517
0
LINE
8
layer0
10
-5.6888593
20
4.7869517
11
-5.7176856
21
4.8162853
0
LINE
8
layer0
10
-5.7176856
20
4.8162853
11
-5.7535508
21
4.8463812
0
LINE
8
layer0
10
-5.7535508
20
4.8463812
11
-5.7965065
21
4.8769515
0
LINE
8
layer0
10
-5.7965065
20
4.8769515
11
-5.9930375
21
4.9926664
0
LINE
8
layer0
10
-5.9930375
20
4.9926664
11
-6.1049415
21
5.0656171
0
LINE
8
layer0
10
-6.1049415
20
5.0656171
11
-6.2334794
21
5.157305
0
LINE
8
layer0
10
-6.2334794
20
5.157305
11
-6.3765968
21
5.2686819
0
LINE
8
layer0
10
-6.3765968
20
5.2686819
11
-6.5338799
21
5.4019265
0
LINE
8
layer0
10
-6.5338799
20
5.4019265
11
-6.7043511
21
5.5590449
0
LINE
8
layer0
10
-6.7043511
20
5.5590449
11
-6.8856502
21
5.7407318
0
LINE
8
layer0
10
-6.8856502
20
5.7407318
11
-7.0767651
21
5.9490662
0
LINE
8
layer0
10
-7.0767651
20
5.9490662
11
-7.262752
21
6.1693489
0
ARC
8
layer0
10
7.5000082
20
-0.0000037
40
16
50
154.6800335
51
157.3199662
0
LINE
8
layer0
10
-6.9629289
20
6.8427626
11
-6.6747774
21
6.8519453
0
LINE
8
layer0
10
-6.6747774
20
6.8519453
11
-6.3920739
21
6.8493221
0
LINE
8
layer0
10
-6.3920739
20
6.8493221
11
-6.1357415
21
6.8361629
0
LINE
8
layer0
10
-6.1357415
20
6.8361629
11
-5.9049123
21
6.8146109
0
LINE
8
layer0
10
-5.9049123
20
6.8146109
11
-5.7006493
21
6.7868848
0
LINE
8
layer0
10
-5.7006493
20
6.7868848
11
-5.522116
21
6.7550535
0
LINE
8
layer0
10
-5.522116
20
6.7550535
11
-5.3679698
21
6.7208824
0
LINE
8
layer0
10
-5.3679698
20
6.7208824
11
-5.2388786
21
6.6865351
0
LINE
8
layer0
10
-5.2388786
20
6.6865351
11
-5.0213807
21
6.6179125
0
LINE
8
layer0
10
-5.0213807
20
6.6179125
11
-4.9699196
21
6.6064457
0
LINE
8
layer0
10
-4.9699196
20
6.6064457
11
-4.9235554
21
6.5999308
0
LINE
8
layer0
10
-4.9235554
20
6.5999308
11
-4.8824678
21
6.5981366
0
LINE
8
layer0
10
-4.8824678
20
6.5981366
11
-4.8468264
21
6.6008493
0
LINE
8
layer0
10
-4.8468264
20
6.6008493
11
-4.8168072
21
6.6078242
0
LINE
8
layer0
10
-4.8168072
20
6.6078242
11
-4.7925711
21
6.6188423
0
LINE
8
layer0
10
-4.7925711
20
6.6188423
11
-4.7742719
21
6.6336575
0
LINE
8
layer0
10
-4.7742719
20
6.6336575
11
-4.7413171
21
6.6898368
0
LINE
8
layer0
10
-4.7413171
20
6.6898368
11
-4.5810544
21
6.975
0
LINE
8
layer0
10
-4.5810544
20
6.975
11
-4.4142271
21
7.2563732
0
LINE
8
layer0
10
-4.4142271
20
7.2563732
11
-4.3820519
21
7.3130025
0
LINE
8
layer0
10
-4.3820519
20
7.3130025
11
-4.3783711
21
7.3362577
0
LINE
8
layer0
10
-4.3783711
20
7.3362577
11
-4.3809472
21
7.3627558
0
LINE
8
layer0
10
-4.3809472
20
7.3627558
11
-4.3899164
21
7.3922407
0
LINE
8
layer0
10
-4.3899164
20
7.3922407
11
-4.4053878
21
7.4244634
0
LINE
8
layer0
10
-4.4053878
20
7.4244634
11
-4.4274854
21
7.4591492
0
LINE
8
layer0
10
-4.4274854
20
7.4591492
11
-4.4563096
21
7.4960443
0
LINE
8
layer0
10
-4.4563096
20
7.4960443
11
-4.4919707
21
7.5348775
0
LINE
8
layer0
10
-4.4919707
20
7.5348775
11
-4.6601486
21
7.6889249
0
LINE
8
layer0
10
-4.6601486
20
7.6889249
11
-4.7544398
21
7.7835476
0
LINE
8
layer0
10
-4.7544398
20
7.7835476
11
-4.861106
21
7.8999565
0
LINE
8
layer0
10
-4.861106
20
7.8999565
11
-4.9779393
21
8.0386552
0
LINE
8
layer0
10
-4.9779393
20
8.0386552
11
-5.1040823
21
8.2016891
0
LINE
8
layer0
10
-5.1040823
20
8.2016891
11
-5.2381615
21
8.3908171
0
LINE
8
layer0
10
-5.2381615
20
8.3908171
11
-5.3777239
21
8.6062279
0
LINE
8
layer0
10
-5.3777239
20
8.6062279
11
-5.5213474
21
8.8497447
0
LINE
8
layer0
10
-5.5213474
20
8.8497447
11
-5.6574707
21
9.1038825
0
ARC
8
layer0
10
7.5000077
20
-0.0000046
40
16
50
142.6800367
51
145.3199694
0
LINE
8
layer0
10
-5.2241889
20
9.7002438
11
-4.940425
21
9.6493158
0
LINE
8
layer0
10
-4.940425
20
9.6493158
11
-4.6644446
21
9.5879726
0
LINE
8
layer0
10
-4.6644446
20
9.5879726
11
-4.4164496
21
9.5218064
0
LINE
8
layer0
10
-4.4164496
20
9.5218064
11
-4.1951455
21
9.4527333
0
LINE
8
layer0
10
-4.1951455
20
9.4527333
11
-4.0011107
21
9.3831444
0
LINE
8
layer0
10
-4.0011107
20
9.3831444
11
-3.8330969
21
9.3148896
0
LINE
8
layer0
10
-3.8330969
20
9.3148896
11
-3.6894238
21
9.2494164
0
LINE
8
layer0
10
-3.6894238
20
9.2494164
11
-3.5702947
21
9.1889801
0
LINE
8
layer0
10
-3.5702947
20
9.1889801
11
-3.3718171
21
9.0766367
0
LINE
8
layer0
10
-3.3718171
20
9.0766367
11
-3.3238646
21
9.0547211
0
LINE
8
layer0
10
-3.3238646
20
9.0547211
11
-3.2798682
21
9.0387089
0
LINE
8
layer0
10
-3.2798682
20
9.0387089
11
-3.2400515
21
9.0284113
0
LINE
8
layer0
10
-3.2400515
20
9.0284113
11
-3.2046249
21
9.0236545
0
LINE
8
layer0
10
-3.2046249
20
9.0236545
11
-3.1738115
21
9.0242356
0
LINE
8
layer0
10
-3.1738115
20
9.0242356
11
-3.1478143
21
9.0299739
0
LINE
8
layer0
10
-3.1478143
20
9.0299739
11
-3.1268346
21
9.0406608
0
LINE
8
layer0
10
-3.1268346
20
9.0406608
11
-3.0829197
21
9.0887607
0
LINE
8
layer0
10
-3.0829197
20
9.0887607
11
-2.8668703
21
9.334372
0
LINE
8
layer0
10
-2.8668703
20
9.334372
11
-2.6451879
21
9.5749112
0
LINE
8
layer0
10
-2.6451879
20
9.5749112
11
-2.6019418
21
9.6236133
0
LINE
8
layer0
10
-2.6019418
20
9.6236133
11
-2.5935065
21
9.6455951
0
LINE
8
layer0
10
-2.5935065
20
9.6455951
11
-2.590517
21
9.6720498
0
LINE
8
layer0
10
-2.590517
20
9.6720498
11
-2.59316
21
9.7027551
0
LINE
8
layer0
10
-2.59316
20
9.7027551
11
-2.6015938
21
9.7374904
0
LINE
8
layer0
10
-2.6015938
20
9.7374904
11
-2.6159969
21
9.7760126
0
LINE
8
layer0
10
-2.6159969
20
9.7760126
11
-2.6365203
21
9.8180943
0
LINE
8
layer0
10
-2.6365203
20
9.8180943
11
-2.6633282
21
9.8634933
0
LINE
8
layer0
10
-2.6633282
20
9.8634933
11
-2.7958028
21
10.0491405
0
LINE
8
layer0
10
-2.7958028
20
10.0491405
11
-2.8683604
21
10.1612997
0
LINE
8
layer0
10
-2.8683604
20
10.1612997
11
-2.9484928
21
10.2973419
0
LINE
8
layer0
10
-2.9484928
20
10.2973419
11
-3.033936
21
10.4573008
0
LINE
8
layer0
10
-3.033936
20
10.4573008
11
-3.1234258
21
10.6429986
0
LINE
8
layer0
10
-3.1234258
20
10.6429986
11
-3.2152531
21
10.8558703
0
LINE
8
layer0
10
-3.2152531
20
10.8558703
11
-3.3069794
21
11.0955905
0
LINE
8
layer0
10
-3.3069794
20
11.0955905
11
-3.3968344
21
11.3636469
0
LINE
8
layer0
10
-3.3968344
20
11.3636469
11
-3.4771448
21
11.6405328
0
ARC
8
layer0
10
7.5000067
20
-0.0000061
40
16
50
130.6800372
51
133.3199697
0
LINE
8
layer0
10
-2.9293407
20
12.1337778
11
-2.6623663
21
12.0249649
0
LINE
8
layer0
10
-2.6623663
20
12.0249649
11
-2.4051707
21
11.9075826
0
LINE
8
layer0
10
-2.4051707
20
11.9075826
11
-2.1763518
21
11.7913013
0
LINE
8
layer0
10
-2.1763518
20
11.7913013
11
-1.9742448
21
11.6777258
0
LINE
8
layer0
10
-1.9742448
20
11.6777258
11
-1.7989184
21
11.5693155
0
LINE
8
layer0
10
-1.7989184
20
11.5693155
11
-1.6487671
21
11.4676202
0
LINE
8
layer0
10
-1.6487671
20
11.4676202
11
-1.5218462
21
11.3737065
0
LINE
8
layer0
10
-1.5218462
20
11.3737065
11
-1.4178858
21
11.2898225
0
LINE
8
layer0
10
-1.4178858
20
11.2898225
11
-1.2471029
21
11.1386682
0
LINE
8
layer0
10
-1.2471029
20
11.1386682
11
-1.2047549
21
11.1072617
0
LINE
8
layer0
10
-1.2047549
20
11.1072617
11
-1.1650489
21
11.082452
0
LINE
8
layer0
10
-1.1650489
20
11.082452
11
-1.1282433
21
11.0641011
0
LINE
8
layer0
10
-1.1282433
20
11.0641011
11
-1.0945799
21
11.0520827
0
LINE
8
layer0
10
-1.0945799
20
11.0520827
11
-1.064319
21
11.0462446
0
LINE
8
layer0
10
-1.064319
20
11.0462446
11
-1.0376968
21
11.0464524
0
LINE
8
layer0
10
-1.0376968
20
11.0464524
11
-1.0149537
21
11.0525438
0
LINE
8
layer0
10
-1.0149537
20
11.0525438
11
-0.9619979
21
11.0904622
0
LINE
8
layer0
10
-0.9619979
20
11.0904622
11
-0.6996043
21
11.2857871
0
LINE
8
layer0
10
-0.6996043
20
11.2857871
11
-0.4327552
21
11.4749796
0
LINE
8
layer0
10
-0.4327552
20
11.4749796
11
-0.3803284
21
11.5136261
0
LINE
8
layer0
10
-0.3803284
20
11.5136261
11
-0.3675071
21
11.5333737
0
LINE
8
layer0
10
-0.3675071
20
11.5333737
11
-0.3590827
21
11.5586287
0
LINE
8
layer0
10
-0.3590827
20
11.5586287
11
-0.355284
21
11.5892126
0
LINE
8
layer0
10
-0.355284
20
11.5892126
11
-0.3563117
21
11.6249423
0
LINE
8
layer0
10
-0.3563117
20
11.6249423
11
-0.3623908
21
11.6656173
0
LINE
8
layer0
10
-0.3623908
20
11.6656173
11
-0.3737164
21
11.7110465
0
LINE
8
layer0
10
-0.3737164
20
11.7110465
11
-0.3904996
21
11.761027
0
LINE
8
layer0
10
-0.3904996
20
11.761027
11
-0.481481
21
11.9701604
0
LINE
8
layer0
10
-0.481481
20
11.9701604
11
-0.5291339
21
12.0949542
0
LINE
8
layer0
10
-0.5291339
20
12.0949542
11
-0.5792304
21
12.2446841
0
LINE
8
layer0
10
-0.5792304
20
12.2446841
11
-0.6295491
21
12.4189121
0
LINE
8
layer0
10
-0.6295491
20
12.4189121
11
-0.6784746
21
12.619158
0
LINE
8
layer0
10
-0.6784746
20
12.619158
11
-0.7240368
21
12.8464699
0
LINE
8
layer0
10
-0.7240368
20
12.8464699
11
-0.763918
21
13.1000226
0
LINE
8
layer0
10
-0.763918
20
13.1000226
11
-0.7960773
21
13.3809032
0
LINE
8
layer0
10
-0.7960773
20
13.3809032
11
-0.8170649
21
13.668436
0
ARC
8
layer0
10
7.5000042
20
-0.000008
40
16
50
118.6800323
51
121.3199649
0
LINE
8
layer0
10
-0.1786803
20
14.0370075
11
0.0598366
21
13.8750653
0
LINE
8
layer0
10
0.0598366
20
13.8750653
11
0.2870066
21
13.7067742
0
LINE
8
layer0
10
0.2870066
20
13.7067742
11
0.4866491
21
13.5454597
0
LINE
8
layer0
10
0.4866491
20
13.5454597
11
0.6607259
21
13.3923457
0
LINE
8
layer0
10
0.6607259
20
13.3923457
11
0.8096812
21
13.2498521
0
LINE
8
layer0
10
0.8096812
20
13.2498521
11
0.9354077
21
13.1191608
0
LINE
8
layer0
10
0.9354077
20
13.1191608
11
1.0400293
21
13.000911
0
LINE
8
layer0
10
1.0400293
20
13.000911
11
1.1242775
21
12.8972455
0
LINE
8
layer0
10
1.1242775
20
12.8972455
11
1.2599016
21
12.7138866
0
LINE
8
layer0
10
1.2599016
20
12.7138866
11
1.2947945
21
12.6743617
0
LINE
8
layer0
10
1.2947945
20
12.6743617
11
1.3284745
21
12.6418388
0
LINE
8
layer0
10
1.3284745
20
12.6418388
11
1.3606605
21
12.6162366
0
LINE
8
layer0
10
1.3606605
20
12.6162366
11
1.3910895
21
12.5974818
0
LINE
8
layer0
10
1.3910895
20
12.5974818
11
1.4194753
21
12.5854797
0
LINE
8
layer0
10
1.4194753
20
12.5854797
11
1.4455589
21
12.5801479
0
LINE
8
layer0
10
1.4455589
20
12.5801479
11
1.4690715
21
12.5813776
0
LINE
8
layer0
10
1.4690715
20
12.5813776
11
1.5287538
21
12.6074573
0
LINE
8
layer0
10
1.5287538
20
12.6074573
11
1.8260238
21
12.7439591
0
LINE
8
layer0
10
1.8260238
20
12.7439591
11
2.1263769
21
12.8735363
0
LINE
8
layer0
10
2.1263769
20
12.8735363
11
2.1856931
21
12.9004381
0
LINE
8
layer0
10
2.1856931
20
12.9004381
11
2.20234
21
12.9170885
0
LINE
8
layer0
10
2.20234
20
12.9170885
11
2.2158311
21
12.9400401
0
LINE
8
layer0
10
2.2158311
20
12.9400401
11
2.2259056
21
12.9691658
0
LINE
8
layer0
10
2.2259056
20
12.9691658
11
2.232329
21
13.0043285
0
LINE
8
layer0
10
2.232329
20
13.0043285
11
2.2348395
21
13.0453785
0
LINE
8
layer0
10
2.2348395
20
13.0453785
11
2.2332066
21
13.0921697
0
LINE
8
layer0
10
2.2332066
20
13.0921697
11
2.2271818
21
13.1445475
0
LINE
8
layer0
10
2.2271818
20
13.1445475
11
2.1816698
21
13.3680269
0
LINE
8
layer0
10
2.1816698
20
13.3680269
11
2.1610044
21
13.5000013
0
LINE
8
layer0
10
2.1610044
20
13.5000013
11
2.1431331
21
13.6568748
0
LINE
8
layer0
10
2.1431331
20
13.6568748
11
2.1301381
21
13.8377574
0
LINE
8
layer0
10
2.1301381
20
13.8377574
11
2.1239152
21
14.0437996
0
LINE
8
layer0
10
2.1239152
20
14.0437996
11
2.1266094
21
14.2756171
0
LINE
8
layer0
10
2.1266094
20
14.2756171
11
2.1403163
21
14.5319208
0
LINE
8
layer0
10
2.1403163
20
14.5319208
11
2.1672581
21
14.8133498
0
LINE
8
layer0
10
2.1672581
20
14.8133498
11
2.2065105
21
15.0989629
0
ARC
8
layer0
10
7.5000022
20
-0.0000088
40
16
50
106.6800316
51
109.3199641
0
LINE
8
layer0
10
2.9075752
20
15.3267526
11
3.1072103
21
15.1187588
0
LINE
8
layer0
10
3.1072103
20
15.1187588
11
3.2944264
21
14.9069139
0
LINE
8
layer0
10
3.2944264
20
14.9069139
11
3.4561671
21
14.7076166
0
LINE
8
layer0
10
3.4561671
20
14.7076166
11
3.5946057
21
14.5216559
0
LINE
8
layer0
10
3.5946057
20
14.5216559
11
3.7106799
21
14.3513065
0
LINE
8
layer0
10
3.7106799
20
14.3513065
11
3.8064867
21
14.1973312
0
LINE
8
layer0
10
3.8064867
20
14.1973312
11
3.8842365
21
14.0599133
0
LINE
8
layer0
10
3.8842365
20
14.0599133
11
3.9450904
21
13.940997
0
LINE
8
layer0
10
3.9450904
20
13.940997
11
4.0396284
21
13.7334471
0
LINE
8
layer0
10
4.0396284
20
13.7334471
11
4.0655411
21
13.6875312
0
LINE
8
layer0
10
4.0655411
20
13.6875312
11
4.0917232
21
13.6487166
0
LINE
8
layer0
10
4.0917232
20
13.6487166
11
4.1178829
21
13.616982
0
LINE
8
layer0
10
4.1178829
20
13.616982
11
4.1437476
21
13.5923105
0
LINE
8
layer0
10
4.1437476
20
13.5923105
11
4.1690177
21
13.5746689
0
LINE
8
layer0
10
4.1690177
20
13.5746689
11
4.1934228
21
13.5640306
0
LINE
8
layer0
10
4.1934228
20
13.5640306
11
4.2166773
21
13.5603449
0
LINE
8
layer0
10
4.2166773
20
13.5603449
11
4.2804776
21
13.573446
0
LINE
8
layer0
10
4.2804776
20
13.573446
11
4.5996319
21
13.645159
0
LINE
8
layer0
10
4.5996319
20
13.645159
11
4.9203622
21
13.7094577
0
LINE
8
layer0
10
4.9203622
20
13.7094577
11
4.9839754
21
13.7234391
0
LINE
8
layer0
10
4.9839754
20
13.7234391
11
5.0037203
21
13.7362646
0
LINE
8
layer0
10
5.0037203
20
13.7362646
11
5.0216885
21
13.7559097
0
LINE
8
layer0
10
5.0216885
20
13.7559097
11
5.0375984
21
13.7823043
0
LINE
8
layer0
10
5.0375984
20
13.7823043
11
5.0511922
21
13.8153631
0
LINE
8
layer0
10
5.0511922
20
13.8153631
11
5.0621826
21
13.8549941
0
LINE
8
layer0
10
5.0621826
20
13.8549941
11
5.0703138
21
13.9011023
0
LINE
8
layer0
10
5.0703138
20
13.9011023
11
5.0753106
21
13.9535881
0
LINE
8
layer0
10
5.0753106
20
13.9535881
11
5.0772572
21
14.1816464
0
LINE
8
layer0
10
5.0772572
20
14.1816464
11
5.0844823
21
14.3150335
0
LINE
8
layer0
10
5.0844823
20
14.3150335
11
5.0996174
21
14.4721946
0
LINE
8
layer0
10
5.0996174
20
14.4721946
11
5.124514
21
14.6518262
0
LINE
8
layer0
10
5.124514
20
14.6518262
11
5.1612656
21
14.8546597
0
LINE
8
layer0
10
5.1612656
20
14.8546597
11
5.2120986
21
15.0808513
0
LINE
8
layer0
10
5.2120986
20
15.0808513
11
5.2787945
21
15.3287044
0
LINE
8
layer0
10
5.2787945
20
15.3287044
11
5.3636599
21
15.598382
0
LINE
8
layer0
10
5.3636599
20
15.598382
11
5.4614369
21
15.8695927
0
ARC
8
layer0
10
7.5000003
20
-0.000009
40
16
50
94.6800313
51
97.3199639
0
LINE
8
layer0
10
6.1945418
20
15.9466451
11
6.34657
21
15.70169
0
LINE
8
layer0
10
6.34657
20
15.70169
11
6.48565
21
15.45555
0
LINE
8
layer0
10
6.48565
20
15.45555
11
6.60242
21
15.22698
0
LINE
8
layer0
10
6.60242
20
15.22698
11
6.69917
21
15.0163
0
LINE
8
layer0
10
6.69917
20
15.0163
11
6.77729
21
14.82554
0
LINE
8
layer0
10
6.77729
20
14.82554
11
6.83899
21
14.65501
0
LINE
8
layer0
10
6.83899
20
14.65501
11
6.88647
21
14.50443
0
LINE
8
layer0
10
6.88647
20
14.50443
11
6.92127
21
14.37546
0
LINE
8
layer0
10
6.92127
20
14.37546
11
6.97059
21
14.15279
0
LINE
8
layer0
10
6.97059
20
14.15279
11
6.98639
21
14.10249
0
LINE
8
layer0
10
6.98639
20
14.10249
11
7.00393
21
14.05908
0
LINE
8
layer0
10
7.00393
20
14.05908
11
7.02292
21
14.0226
0
LINE
8
layer0
10
7.02292
20
14.0226
11
7.04309
21
13.99309
0
LINE
8
layer0
10
7.04309
20
13.99309
11
7.06414
21
13.97058
0
LINE
8
layer0
10
7.06414
20
13.97058
11
7.0858
21
13.9551
0
LINE
8
layer0
10
7.0858
20
13.9551
11
7.10778
21
13.94666
0
LINE
8
layer0
10
7.10778
20
13.94666
11
7.17291
21
13.94621
0
LINE
8
layer0
10
7.17291
20
13.94621
11
7.5
21
13.95
0
LINE
8
layer0
10
7.5
20
13.95
11
7.82709
21
13.94621
0
LINE
8
layer0
10
7.82709
20
13.94621
11
7.89222
21
13.94666
0
LINE
8
layer0
10
7.89222
20
13.94666
11
7.9142
21
13.9551
0
LINE
8
layer0
10
7.9142
20
13.9551
11
7.93586
21
13.97058
0
LINE
8
layer0
10
7.93586
20
13.97058
11
7.95691
21
13.99309
0
LINE
8
layer0
10
7.95691
20
13.99309
11
7.97708
21
14.0226
0
LINE
8
layer0
10
7.97708
20
14.0226
11
7.99607
21
14.05908
0
LINE
8
layer0
10
7.99607
20
14.05908
11
8.01361
21
14.10249
0
LINE
8
layer0
10
8.01361
20
14.10249
11
8.02941
21
14.15279
0
LINE
8
layer0
10
8.02941
20
14.15279
11
8.07873
21
14.37546
0
LINE
8
layer0
10
8.07873
20
14.37546
11
8.11353
21
14.50443
0
LINE
8
layer0
10
8.11353
20
14.50443
11
8.16101
21
14.65501
0
LINE
8
layer0
10
8.16101
20
14.65501
11
8.22271
21
14.82554
0
LINE
8
layer0
10
8.22271
20
14.82554
11
8.30083
21
15.0163
0
LINE
8
layer0
10
8.30083
20
15.0163
11
8.39758
21
15.22698
0
LINE
8
layer0
10
8.39758
20
15.22698
11
8.51435
21
15.45555
0
LINE
8
layer0
10
8.51435
20
15.45555
11
8.65343
21
15.70169
0
LINE
8
layer0
10
8.65343
20
15.70169
11
8.8054582
21
15.9466451
0
ARC
8
layer0
10
7.4999997
20
-0.000009
40
16
50
82.6800361
51
85.3199687
0
LINE
8
layer0
10
9.5385631
20
15.8695927
11
9.6363401
21
15.598382
0
LINE
8
layer0
10
9.6363401
20
15.598382
11
9.7212055
21
15.3287044
0
LINE
8
layer0
10
9.7212055
20
15.3287044
11
9.7879014
21
15.0808513
0
LINE
8
layer0
10
9.7879014
20
15.0808513
11
9.8387344
21
14.8546597
0
LINE
8
layer0
10
9.8387344
20
14.8546597
11
9.875486
21
14.6518262
0
LINE
8
layer0
10
9.875486
20
14.6518262
11
9.9003826
21
14.4721946
0
LINE
8
layer0
10
9.9003826
20
14.4721946
11
9.9155177
21
14.3150335
0
LINE
8
layer0
10
9.9155177
20
14.3150335
11
9.9227428
21
14.1816464
0
LINE
8
layer0
10
9.9227428
20
14.1816464
11
9.9246894
21
13.9535881
0
LINE
8
layer0
10
9.9246894
20
13.9535881
11
9.9296862
21
13.9011023
0
LINE
8
layer0
10
9.9296862
20
13.9011023
11
9.9378174
21
13.8549941
0
LINE
8
layer0
10
9.9378174
20
13.8549941
11
9.9488078
21
13.8153631
0
LINE
8
layer0
10
9.9488078
20
13.8153631
11
9.9624016
21
13.7823043
0
LINE
8
layer0
10
9.9624016
20
13.7823043
11
9.9783115
21
13.7559097
0
LINE
8
layer0
10
9.9783115
20
13.7559097
11
9.9962797
21
13.7362646
0
LINE
8
layer0
10
9.9962797
20
13.7362646
11
10.0160246
21
13.7234391
0
LINE
8
layer0
10
10.0160246
20
13.7234391
11
10.0796378
21
13.7094577
0
LINE
8
layer0
10
10.0796378
20
13.7094577
11
10.4003681
21
13.645159
0
LINE
8
layer0
10
10.4003681
20
13.645159
11
10.7195224
21
13.573446
0
LINE
8
layer0
10
10.7195224
20
13.573446
11
10.7833227
21
13.5603449
0
LINE
8
layer0
10
10.7833227
20
13.5603449
11
10.8065772
21
13.5640306
0
LINE
8
layer0
10
10.8065772
20
13.5640306
11
10.8309823
21
13.5746689
0
LINE
8
layer0
10
10.8309823
20
13.5746689
11
10.8562524
21
13.5923105
0
LINE
8
layer0
10
10.8562524
20
13.5923105
11
10.8821171
21
13.616982
0
LINE
8
layer0
10
10.8821171
20
13.616982
11
10.9082768
21
13.6487166
0
LINE
8
layer0
10
10.9082768
20
13.6487166
11
10.9344589
21
13.6875312
0
LINE
8
layer0
10
10.9344589
20
13.6875312
11
10.9603716
21
13.7334471
0
LINE
8
layer0
10
10.9603716
20
13.7334471
11
11.0549096
21
13.940997
0
LINE
8
layer0
10
11.0549096
20
13.940997
11
11.1157635
21
14.0599133
0
LINE
8
layer0
10
11.1157635
20
14.0599133
11
11.1935133
21
14.1973312
0
LINE
8
layer0
10
11.1935133
20
14.1973312
11
11.2893201
21
14.3513065
0
LINE
8
layer0
10
11.2893201
20
14.3513065
11
11.4053943
21
14.5216559
0
LINE
8
layer0
10
11.4053943
20
14.5216559
11
11.5438329
21
14.7076166
0
LINE
8
layer0
10
11.5438329
20
14.7076166
11
11.7055736
21
14.9069139
0
LINE
8
layer0
10
11.7055736
20
14.9069139
11
11.8927897
21
15.1187588
0
LINE
8
layer0
10
11.8927897
20
15.1187588
11
12.0924248
21
15.3267526
0
ARC
8
layer0
10
7.4999978
20
-0.0000088
40
16
50
70.6800359
51
73.3199684
0
LINE
8
layer0
10
12.7934895
20
15.0989629
11
12.8327419
21
14.8133498
0
LINE
8
layer0
10
12.8327419
20
14.8133498
11
12.8596837
21
14.5319208
0
LINE
8
layer0
10
12.8596837
20
14.5319208
11
12.8733906
21
14.2756171
0
LINE
8
layer0
10
12.8733906
20
14.2756171
11
12.8760848
21
14.0437996
0
LINE
8
layer0
10
12.8760848
20
14.0437996
11
12.8698619
21
13.8377574
0
LINE
8
layer0
10
12.8698619
20
13.8377574
11
12.8568669
21
13.6568748
0
LINE
8
layer0
10
12.8568669
20
13.6568748
11
12.8389956
21
13.5000013
0
LINE
8
layer0
10
12.8389956
20
13.5000013
11
12.8183302
21
13.3680269
0
LINE
8
layer0
10
12.8183302
20
13.3680269
11
12.7728182
21
13.1445475
0
LINE
8
layer0
10
12.7728182
20
13.1445475
11
12.7667934
21
13.0921697
0
LINE
8
layer0
10
12.7667934
20
13.0921697
11
12.7651605
21
13.0453785
0
LINE
8
layer0
10
12.7651605
20
13.0453785
11
12.767671
21
13.0043285
0
LINE
8
layer0
10
12.767671
20
13.0043285
11
12.7740944
21
12.9691658
0
LINE
8
layer0
10
12.7740944
20
12.9691658
11
12.7841689
21
12.9400401
0
LINE
8
layer0
10
12.7841689
20
12.9400401
11
12.79766
21
12.9170885
0
LINE
8
layer0
10
12.79766
20
12.9170885
11
12.8143069
21
12.9004381
0
LINE
8
layer0
10
12.8143069
20
12.9004381
11
12.8736231
21
12.8735363
0
LINE
8
layer0
10
12.8736231
20
12.8735363
11
13.1739762
21
12.7439591
0
LINE
8
layer0
10
13.1739762
20
12.7439591
11
13.4712462
21
12.6074573
0
LINE
8
layer0
10
13.4712462
20
12.6074573
11
13.5309285
21
12.5813776
0
LINE
8
layer0
10
13.5309285
20
12.5813776
11
13.5544411
21
12.5801479
0
LINE
8
layer0
10
13.5544411
20
12.5801479
11
13.5805247
21
12.5854797
0
LINE
8
layer0
10
13.5805247
20
12.5854797
11
13.6089105
21
12.5974818
0
LINE
8
layer0
10
13.6089105
20
12.5974818
11
13.6393395
21
12.6162366
0
LINE
8
layer0
10
13.6393395
20
12.6162366
11
13.6715255
21
12.6418388
0
LINE
8
layer0
10
13.6715255
20
12.6418388
11
13.7052055
21
12.6743617
0
LINE
8
layer0
10
13.7052055
20
12.6743617
11
13.7400984
21
12.7138866
0
LINE
8
layer0
10
13.7400984
20
12.7138866
11
13.8757225
21
12.8972455
0
LINE
8
layer0
10
13.8757225
20
12.8972455
11
13.9599707
21
13.000911
0
LINE
8
layer0
10
13.9599707
20
13.000911
11
14.0645923
21
13.1191608
0
LINE
8
layer0
10
14.0645923
20
13.1191608
11
14.1903188
21
13.2498521
0
LINE
8
layer0
10
14.1903188
20
13.2498521
11
14.3392741
21
13.3923457
0
LINE
8
layer0
10
14.3392741
20
13.3923457
11
14.5133509
21
13.5454597
0
LINE
8
layer0
10
14.5133509
20
13.5454597
11
14.7129934
21
13.7067742
0
LINE
8
layer0
10
14.7129934
20
13.7067742
11
14.9401634
21
13.8750653
0
LINE
8
layer0
10
14.9401634
20
13.8750653
11
15.1786803
21
14.0370075
0
ARC
8
layer0
10
7.4999958
20
-0.000008
40
16
50
58.6800351
51
61.3199677
0
LINE
8
layer0
10
15.8170649
20
13.668436
11
15.7960773
21
13.3809032
0
LINE
8
layer0
10
15.7960773
20
13.3809032
11
15.763918
21
13.1000226
0
LINE
8
layer0
10
15.763918
20
13.1000226
11
15.7240368
21
12.8464699
0
LINE
8
layer0
10
15.7240368
20
12.8464699
11
15.6784746
21
12.619158
0
LINE
8
layer0
10
15.6784746
20
12.619158
11
15.6295491
21
12.4189121
0
LINE
8
layer0
10
15.6295491
20
12.4189121
11
15.5792304
21
12.2446841
0
LINE
8
layer0
10
15.5792304
20
12.2446841
11
15.5291339
21
12.0949542
0
LINE
8
layer0
10
15.5291339
20
12.0949542
11
15.481481
21
11.9701604
0
LINE
8
layer0
10
15.481481
20
11.9701604
11
15.3904996
21
11.761027
0
LINE
8
layer0
10
15.3904996
20
11.761027
11
15.3737164
21
11.7110465
0
LINE
8
layer0
10
15.3737164
20
11.7110465
11
15.3623908
21
11.6656173
0
LINE
8
layer0
10
15.3623908
20
11.6656173
11
15.3563117
21
11.6249423
0
LINE
8
layer0
10
15.3563117
20
11.6249423
11
15.355284
21
11.5892126
0
LINE
8
layer0
10
15.355284
20
11.5892126
11
15.3590827
21
11.5586287
0
LINE
8
layer0
10
15.3590827
20
11.5586287
11
15.3675071
21
11.5333737
0
LINE
8
layer0
10
15.3675071
20
11.5333737
11
15.3803284
21
11.5136261
0
LINE
8
layer0
10
15.3803284
20
11.5136261
11
15.4327552
21
11.4749796
0
LINE
8
layer0
10
15.4327552
20
11.4749796
11
15.6996043
21
11.2857871
0
LINE
8
layer0
10
15.6996043
20
11.2857871
11
15.9619979
21
11.0904622
0
LINE
8
layer0
10
15.9619979
20
11.0904622
11
16.0149537
21
11.0525438
0
LINE
8
layer0
10
16.0149537
20
11.0525438
11
16.0376968
21
11.0464524
0
LINE
8
layer0
10
16.0376968
20
11.0464524
11
16.064319
21
11.0462446
0
LINE
8
layer0
10
16.064319
20
11.0462446
11
16.0945799
21
11.0520827
0
LINE
8
layer0
10
16.0945799
20
11.0520827
11
16.1282433
21
11.0641011
0
LINE
8
layer0
10
16.1282433
20
11.0641011
11
16.1650489
21
11.082452
0
LINE
8
layer0
10
16.1650489
20
11.082452
11
16.2047549
21
11.1072617
0
LINE
8
layer0
10
16.2047549
20
11.1072617
11
16.2471029
21
11.1386682
0
LINE
8
layer0
10
16.2471029
20
11.1386682
11
16.4178858
21
11.2898225
0
LINE
8
layer0
10
16.4178858
20
11.2898225
11
16.5218462
21
11.3737065
0
LINE
8
layer0
10
16.5218462
20
11.3737065
11
16.6487671
21
11.4676202
0
LINE
8
layer0
10
16.6487671
20
11.4676202
11
16.7989184
21
11.5693155
0
LINE
8
layer0
10
16.7989184
20
11.5693155
11
16.9742448
21
11.6777258
0
LINE
8
layer0
10
16.9742448
20
11.6777258
11
17.1763518
21
11.7913013
0
LINE
8
layer0
10
17.1763518
20
11.7913013
11
17.4051707
21
11.9075826
0
LINE
8
layer0
10
17.4051707
20
11.9075826
11
17.6623663
21
12.0249649
0
LINE
8
layer0
10
17.6623663
20
12.0249649
11
17.9293407
21
12.1337778
0
ARC
8
layer0
10
7.4999932
20
-0.000006
40
16
50
46.68003
51
49.3199626
0
LINE
8
layer0
10
18.4771448
20
11.6405328
11
18.3968344
21
11.3636469
0
LINE
8
layer0
10
18.3968344
20
11.3636469
11
18.3069794
21
11.0955905
0
LINE
8
layer0
10
18.3069794
20
11.0955905
11
18.2152531
21
10.8558703
0
LINE
8
layer0
10
18.2152531
20
10.8558703
11
18.1234258
21
10.6429986
0
LINE
8
layer0
10
18.1234258
20
10.6429986
11
18.033936
21
10.4573008
0
LINE
8
layer0
10
18.033936
20
10.4573008
11
17.9484928
21
10.2973419
0
LINE
8
layer0
10
17.9484928
20
10.2973419
11
17.8683604
21
10.1612997
0
LINE
8
layer0
10
17.8683604
20
10.1612997
11
17.7958028
21
10.0491405
0
LINE
8
layer0
10
17.7958028
20
10.0491405
11
17.6633282
21
9.8634933
0
LINE
8
layer0
10
17.6633282
20
9.8634933
11
17.6365203
21
9.8180943
0
LINE
8
layer0
10
17.6365203
20
9.8180943
11
17.6159969
21
9.7760126
0
LINE
8
layer0
10
17.6159969
20
9.7760126
11
17.6015938
21
9.7374904
0
LINE
8
layer0
10
17.6015938
20
9.7374904
11
17.59316
21
9.7027551
0
LINE
8
layer0
10
17.59316
20
9.7027551
11
17.590517
21
9.6720498
0
LINE
8
layer0
10
17.590517
20
9.6720498
11
17.5935065
21
9.6455951
0
LINE
8
layer0
10
17.5935065
20
9.6455951
11
17.6019418
21
9.6236133
0
LINE
8
layer0
10
17.6019418
20
9.6236133
11
17.6451879
21
9.5749112
0
LINE
8
layer0
10
17.6451879
20
9.5749112
11
17.8668703
21
9.334372
0
LINE
8
layer0
10
17.8668703
20
9.334372
11
18.0829197
21
9.0887607
0
LINE
8
layer0
10
18.0829197
20
9.0887607
11
18.1268346
21
9.0406608
0
LINE
8
layer0
10
18.1268346
20
9.0406608
11
18.1478143
21
9.0299739
0
LINE
8
layer0
10
18.1478143
20
9.0299739
11
18.1738115
21
9.0242356
0
LINE
8
layer0
10
18.1738115
20
9.0242356
11
18.2046249
21
9.0236545
0
LINE
8
layer0
10
18.2046249
20
9.0236545
11
18.2400515
21
9.0284113
0
LINE
8
layer0
10
18.2400515
20
9.0284113
11
18.2798682
21
9.0387089
0
LINE
8
layer0
10
18.2798682
20
9.0387089
11
18.3238646
21
9.0547211
0
LINE
8
layer0
10
18.3238646
20
9.0547211
11
18.3718171
21
9.0766367
0
LINE
8
layer0
10
18.3718171
20
9.0766367
11
18.5702947
21
9.1889801
0
LINE
8
layer0
10
18.5702947
20
9.1889801
11
18.6894238
21
9.2494164
0
LINE
8
layer0
10
18.6894238
20
9.2494164
11
18.8330969
21
9.3148896
0
LINE
8
layer0
10
18.8330969
20
9.3148896
11
19.0011107
21
9.3831444
0
LINE
8
layer0
10
19.0011107
20
9.3831444
11
19.1951455
21
9.4527333
0
LINE
8
layer0
10
19.1951455
20
9.4527333
11
19.4164496
21
9.5218064
0
LINE
8
layer0
10
19.4164496
20
9.5218064
11
19.6644446
21
9.5879726
0
LINE
8
layer0
10
19.6644446
20
9.5879726
11
19.940425
21
9.6493158
0
LINE
8
layer0
10
19.940425
20
9.6493158
11
20.2241889
21
9.7002438
0
ARC
8
layer0
10
7.4999923
20
-0.0000047
40
16
50
34.6800309
51
37.3199636
0
LINE
8
layer0
10
20.6574707
20
9.1038825
11
20.5213474
21
8.8497447
0
LINE
8
layer0
10
20.5213474
20
8.8497447
11
20.3777239
21
8.6062279
0
LINE
8
layer0
10
20.3777239
20
8.6062279
11
20.2381615
21
8.3908171
0
LINE
8
layer0
10
20.2381615
20
8.3908171
11
20.1040823
21
8.2016891
0
LINE
8
layer0
10
20.1040823
20
8.2016891
11
19.9779393
21
8.0386552
0
LINE
8
layer0
10
19.9779393
20
8.0386552
11
19.861106
21
7.8999565
0
LINE
8
layer0
10
19.861106
20
7.8999565
11
19.7544398
21
7.7835476
0
LINE
8
layer0
10
19.7544398
20
7.7835476
11
19.6601486
21
7.6889249
0
LINE
8
layer0
10
19.6601486
20
7.6889249
11
19.4919707
21
7.5348775
0
LINE
8
layer0
10
19.4919707
20
7.5348775
11
19.4563096
21
7.4960443
0
LINE
8
layer0
10
19.4563096
20
7.4960443
11
19.4274854
21
7.4591492
0
LINE
8
layer0
10
19.4274854
20
7.4591492
11
19.4053878
21
7.4244634
0
LINE
8
layer0
10
19.4053878
20
7.4244634
11
19.3899164
21
7.3922407
0
LINE
8
layer0
10
19.3899164
20
7.3922407
11
19.3809472
21
7.3627558
0
LINE
8
layer0
10
19.3809472
20
7.3627558
11
19.3783711
21
7.3362577
0
LINE
8
layer0
10
19.3783711
20
7.3362577
11
19.3820519
21
7.3130025
0
LINE
8
layer0
10
19.3820519
20
7.3130025
11
19.4142271
21
7.2563732
0
LINE
8
layer0
10
19.4142271
20
7.2563732
11
19.5810544
21
6.975
0
LINE
8
layer0
10
19.5810544
20
6.975
11
19.7413171
21
6.6898368
0
LINE
8
layer0
10
19.7413171
20
6.6898368
11
19.7742719
21
6.6336575
0
LINE
8
layer0
10
19.7742719
20
6.6336575
11
19.7925711
21
6.6188423
0
LINE
8
layer0
10
19.7925711
20
6.6188423
11
19.8168072
21
6.6078242
0
LINE
8
layer0
10
19.8168072
20
6.6078242
11
19.8468264
21
6.6008493
0
LINE
8
layer0
10
19.8468264
20
6.6008493
11
19.8824678
21
6.5981366
0
LINE
8
layer0
10
19.8824678
20
6.5981366
11
19.9235554
21
6.5999308
0
LINE
8
layer0
10
19.9235554
20
6.5999308
11
19.9699196
21
6.6064457
0
LINE
8
layer0
10
19.9699196
20
6.6064457
11
20.0213807
21
6.6179125
0
LINE
8
layer0
10
20.0213807
20
6.6179125
11
20.2388786
21
6.6865351
0
LINE
8
layer0
10
20.2388786
20
6.6865351
11
20.3679698
21
6.7208824
0
LINE
8
layer0
10
20.3679698
20
6.7208824
11
20.522116
21
6.7550535
0
LINE
8
layer0
10
20.522116
20
6.7550535
11
20.7006493
21
6.7868848
0
LINE
8
layer0
10
20.7006493
20
6.7868848
11
20.9049123
21
6.8146109
0
LINE
8
layer0
10
20.9049123
20
6.8146109
11
21.1357415
21
6.8361629
0
LINE
8
layer0
10
21.1357415
20
6.8361629
11
21.3920739
21
6.8493221
0
LINE
8
layer0
10
21.3920739
20
6.8493221
11
21.6747774
21
6.8519453
0
LINE
8
layer0
10
21.6747774
20
6.8519453
11
21.9629289
21
6.8427626
0
ARC
8
layer0
10
7.4999918
20
-0.0000037
40
16
50
22.6800338
51
25.3199665
0
LINE
8
layer0
10
22.262752
20
6.1693489
11
22.0767651
21
5.9490662
0
LINE
8
layer0
10
22.0767651
20
5.9490662
11
21.8856502
21
5.7407318
0
LINE
8
layer0
10
21.8856502
20
5.7407318
11
21.7043511
21
5.5590449
0
LINE
8
layer0
10
21.7043511
20
5.5590449
11
21.5338799
21
5.4019265
0
LINE
8
layer0
10
21.5338799
20
5.4019265
11
21.3765968
21
5.2686819
0
LINE
8
layer0
10
21.3765968
20
5.2686819
11
21.2334794
21
5.157305
0
LINE
8
layer0
10
21.2334794
20
5.157305
11
21.1049415
21
5.0656171
0
LINE
8
layer0
10
21.1049415
20
5.0656171
11
20.9930375
21
4.9926664
0
LINE
8
layer0
10
20.9930375
20
4.9926664
11
20.7965065
21
4.8769515
0
LINE
8
layer0
10
20.7965065
20
4.8769515
11
20.7535508
21
4.8463812
0
LINE
8
layer0
10
20.7535508
20
4.8463812
11
20.7176856
21
4.8162853
0
LINE
8
layer0
10
20.7176856
20
4.8162853
11
20.6888593
21
4.7869517
0
LINE
8
layer0
10
20.6888593
20
4.7869517
11
20.6670265
21
4.7586498
0
LINE
8
layer0
10
20.6670265
20
4.7586498
11
20.652123
21
4.7316741
0
LINE
8
layer0
10
20.652123
20
4.7316741
11
20.644094
21
4.7062907
0
LINE
8
layer0
10
20.644094
20
4.7062907
11
20.6428592
21
4.6827783
0
LINE
8
layer0
10
20.6428592
20
4.6827783
11
20.6625575
21
4.620697
0
LINE
8
layer0
10
20.6625575
20
4.620697
11
20.7672384
21
4.3107871
0
LINE
8
layer0
10
20.7672384
20
4.3107871
11
20.8647103
21
3.9985348
0
LINE
8
layer0
10
20.8647103
20
3.9985348
11
20.8852645
21
3.9367316
0
LINE
8
layer0
10
20.8852645
20
3.9367316
11
20.9000836
21
3.9184354
0
LINE
8
layer0
10
20.9000836
20
3.9184354
11
20.9214993
21
3.9026191
0
LINE
8
layer0
10
20.9214993
20
3.9026191
11
20.9494124
21
3.8895554
0
LINE
8
layer0
10
20.9494124
20
3.8895554
11
20.9837109
21
3.8794917
0
LINE
8
layer0
10
20.9837109
20
3.8794917
11
21.0242737
21
3.872704
0
LINE
8
layer0
10
21.0242737
20
3.872704
11
21.0709792
21
3.8694369
0
LINE
8
layer0
10
21.0709792
20
3.8694369
11
21.1236998
21
3.8699538
0
LINE
8
layer0
10
21.1236998
20
3.8699538
11
21.3507123
21
3.8918565
0
LINE
8
layer0
10
21.3507123
20
3.8918565
11
21.4841239
21
3.8986137
0
LINE
8
layer0
10
21.4841239
20
3.8986137
11
21.6420061
21
3.8999893
0
LINE
8
layer0
10
21.6420061
20
3.8999893
11
21.8232561
21
3.8940058
0
LINE
8
layer0
10
21.8232561
20
3.8940058
11
22.02882
21
3.8786573
0
LINE
8
layer0
10
22.02882
20
3.8786573
11
22.259086
21
3.8517463
0
LINE
8
layer0
10
22.259086
20
3.8517463
11
22.5125529
21
3.8113234
0
LINE
8
layer0
10
22.5125529
20
3.8113234
11
22.7896241
21
3.7551119
0
LINE
8
layer0
10
22.7896241
20
3.7551119
11
23.0695695
21
3.6862198
0
ARC
8
layer0
10
7.4999914
20
-0.0000028
40
16
50
10.6800371
51
13.3199697
0
LINE
8
layer0
10
23.2228302
20
2.9651851
11
22.9951082
21
2.7883849
0
LINE
8
layer1
10
22.9951082
20
2.7883849
11
22.7648544
21
2.6243382
0
LINE
8
layer1
10
22.7648544
20
2.6243382
11
22.5497424
21
2.4843158
0
LINE
8
layer1
10
22.5497424
20
2.4843158
11
22.3503296
21
2.3660737
0
LINE
8
layer1
10
22.3503296
20
2.3660737
11
22.1687804
21
2.2684418
0
LINE
8
layer1
10
22.1687804
20
2.2684418
11
22.005634
21
2.1892546
0
LINE
8
layer1
10
22.005634
20
2.1892546
11
21.8608419
21
2.1262948
0
LINE
8
layer1
10
21.8608419
20
2.1262948
11
21.736216
21
2.0782044
0
LINE
8
layer1
10
21.736216
20
2.0782044
11
21.5199211
21
2.0058792
0
LINE
8
layer1
10
21.5199211
20
2.0058792
11
21.4715482
21
1.984908
0
LINE
8
layer1
10
21.4715482
20
1.984908
11
21.4302095
21
1.9629265
0
LINE
8
layer1
10
21.4302095
20
1.9629265
11
21.3959143
21
1.9402273
0
LINE
8
layer1
10
21.3959143
20
1.9402273
11
21.3686743
21
1.9170832
0
LINE
8
layer1
10
21.3686743
20
1.9170832
11
21.3484879
21
1.8937956
0
LINE
8
layer1
10
21.3484879
20
1.8937956
11
21.3353568
21
1.8706361
0
LINE
8
layer1
10
21.3353568
20
1.8706361
11
21.3292606
21
1.8478943
0
LINE
8
layer1
10
21.3292606
20
1.8478943
11
21.335621
21
1.7830741
0
LINE
8
layer1
10
21.335621
20
1.7830741
11
21.3735804
21
1.4581721
0
LINE
8
layer1
10
21.3735804
20
1.4581721
11
21.4040014
21
1.1324777
0
LINE
8
layer1
10
21.4040014
20
1.1324777
11
21.4112569
21
1.0677516
0
LINE
8
layer1
10
21.4112569
20
1.0677516
11
21.4219482
21
1.0467742
0
LINE
8
layer1
10
21.4219482
20
1.0467742
11
21.4396075
21
1.0268509
0
LINE
8
layer1
10
21.4396075
20
1.0268509
11
21.4641945
21
1.0082692
0
LINE
8
layer1
10
21.4641945
20
1.0082692
11
21.4956512
21
0.9912943
0
LINE
8
layer1
10
21.4956512
20
0.9912943
11
21.5339163
21
0.9762216
0
LINE
8
layer1
10
21.5339163
20
0.9762216
11
21.5789219
21
0.9633152
0
LINE
8
layer1
10
21.5789219
20
0.9633152
11
21.6305979
21
0.9528596
0
LINE
8
layer1
10
21.6305979
20
0.9528596
11
21.8572035
21
0.9270851
0
LINE
8
layer1
10
21.8572035
20
0.9270851
11
21.9891046
21
0.9059568
0
LINE
8
layer1
10
21.9891046
20
0.9059568
11
22.1438227
21
0.8744768
0
LINE
8
layer1
10
22.1438227
20
0.8744768
11
22.3198679
21
0.83094
0
LINE
8
layer1
10
22.3198679
20
0.83094
11
22.5177487
21
0.7731878
0
LINE
8
layer1
10
22.5177487
20
0.7731878
11
22.7373877
21
0.6989899
0
LINE
8
layer1
10
22.7373877
20
0.6989899
11
22.9769113
21
0.6067516
0
LINE
8
layer1
10
22.9769113
20
0.6067516
11
23.2362408
21
0.4941621
0
LINE
8
layer1
10
23.2362408
20
0.4941621
11
23.4957453
21
0.3685715
0
ARC
8
layer1
10
7.499991
20
0
40
16
50
358.6800334
51
361.3199662
0
LINE
8
layer1
10
23.4957453
20
-0.3685715
11
23.2362408
21
-0.4941621
0
LINE
8
layer1
10
23.2362408
20
-0.4941621
11
22.9769113
21
-0.6067516
0
LINE
8
layer1
10
22.9769113
20
-0.6067516
11
22.7373877
21
-0.6989899
0
LINE
8
layer1
10
22.7373877
20
-0.6989899
11
22.5177487
21
-0.7731878
0
LINE
8
layer1
10
22.5177487
20
-0.7731878
11
22.3198679
21
-0.83094
0
LINE
8
layer1
10
22.3198679
20
-0.83094
11
22.1438227
21
-0.8744768
0
LINE
8
layer1
10
22.1438227
20
-0.8744768
11
21.9891046
21
-0.9059568
0
LINE
8
layer1
10
21.9891046
20
-0.9059568
11
21.8572035
21
-0.9270851
0
LINE
8
layer1
10
21.8572035
20
-0.9270851
11
21.6305979
21
-0.9528596
0
LINE
8
layer1
10
21.6305979
20
-0.9528596
11
21.5789219
21
-0.9633152
0
LINE
8
layer1
10
21.5789219
20
-0.9633152
11
21.5339163
21
-0.9762216
0
LINE
8
layer1
10
21.5339163
20
-0.9762216
11
21.4956512
21
-0.9912943
0
LINE
8
layer1
10
21.4956512
20
-0.9912943
11
21.4641945
21
-1.0082692
0
LINE
8
layer1
10
21.4641945
20
-1.0082692
11
21.4396075
21
-1.0268509
0
LINE
8
layer1
10
21.4396075
20
-1.0268509
11
21.4219482
21
-1.0467742
0
LINE
8
layer1
10
21.4219482
20
-1.0467742
11
21.4112569
21
-1.0677516
0
LINE
8
layer1
10
21.4112569
20
-1.0677516
11
21.4040014
21
-1.1324777
0
LINE
8
layer1
10
21.4040014
20
-1.1324777
11
21.3735804
21
-1.4581721
0
LINE
8
layer1
10
21.3735804
20
-1.4581721
11
21.335621
21
-1.7830741
0
LINE
8
layer1
10
21.335621
20
-1.7830741
11
21.3292606
21
-1.8478943
0
LINE
8
layer1
10
21.3292606
20
-1.8478943
11
21.3353568
21
-1.8706361
0
LINE
8
layer1
10
21.3353568
20
-1.8706361
11
21.3484879
21
-1.8937956
0
LINE
8
layer1
10
21.3484879
20
-1.8937956
11
21.3686743
21
-1.9170832
0
LINE
8
layer1
10
21.3686743
20
-1.9170832
11
21.3959143
21
-1.9402273
0
LINE
8
layer1
10
21.3959143
20
-1.9402273
11
21.4302095
21
-1.9629265
0
LINE
8
layer1
10
21.4302095
20
-1.9629265
11
21.4715482
21
-1.984908
0
LINE
8
layer1
10
21.4715482
20
-1.984908
11
21.5199211
21
-2.0058792
0
LINE
8
layer1
10
21.5199211
20
-2.0058792
11
21.736216
21
-2.0782044
0
LINE
8
layer1
10
21.736216
20
-2.0782044
11
21.8608419
21
-2.1262948
0
LINE
8
layer1
10
21.8608419
20
-2.1262948
11
22.005634
21
-2.1892546
0
LINE
8
layer1
10
22.005634
20
-2.1892546
11
22.1687804
21
-2.2684418
0
LINE
8
layer1
10
22.1687804
20
-2.2684418
11
22.3503296
21
-2.3660737
0
LINE
8
layer1
10
22.3503296
20
-2.3660737
11
22.5497424
21
-2.4843158
0
LINE
8
layer1
10
22.5497424
20
-2.4843158
11
22.7648544
21
-2.6243382
0
LINE
8
layer1
10
22.7648544
20
-2.6243382
11
22.9951082
21
-2.7883849
0
LINE
8
layer1
10
22.9951082
20
-2.7883849
11
23.2228302
21
-2.9651851
0
ARC
8
layer1
10
7.4999914
20
0.0000027
40
16
50
346.6800306
51
349.3199632
0
LINE
8
layer1
10
23.0695695
20
-3.6862198
11
22.7896241
21
-3.7551119
0
LINE
8
layer1
10
22.7896241
20
-3.7551119
11
22.5125529
21
-3.8113234
0
LINE
8
layer1
10
22.5125529
20
-3.8113234
11
22.259086
21
-3.8517463
0
LINE
8
layer1
10
22.259086
20
-3.8517463
11
22.02882
21
-3.8786573
0
LINE
8
layer1
10
22.02882
20
-3.8786573
11
21.8232561
21
-3.8940058
0
LINE
8
layer1
10
21.8232561
20
-3.8940058
11
21.6420061
21
-3.8999893
0
LINE
8
layer1
10
21.6420061
20
-3.8999893
11
21.4841239
21
-3.8986137
0
LINE
8
layer1
10
21.4841239
20
-3.8986137
11
21.3507123
21
-3.8918565
0
LINE
8
layer1
10
21.3507123
20
-3.8918565
11
21.1236998
21
-3.8699538
0
LINE
8
layer1
10
21.1236998
20
-3.8699538
11
21.0709792
21
-3.8694369
0
LINE
8
layer1
10
21.0709792
20
-3.8694369
11
21.0242737
21
-3.872704
0
LINE
8
layer1
10
21.0242737
20
-3.872704
11
20.9837109
21
-3.8794917
0
LINE
8
layer1
10
20.9837109
20
-3.8794917
11
20.9494124
21
-3.8895554
0
LINE
8
layer1
10
20.9494124
20
-3.8895554
11
20.9214993
21
-3.9026191
0
LINE
8
layer1
10
20.9214993
20
-3.9026191
11
20.9000836
21
-3.9184354
0
LINE
8
layer1
10
20.9000836
20
-3.9184354
11
20.8852645
21
-3.9367316
0
LINE
8
layer1
10
20.8852645
20
-3.9367316
11
20.8647103
21
-3.9985348
0
LINE
8
layer1
10
20.8647103
20
-3.9985348
11
20.7672384
21
-4.3107871
0
LINE
8
layer1
10
20.7672384
20
-4.3107871
11
20.6625575
21
-4.620697
0
LINE
8
layer1
10
20.6625575
20
-4.620697
11
20.6428592
21
-4.6827783
0
LINE
8
layer1
10
20.6428592
20
-4.6827783
11
20.644094
21
-4.7062907
0
LINE
8
layer1
10
20.644094
20
-4.7062907
11
20.652123
21
-4.7316741
0
LINE
8
layer1
10
20.652123
20
-4.7316741
11
20.6670265
21
-4.7586498
0
LINE
8
layer1
10
20.6670265
20
-4.7586498
11
20.6888593
21
-4.7869517
0
LINE
8
layer1
10
20.6888593
20
-4.7869517
11
20.7176856
21
-4.8162853
0
LINE
8
layer1
10
20.7176856
20
-4.8162853
11
20.7535508
21
-4.8463812
0
LINE
8
layer1
10
20.7535508
20
-4.8463812
11
20.7965065
21
-4.8769515
0
LINE
8
layer1
10
20.7965065
20
-4.8769515
11
20.9930375
21
-4.9926664
0
LINE
8
layer1
10
20.9930375
20
-4.9926664
11
21.1049415
21
-5.0656171
0
LINE
8
layer1
10
21.1049415
20
-5.0656171
11
21.2334794
21
-5.157305
0
LINE
8
layer1
10
21.2334794
20
-5.157305
11
21.3765968
21
-5.2686819
0
LINE
8
layer1
10
21.3765968
20
-5.2686819
11
21.5338799
21
-5.4019265
0
LINE
8
layer1
10
21.5338799
20
-5.4019265
11
21.7043511
21
-5.5590449
0
LINE
8
layer1
10
21.7043511
20
-5.5590449
11
21.8856502
21
-5.7407318
0
LINE
8
layer1
10
21.8856502
20
-5.7407318
11
22.0767651
21
-5.9490662
0
LINE
8
layer1
10
22.0767651
20
-5.9490662
11
22.262752
21
-6.1693489
0
ARC
8
layer1
10
7.4999918
20
0.0000037
40
16
50
334.6800335
51
337.3199662
0
LINE
8
layer1
10
21.9629289
20
-6.8427626
11
21.6747774
21
-6.8519453
0
LINE
8
layer1
10
21.6747774
20
-6.8519453
11
21.3920739
21
-6.8493221
0
LINE
8
layer1
10
21.3920739
20
-6.8493221
11
21.1357415
21
-6.8361629
0
LINE
8
layer1
10
21.1357415
20
-6.8361629
11
20.9049123
21
-6.8146109
0
LINE
8
layer1
10
20.9049123
20
-6.8146109
11
20.7006493
21
-6.7868848
0
LINE
8
layer1
10
20.7006493
20
-6.7868848
11
20.522116
21
-6.7550535
0
LINE
8
layer1
10
20.522116
20
-6.7550535
11
20.3679698
21
-6.7208824
0
LINE
8
layer1
10
20.3679698
20
-6.7208824
11
20.2388786
21
-6.6865351
0
LINE
8
layer1
10
20.2388786
20
-6.6865351
11
20.0213807
21
-6.6179125
0
LINE
8
layer1
10
20.0213807
20
-6.6179125
11
19.9699196
21
-6.6064457
0
LINE
8
layer1
10
19.9699196
20
-6.6064457
11
19.9235554
21
-6.5999308
0
LINE
8
layer1
10
19.9235554
20
-6.5999308
11
19.8824678
21
-6.5981366
0
LINE
8
layer1
10
19.8824678
20
-6.5981366
11
19.8468264
21
-6.6008493
0
LINE
8
layer1
10
19.8468264
20
-6.6008493
11
19.8168072
21
-6.6078242
0
LINE
8
layer1
10
19.8168072
20
-6.6078242
11
19.7925711
21
-6.6188423
0
LINE
8
layer1
10
19.7925711
20
-6.6188423
11
19.7742719
21
-6.6336575
0
LINE
8
layer1
10
19.7742719
20
-6.6336575
11
19.7413171
21
-6.6898368
0
LINE
8
layer1
10
19.7413171
20
-6.6898368
11
19.5810544
21
-6.975
0
LINE
8
layer1
10
19.5810544
20
-6.975
11
19.4142271
21
-7.2563732
0
LINE
8
layer1
10
19.4142271
20
-7.2563732
11
19.3820519
21
-7.3130025
0
LINE
8
layer1
10
19.3820519
20
-7.3130025
11
19.3783711
21
-7.3362577
0
LINE
8
layer1
10
19.3783711
20
-7.3362577
11
19.3809472
21
-7.3627558
0
LINE
8
layer1
10
19.3809472
20
-7.3627558
11
19.3899164
21
-7.3922407
0
LINE
8
layer1
10
19.3899164
20
-7.3922407
11
19.4053878
21
-7.4244634
0
LINE
8
layer1
10
19.4053878
20
-7.4244634
11
19.4274854
21
-7.4591492
0
LINE
8
layer1
10
19.4274854
20
-7.4591492
11
19.4563096
21
-7.4960443
0
LINE
8
layer1
10
19.4563096
20
-7.4960443
11
19.4919707
21
-7.5348775
0
LINE
8
layer1
10
19.4919707
20
-7.5348775
11
19.6601486
21
-7.6889249
0
LINE
8
layer1
10
19.6601486
20
-7.6889249
11
19.7544398
21
-7.7835476
0
LINE
8
layer1
10
19.7544398
20
-7.7835476
11
19.861106
21
-7.8999565
0
LINE
8
layer1
10
19.861106
20
-7.8999565
11
19.9779393
21
-8.0386552
0
LINE
8
layer1
10
19.9779393
20
-8.0386552
11
20.1040823
21
-8.2016891
0
LINE
8
layer1
10
20.1040823
20
-8.2016891
11
20.2381615
21
-8.3908171
0
LINE
8
layer1
10
20.2381615
20
-8.3908171
11
20.3777239
21
-8.6062279
0
LINE
8
layer1
10
20.3777239
20
-8.6062279
11
20.5213474
21
-8.8497447
0
LINE
8
layer1
10
20.5213474
20
-8.8497447
11
20.6574707
21
-9.1038825
0
ARC
8
layer1
10
7.4999923
20
0.0000046
40
16
50
322.6800367
51
325.3199694
0
LINE
8
layer1
10
20.2241889
20
-9.7002438
11
19.940425
21
-9.6493158
0
LINE
8
layer1
10
19.940425
20
-9.6493158
11
19.6644446
21
-9.5879726
0
LINE
8
layer1
10
19.6644446
20
-9.5879726
11
19.4164496
21
-9.5218064
0
LINE
8
layer1
10
19.4164496
20
-9.5218064
11
19.1951455
21
-9.4527333
0
LINE
8
layer1
10
19.1951455
20
-9.4527333
11
19.0011107
21
-9.3831444
0
LINE
8
layer1
10
19.0011107
20
-9.3831444
11
18.8330969
21
-9.3148896
0
LINE
8
layer1
10
18.8330969
20
-9.3148896
11
18.6894238
21
-9.2494164
0
LINE
8
layer1
10
18.6894238
20
-9.2494164
11
18.5702947
21
-9.1889801
0
LINE
8
layer1
10
18.5702947
20
-9.1889801
11
18.3718171
21
-9.0766367
0
LINE
8
layer1
10
18.3718171
20
-9.0766367
11
18.3238646
21
-9.0547211
0
LINE
8
layer1
10
18.3238646
20
-9.0547211
11
18.2798682
21
-9.0387089
0
LINE
8
layer1
10
18.2798682
20
-9.0387089
11
18.2400515
21
-9.0284113
0
LINE
8
layer1
10
18.2400515
20
-9.0284113
11
18.2046249
21
-9.0236545
0
LINE
8
layer1
10
18.2046249
20
-9.0236545
11
18.1738115
21
-9.0242356
0
LINE
8
layer1
10
18.1738115
20
-9.0242356
11
18.1478143
21
-9.0299739
0
LINE
8
layer1
10
18.1478143
20
-9.0299739
11
18.1268346
21
-9.0406608
0
LINE
8
layer1
10
18.1268346
20
-9.0406608
11
18.0829197
21
-9.0887607
0
LINE
8
layer1
10
18.0829197
20
-9.0887607
11
17.8668703
21
-9.334372
0
LINE
8
layer1
10
17.8668703
20
-9.334372
11
17.6451879
21
-9.5749112
0
LINE
8
layer1
10
17.6451879
20
-9.5749112
11
17.6019418
21
-9.6236133
0
LINE
8
layer1
10
17.6019418
20
-9.6236133
11
17.5935065
21
-9.6455951
0
LINE
8
layer1
10
17.5935065
20
-9.6455951
11
17.590517
21
-9.6720498
0
LINE
8
layer1
10
17.590517
20
-9.6720498
11
17.59316
21
-9.7027551
0
LINE
8
layer1
10
17.59316
20
-9.7027551
11
17.6015938
21
-9.7374904
0
LINE
8
layer1
10
17.6015938
20
-9.7374904
11
17.6159969
21
-9.7760126
0
LINE
8
layer1
10
17.6159969
20
-9.7760126
11
17.6365203
21
-9.8180943
0
LINE
8
layer1
10
17.6365203
20
-9.8180943
11
17.6633282
21
-9.8634933
0
LINE
8
layer1
10
17.6633282
20
-9.8634933
11
17.7958028
21
-10.0491405
0
LINE
8
layer1
10
17.7958028
20
-10.0491405
11
17.8683604
21
-10.1612997
0
LINE
8
layer1
10
17.8683604
20
-10.1612997
11
17.9484928
21
-10.2973419
0
LINE
8
layer1
10
17.9484928
20
-10.2973419
11
18.033936
21
-10.4573008
0
LINE
8
layer1
10
18.033936
20
-10.4573008
11
18.1234258
21
-10.6429986
0
LINE
8
layer1
10
18.1234258
20
-10.6429986
11
18.2152531
21
-10.8558703
0
LINE
8
layer1
10
18.2152531
20
-10.8558703
11
18.3069794
21
-11.0955905
0
LINE
8
layer1
10
18.3069794
20
-11.0955905
11
18.3968344
21
-11.3636469
0
LINE
8
layer1
10
18.3968344
20
-11.3636469
11
18.4771448
21
-11.6405328
0
ARC
8
layer1
10
7.4999933
20
0.0000061
40
16
50
310.6800372
51
313.3199697
0
LINE
8
layer1
10
17.9293407
20
-12.1337778
11
17.6623663
21
-12.0249649
0
LINE
8
layer1
10
17.6623663
20
-12.0249649
11
17.4051707
21
-11.9075826
0
LINE
8
layer1
10
17.4051707
20
-11.9075826
11
17.1763518
21
-11.7913013
0
LINE
8
layer1
10
17.1763518
20
-11.7913013
11
16.9742448
21
-11.6777258
0
LINE
8
layer1
10
16.9742448
20
-11.6777258
11
16.7989184
21
-11.5693155
0
LINE
8
layer1
10
16.7989184
20
-11.5693155
11
16.6487671
21
-11.4676202
0
LINE
8
layer1
10
16.6487671
20
-11.4676202
11
16.5218462
21
-11.3737065
0
LINE
8
layer1
10
16.5218462
20
-11.3737065
11
16.4178858
21
-11.2898225
0
LINE
8
layer1
10
16.4178858
20
-11.2898225
11
16.2471029
21
-11.1386682
0
LINE
8
layer1
10
16.2471029
20
-11.1386682
11
16.2047549
21
-11.1072617
0
LINE
8
layer1
10
16.2047549
20
-11.1072617
11
16.1650489
21
-11.082452
0
LINE
8
layer1
10
16.1650489
20
-11.082452
11
16.1282433
21
-11.0641011
0
LINE
8
layer1
10
16.1282433
20
-11.0641011
11
16.0945799
21
-11.0520827
0
LINE
8
layer1
10
16.0945799
20
-11.0520827
11
16.064319
21
-11.0462446
0
LINE
8
layer1
10
16.064319
20
-11.0462446
11
16.0376968
21
-11.0464524
0
LINE
8
layer1
10
16.0376968
20
-11.0464524
11
16.0149537
21
-11.0525438
0
LINE
8
layer1
10
16.0149537
20
-11.0525438
11
15.9619979
21
-11.0904622
0
LINE
8
layer1
10
15.9619979
20
-11.0904622
11
15.6996043
21
-11.2857871
0
LINE
8
layer1
10
15.6996043
20
-11.2857871
11
15.4327552
21
-11.4749796
0
LINE
8
layer1
10
15.4327552
20
-11.4749796
11
15.3803284
21
-11.5136261
0
LINE
8
layer1
10
15.3803284
20
-11.5136261
11
15.3675071
21
-11.5333737
0
LINE
8
layer1
10
15.3675071
20
-11.5333737
11
15.3590827
21
-11.5586287
0
LINE
8
layer1
10
15.3590827
20
-11.5586287
11
15.355284
21
-11.5892126
0
LINE
8
layer1
10
15.355284
20
-11.5892126
11
15.3563117
21
-11.6249423
0
LINE
8
layer1
10
15.3563117
20
-11.6249423
11
15.3623908
21
-11.6656173
0
LINE
8
layer1
10
15.3623908
20
-11.6656173
11
15.3737164
21
-11.7110465
0
LINE
8
layer1
10
15.3737164
20
-11.7110465
11
15.3904996
21
-11.761027
0
LINE
8
layer1
10
15.3904996
20
-11.761027
11
15.481481
21
-11.9701604
0
LINE
8
layer1
10
15.481481
20
-11.9701604
11
15.5291339
21
-12.0949542
0
LINE
8
layer1
10
15.5291339
20
-12.0949542
11
15.5792304
21
-12.2446841
0
LINE
8
layer1
10
15.5792304
20
-12.2446841
11
15.6295491
21
-12.4189121
0
LINE
8
layer1
10
15.6295491
20
-12.4189121
11
15.6784746
21
-12.619158
0
LINE
8
layer1
10
15.6784746
20
-12.619158
11
15.7240368
21
-12.8464699
0
LINE
8
layer1
10
15.7240368
20
-12.8464699
11
15.763918
21
-13.1000226
0
LINE
8
layer1
10
15.763918
20
-13.1000226
11
15.7960773
21
-13.3809032
0
LINE
8
layer1
10
15.7960773
20
-13.3809032
11
15.8170649
21
-13.668436
0
ARC
8
layer1
10
7.4999958
20
0.000008
40
16
50
298.6800323
51
301.3199649
0
LINE
8
layer1
10
15.1786803
20
-14.0370075
11
14.9401634
21
-13.8750653
0
LINE
8
layer1
10
14.9401634
20
-13.8750653
11
14.7129934
21
-13.7067742
0
LINE
8
layer1
10
14.7129934
20
-13.7067742
11
14.5133509
21
-13.5454597
0
LINE
8
layer1
10
14.5133509
20
-13.5454597
11
14.3392741
21
-13.3923457
0
LINE
8
layer1
10
14.3392741
20
-13.3923457
11
14.1903188
21
-13.2498521
0
LINE
8
layer1
10
14.1903188
20
-13.2498521
11
14.0645923
21
-13.1191608
0
LINE
8
layer1
10
14.0645923
20
-13.1191608
11
13.9599707
21
-13.000911
0
LINE
8
layer1
10
13.9599707
20
-13.000911
11
13.8757225
21
-12.8972455
0
LINE
8
layer1
10
13.8757225
20
-12.8972455
11
13.7400984
21
-12.7138866
0
LINE
8
layer1
10
13.7400984
20
-12.7138866
11
13.7052055
21
-12.6743617
0
LINE
8
layer1
10
13.7052055
20
-12.6743617
11
13.6715255
21
-12.6418388
0
LINE
8
layer1
10
13.6715255
20
-12.6418388
11
13.6393395
21
-12.6162366
0
LINE
8
layer1
10
13.6393395
20
-12.6162366
11
13.6089105
21
-12.5974818
0
LINE
8
layer1
10
13.6089105
20
-12.5974818
11
13.5805247
21
-12.5854797
0
LINE
8
layer1
10
13.5805247
20
-12.5854797
11
13.5544411
21
-12.5801479
0
LINE
8
layer1
10
13.5544411
20
-12.5801479
11
13.5309285
21
-12.5813776
0
LINE
8
layer1
10
13.5309285
20
-12.5813776
11
13.4712462
21
-12.6074573
0
LINE
8
layer1
10
13.4712462
20
-12.6074573
11
13.1739762
21
-12.7439591
0
LINE
8
layer1
10
13.1739762
20
-12.7439591
11
12.8736231
21
-12.8735363
0
LINE
8
layer1
10
12.8736231
20
-12.8735363
11
12.8143069
21
-12.9004381
0
LINE
8
layer1
10
12.8143069
20
-12.9004381
11
12.79766
21
-12.9170885
0
LINE
8
layer1
10
12.79766
20
-12.9170885
11
12.7841689
21
-12.9400401
0
LINE
8
layer1
10
12.7841689
20
-12.9400401
11
12.7740944
21
-12.9691658
0
LINE
8
layer1
10
12.7740944
20
-12.9691658
11
12.767671
21
-13.0043285
0
LINE
8
layer1
10
12.767671
20
-13.0043285
11
12.7651605
21
-13.0453785
0
LINE
8
layer1
10
12.7651605
20
-13.0453785
11
12.7667934
21
-13.0921697
0
LINE
8
layer1
10
12.7667934
20
-13.0921697
11
12.7728182
21
-13.1445475
0
LINE
8
layer1
10
12.7728182
20
-13.1445475
11
12.8183302
21
-13.3680269
0
LINE
8
layer1
10
12.8183302
20
-13.3680269
11
12.8389956
21
-13.5000013
0
LINE
8
layer1
10
12.8389956
20
-13.5000013
11
12.8568669
21
-13.6568748
0
LINE
8
layer1
10
12.8568669
20
-13.6568748
11
12.8698619
21
-13.8377574
0
LINE
8
layer1
10
12.8698619
20
-13.8377574
11
12.8760848
21
-14.0437996
0
LINE
8
layer1
10
12.8760848
20
-14.0437996
11
12.8733906
21
-14.2756171
0
LINE
8
layer1
10
12.8733906
20
-14.2756171
11
12.8596837
21
-14.5319208
0
LINE
8
layer1
10
12.8596837
20
-14.5319208
11
12.8327419
21
-14.8133498
0
LINE
8
layer1
10
12.8327419
20
-14.8133498
11
12.7934895
21
-15.0989629
0
ARC
8
layer1
10
7.4999978
20
0.0000088
40
16
50
286.6800316
51
289.3199641
0
LINE
8
layer1
10
12.0924248
20
-15.3267526
11
11.8927897
21
-15.1187588
0
LINE
8
layer1
10
11.8927897
20
-15.1187588
11
11.7055736
21
-14.9069139
0
LINE
8
layer1
10
11.7055736
20
-14.9069139
11
11.5438329
21
-14.7076166
0
LINE
8
layer1
10
11.5438329
20
-14.7076166
11
11.4053943
21
-14.5216559
0
LINE
8
layer1
10
11.4053943
20
-14.5216559
11
11.2893201
21
-14.3513065
0
LINE
8
layer1
10
11.2893201
20
-14.3513065
11
11.1935133
21
-14.1973312
0
LINE
8
layer1
10
11.1935133
20
-14.1973312
11
11.1157635
21
-14.0599133
0
LINE
8
layer1
10
11.1157635
20
-14.0599133
11
11.0549096
21
-13.940997
0
LINE
8
layer1
10
11.0549096
20
-13.940997
11
10.9603716
21
-13.7334471
0
LINE
8
layer1
10
10.9603716
20
-13.7334471
11
10.9344589
21
-13.6875312
0
LINE
8
layer1
10
10.9344589
20
-13.6875312
11
10.9082768
21
-13.6487166
0
LINE
8
layer1
10
10.9082768
20
-13.6487166
11
10.8821171
21
-13.616982
0
LINE
8
layer1
10
10.8821171
20
-13.616982
11
10.8562524
21
-13.5923105
0
LINE
8
layer1
10
10.8562524
20
-13.5923105
11
10.8309823
21
-13.5746689
0
LINE
8
layer1
10
10.8309823
20
-13.5746689
11
10.8065772
21
-13.5640306
0
LINE
8
layer1
10
10.8065772
20
-13.5640306
11
10.7833227
21
-13.5603449
0
LINE
8
layer1
10
10.7833227
20
-13.5603449
11
10.7195224
21
-13.573446
0
LINE
8
layer1
10
10.7195224
20
-13.573446
11
10.4003681
21
-13.645159
0
LINE
8
layer1
10
10.4003681
20
-13.645159
11
10.0796378
21
-13.7094577
0
LINE
8
layer1
10
10.0796378
20
-13.7094577
11
10.0160246
21
-13.7234391
0
LINE
8
layer1
10
10.0160246
20
-13.7234391
11
9.9962797
21
-13.7362646
0
LINE
8
layer1
10
9.9962797
20
-13.7362646
11
9.9783115
21
-13.7559097
0
LINE
8
layer1
10
9.9783115
20
-13.7559097
11
9.9624016
21
-13.7823043
0
LINE
8
layer1
10
9.9624016
20
-13.7823043
11
9.9488078
21
-13.8153631
0
LINE
8
layer1
10
9.9488078
20
-13.8153631
11
9.9378174
21
-13.8549941
0
LINE
8
layer1
10
9.9378174
20
-13.8549941
11
9.9296862
21
-13.9011023
0
LINE
8
layer1
10
9.9296862
20
-13.9011023
11
9.9246894
21
-13.9535881
0
LINE
8
layer1
10
9.9246894
20
-13.9535881
11
9.9227428
21
-14.1816464
0
LINE
8
layer1
10
9.9227428
20
-14.1816464
11
9.9155177
21
-14.3150335
0
LINE
8
layer1
10
9.9155177
20
-14.3150335
11
9.9003826
21
-14.4721946
0
LINE
8
layer1
10
9.9003826
20
-14.4721946
11
9.875486
21
-14.6518262
0
LINE
8
layer1
10
9.875486
20
-14.6518262
11
9.8387344
21
-14.8546597
0
LINE
8
layer1
10
9.8387344
20
-14.8546597
11
9.7879014
21
-15.0808513
0
LINE
8
layer1
10
9.7879014
20
-15.0808513
11
9.7212055
21
-15.3287044
0
LINE
8
layer1
10
9.7212055
20
-15.3287044
11
9.6363401
21
-15.598382
0
LINE
8
layer1
10
9.6363401
20
-15.598382
11
9.5385631
21
-15.8695927
0
ARC
8
layer1
10
7.4999997
20
0.000009
40
16
50
274.6800313
51
277.3199639
0
LINE
8
layer1
10
8.8054582
20
-15.9466451
11
8.65343
21
-15.70169
0
LINE
8
layer1
10
8.65343
20
-15.70169
11
8.51435
21
-15.45555
0
LINE
8
layer1
10
8.51435
20
-15.45555
11
8.39758
21
-15.22698
0
LINE
8
layer1
10
8.39758
20
-15.22698
11
8.30083
21
-15.0163
0
LINE
8
layer1
10
8.30083
20
-15.0163
11
8.22271
21
-14.82554
0
LINE
8
layer1
10
8.22271
20
-14.82554
11
8.16101
21
-14.65501
0
LINE
8
layer1
10
8.16101
20
-14.65501
11
8.11353
21
-14.50443
0
LINE
8
layer1
10
8.11353
20
-14.50443
11
8.07873
21
-14.37546
0
LINE
8
layer1
10
8.07873
20
-14.37546
11
8.02941
21
-14.15279
0
LINE
8
layer1
10
8.02941
20
-14.15279
11
8.01361
21
-14.10249
0
LINE
8
layer1
10
8.01361
20
-14.10249
11
7.99607
21
-14.05908
0
LINE
8
layer1
10
7.99607
20
-14.05908
11
7.97708
21
-14.0226
0
LINE
8
layer1
10
7.97708
20
-14.0226
11
7.95691
21
-13.99309
0
LINE
8
layer1
10
7.95691
20
-13.99309
11
7.93586
21
-13.97058
0
LINE
8
layer1
10
7.93586
20
-13.97058
11
7.9142
21
-13.9551
0
LINE
8
layer1
10
7.9142
20
-13.9551
11
7.89222
21
-13.94666
0
LINE
8
layer1
10
7.89222
20
-13.94666
11
7.82709
21
-13.94621
0
LINE
8
layer1
10
7.82709
20
-13.94621
11
7.5
21
-13.95
0
LINE
8
layer1
10
7.5
20
-13.95
11
7.17291
21
-13.94621
0
LINE
8
layer1
10
7.17291
20
-13.94621
11
7.10778
21
-13.94666
0
LINE
8
layer1
10
7.10778
20
-13.94666
11
7.0858
21
-13.9551
0
LINE
8
layer1
10
7.0858
20
-13.9551
11
7.06414
21
-13.97058
0
LINE
8
layer1
10
7.06414
20
-13.97058
11
7.04309
21
-13.99309
0
LINE
8
layer1
10
7.04309
20
-13.99309
11
7.02292
21
-14.0226
0
LINE
8
layer1
10
7.02292
20
-14.0226
11
7.00393
21
-14.05908
0
LINE
8
layer1
10
7.00393
20
-14.05908
11
6.98639
21
-14.10249
0
LINE
8
layer1
10
6.98639
20
-14.10249
11
6.97059
21
-14.15279
0
LINE
8
layer1
10
6.97059
20
-14.15279
11
6.92127
21
-14.37546
0
LINE
8
layer1
10
6.92127
20
-14.37546
11
6.88647
21
-14.50443
0
LINE
8
layer1
10
6.88647
20
-14.50443
11
6.83899
21
-14.65501
0
LINE
8
layer1
10
6.83899
20
-14.65501
11
6.77729
21
-14.82554
0
LINE
8
layer1
10
6.77729
20
-14.82554
11
6.69917
21
-15.0163
0
LINE
8
layer1
10
6.69917
20
-15.0163
11
6.60242
21
-15.22698
0
LINE
8
layer1
10
6.60242
20
-15.22698
11
6.48565
21
-15.45555
0
LINE
8
layer1
10
6.48565
20
-15.45555
11
6.34657
21
-15.70169
0
LINE
8
layer1
10
6.34657
20
-15.70169
11
6.1945418
21
-15.9466451
0
ARC
8
layer1
10
7.5000003
20
0.000009
40
16
50
262.6800361
51
265.3199687
0
LINE
8
layer1
10
5.4614369
20
-15.8695927
11
5.3636599
21
-15.598382
0
LINE
8
layer1
10
5.3636599
20
-15.598382
11
5.2787945
21
-15.3287044
0
LINE
8
layer1
10
5.2787945
20
-15.3287044
11
5.2120986
21
-15.0808513
0
LINE
8
layer1
10
5.2120986
20
-15.0808513
11
5.1612656
21
-14.8546597
0
LINE
8
layer1
10
5.1612656
20
-14.8546597
11
5.124514
21
-14.6518262
0
LINE
8
layer1
10
5.124514
20
-14.6518262
11
5.0996174
21
-14.4721946
0
LINE
8
layer1
10
5.0996174
20
-14.4721946
11
5.0844823
21
-14.3150335
0
LINE
8
layer1
10
5.0844823
20
-14.3150335
11
5.0772572
21
-14.1816464
0
LINE
8
layer1
10
5.0772572
20
-14.1816464
11
5.0753106
21
-13.9535881
0
LINE
8
layer1
10
5.0753106
20
-13.9535881
11
5.0703138
21
-13.9011023
0
LINE
8
layer1
10
5.0703138
20
-13.9011023
11
5.0621826
21
-13.8549941
0
LINE
8
layer1
10
5.0621826
20
-13.8549941
11
5.0511922
21
-13.8153631
0
LINE
8
layer1
10
5.0511922
20
-13.8153631
11
5.0375984
21
-13.7823043
0
LINE
8
layer1
10
5.0375984
20
-13.7823043
11
5.0216885
21
-13.7559097
0
LINE
8
layer1
10
5.0216885
20
-13.7559097
11
5.0037203
21
-13.7362646
0
LINE
8
layer1
10
5.0037203
20
-13.7362646
11
4.9839754
21
-13.7234391
0
LINE
8
layer1
10
4.9839754
20
-13.7234391
11
4.9203622
21
-13.7094577
0
LINE
8
layer1
10
4.9203622
20
-13.7094577
11
4.5996319
21
-13.645159
0
LINE
8
layer1
10
4.5996319
20
-13.645159
11
4.2804776
21
-13.573446
0
LINE
8
layer1
10
4.2804776
20
-13.573446
11
4.2166773
21
-13.5603449
0
LINE
8
layer1
10
4.2166773
20
-13.5603449
11
4.1934228
21
-13.5640306
0
LINE
8
layer1
10
4.1934228
20
-13.5640306
11
4.1690177
21
-13.5746689
0
LINE
8
layer1
10
4.1690177
20
-13.5746689
11
4.1437476
21
-13.5923105
0
LINE
8
layer1
10
4.1437476
20
-13.5923105
11
4.1178829
21
-13.616982
0
LINE
8
layer1
10
4.1178829
20
-13.616982
11
4.0917232
21
-13.6487166
0
LINE
8
layer1
10
4.0917232
20
-13.6487166
11
4.0655411
21
-13.6875312
0
LINE
8
layer1
10
4.0655411
20
-13.6875312
11
4.0396284
21
-13.7334471
0
LINE
8
layer1
10
4.0396284
20
-13.7334471
11
3.9450904
21
-13.940997
0
LINE
8
layer1
10
3.9450904
20
-13.940997
11
3.8842365
21
-14.0599133
0
LINE
8
layer1
10
3.8842365
20
-14.0599133
11
3.8064867
21
-14.1973312
0
LINE
8
layer1
10
3.8064867
20
-14.1973312
11
3.7106799
21
-14.3513065
0
LINE
8
layer1
10
3.7106799
20
-14.3513065
11
3.5946057
21
-14.5216559
0
LINE
8
layer1
10
3.5946057
20
-14.5216559
11
3.4561671
21
-14.7076166
0
LINE
8
layer1
10
3.4561671
20
-14.7076166
11
3.2944264
21
-14.9069139
0
LINE
8
layer1
10
3.2944264
20
-14.9069139
11
3.1072103
21
-15.1187588
0
LINE
8
layer1
10
3.1072103
20
-15.1187588
11
2.9075752
21
-15.3267526
0
ARC
8
layer1
10
7.5000022
20
0.0000088
40
16
50
250.6800359
51
253.3199684
0
LINE
8
layer1
10
2.2065105
20
-15.0989629
11
2.1672581
21
-14.8133498
0
LINE
8
layer1
10
2.1672581
20
-14.8133498
11
2.1403163
21
-14.5319208
0
LINE
8
layer1
10
2.1403163
20
-14.5319208
11
2.1266094
21
-14.2756171
0
LINE
8
layer1
10
2.1266094
20
-14.2756171
11
2.1239152
21
-14.0437996
0
LINE
8
layer1
10
2.1239152
20
-14.0437996
11
2.1301381
21
-13.8377574
0
LINE
8
layer1
10
2.1301381
20
-13.8377574
11
2.1431331
21
-13.6568748
0
LINE
8
layer1
10
2.1431331
20
-13.6568748
11
2.1610044
21
-13.5000013
0
LINE
8
layer1
10
2.1610044
20
-13.5000013
11
2.1816698
21
-13.3680269
0
LINE
8
layer1
10
2.1816698
20
-13.3680269
11
2.2271818
21
-13.1445475
0
LINE
8
layer1
10
2.2271818
20
-13.1445475
11
2.2332066
21
-13.0921697
0
LINE
8
layer1
10
2.2332066
20
-13.0921697
11
2.2348395
21
-13.0453785
0
LINE
8
layer1
10
2.2348395
20
-13.0453785
11
2.232329
21
-13.0043285
0
LINE
8
layer1
10
2.232329
20
-13.0043285
11
2.2259056
21
-12.9691658
0
LINE
8
layer1
10
2.2259056
20
-12.9691658
11
2.2158311
21
-12.9400401
0
LINE
8
layer1
10
2.2158311
20
-12.9400401
11
2.20234
21
-12.9170885
0
LINE
8
layer1
10
2.20234
20
-12.9170885
11
2.1856931
21
-12.9004381
0
LINE
8
layer1
10
2.1856931
20
-12.9004381
11
2.1263769
21
-12.8735363
0
LINE
8
layer1
10
2.1263769
20
-12.8735363
11
1.8260238
21
-12.7439591
0
LINE
8
layer1
10
1.8260238
20
-12.7439591
11
1.5287538
21
-12.6074573
0
LINE
8
layer1
10
1.5287538
20
-12.6074573
11
1.4690715
21
-12.5813776
0
LINE
8
layer1
10
1.4690715
20
-12.5813776
11
1.4455589
21
-12.5801479
0
LINE
8
layer1
10
1.4455589
20
-12.5801479
11
1.4194753
21
-12.5854797
0
LINE
8
layer1
10
1.4194753
20
-12.5854797
11
1.3910895
21
-12.5974818
0
LINE
8
layer1
10
1.3910895
20
-12.5974818
11
1.3606605
21
-12.6162366
0
LINE
8
layer1
10
1.3606605
20
-12.6162366
11
1.3284745
21
-12.6418388
0
LINE
8
layer1
10
1.3284745
20
-12.6418388
11
1.2947945
21
-12.6743617
0
LINE
8
layer1
10
1.2947945
20
-12.6743617
11
1.2599016
21
-12.7138866
0
LINE
8
layer1
10
1.2599016
20
-12.7138866
11
1.1242775
21
-12.8972455
0
LINE
8
layer1
10
1.1242775
20
-12.8972455
11
1.0400293
21
-13.000911
0
LINE
8
layer1
10
1.0400293
20
-13.000911
11
0.9354077
21
-13.1191608
0
LINE
8
layer1
10
0.9354077
20
-13.1191608
11
0.8096812
21
-13.2498521
0
LINE
8
layer1
10
0.8096812
20
-13.2498521
11
0.6607259
21
-13.3923457
0
LINE
8
layer1
10
0.6607259
20
-13.3923457
11
0.4866491
21
-13.5454597
0
LINE
8
layer1
10
0.4866491
20
-13.5454597
11
0.2870066
21
-13.7067742
0
LINE
8
layer1
10
0.2870066
20
-13.7067742
11
0.0598366
21
-13.8750653
0
LINE
8
layer1
10
0.0598366
20
-13.8750653
11
-0.1786803
21
-14.0370075
0
ARC
8
layer1
10
7.5000042
20
0.000008
40
16
50
238.6800351
51
241.3199677
0
LINE
8
layer1
10
-0.8170649
20
-13.668436
11
-0.7960773
21
-13.3809032
0
LINE
8
layer1
10
-0.7960773
20
-13.3809032
11
-0.763918
21
-13.1000226
0
LINE
8
layer1
10
-0.763918
20
-13.1000226
11
-0.7240368
21
-12.8464699
0
LINE
8
layer1
10
-0.7240368
20
-12.8464699
11
-0.6784746
21
-12.619158
0
LINE
8
layer1
10
-0.6784746
20
-12.619158
11
-0.6295491
21
-12.4189121
0
LINE
8
layer1
10
-0.6295491
20
-12.4189121
11
-0.5792304
21
-12.2446841
0
LINE
8
layer1
10
-0.5792304
20
-12.2446841
11
-0.5291339
21
-12.0949542
0
LINE
8
layer1
10
-0.5291339
20
-12.0949542
11
-0.481481
21
-11.9701604
0
LINE
8
layer1
10
-0.481481
20
-11.9701604
11
-0.3904996
21
-11.761027
0
LINE
8
layer1
10
-0.3904996
20
-11.761027
11
-0.3737164
21
-11.7110465
0
LINE
8
layer1
10
-0.3737164
20
-11.7110465
11
-0.3623908
21
-11.6656173
0
LINE
8
layer1
10
-0.3623908
20
-11.6656173
11
-0.3563117
21
-11.6249423
0
LINE
8
layer1
10
-0.3563117
20
-11.6249423
11
-0.355284
21
-11.5892126
0
LINE
8
layer1
10
-0.355284
20
-11.5892126
11
-0.3590827
21
-11.5586287
0
LINE
8
layer1
10
-0.3590827
20
-11.5586287
11
-0.3675071
21
-11.5333737
0
LINE
8
layer1
10
-0.3675071
20
-11.5333737
11
-0.3803284
21
-11.5136261
0
LINE
8
layer1
10
-0.3803284
20
-11.5136261
11
-0.4327552
21
-11.4749796
0
LINE
8
layer1
10
-0.4327552
20
-11.4749796
11
-0.6996043
21
-11.2857871
0
LINE
8
layer1
10
-0.6996043
20
-11.2857871
11
-0.9619979
21
-11.0904622
0
LINE
8
layer1
10
-0.9619979
20
-11.0904622
11
-1.0149537
21
-11.0525438
0
LINE
8
layer1
10
-1.0149537
20
-11.0525438
11
-1.0376968
21
-11.0464524
0
LINE
8
layer1
10
-1.0376968
20
-11.0464524
11
-1.064319
21
-11.0462446
0
LINE
8
layer1
10
-1.064319
20
-11.0462446
11
-1.0945799
21
-11.0520827
0
LINE
8
layer1
10
-1.0945799
20
-11.0520827
11
-1.1282433
21
-11.0641011
0
LINE
8
layer1
10
-1.1282433
20
-11.0641011
11
-1.1650489
21
-11.082452
0
LINE
8
layer1
10
-1.1650489
20
-11.082452
11
-1.2047549
21
-11.1072617
0
LINE
8
layer1
10
-1.2047549
20
-11.1072617
11
-1.2471029
21
-11.1386682
0
LINE
8
layer1
10
-1.2471029
20
-11.1386682
11
-1.4178858
21
-11.2898225
0
LINE
8
layer1
10
-1.4178858
20
-11.2898225
11
-1.5218462
21
-11.3737065
0
LINE
8
layer1
10
-1.5218462
20
-11.3737065
11
-1.6487671
21
-11.4676202
0
LINE
8
layer1
10
-1.6487671
20
-11.4676202
11
-1.7989184
21
-11.5693155
0
LINE
8
layer1
10
-1.7989184
20
-11.5693155
11
-1.9742448
21
-11.6777258
0
LINE
8
layer1
10
-1.9742448
20
-11.6777258
11
-2.1763518
21
-11.7913013
0
LINE
8
layer1
10
-2.1763518
20
-11.7913013
11
-2.4051707
21
-11.9075826
0
LINE
8
layer1
10
-2.4051707
20
-11.9075826
11
-2.6623663
21
-12.0249649
0
LINE
8
layer1
10
-2.6623663
20
-12.0249649
11
-2.9293407
21
-12.1337778
0
ARC
8
layer1
10
7.5000068
20
0.000006
40
16
50
226.68003
51
229.3199626
0
LINE
8
layer1
10
-3.4771448
20
-11.6405328
11
-3.3968344
21
-11.3636469
0
LINE
8
layer1
10
-3.3968344
20
-11.3636469
11
-3.3069794
21
-11.0955905
0
LINE
8
layer1
10
-3.3069794
20
-11.0955905
11
-3.2152531
21
-10.8558703
0
LINE
8
layer1
10
-3.2152531
20
-10.8558703
11
-3.1234258
21
-10.6429986
0
LINE
8
layer1
10
-3.1234258
20
-10.6429986
11
-3.033936
21
-10.4573008
0
LINE
8
layer1
10
-3.033936
20
-10.4573008
11
-2.9484928
21
-10.2973419
0
LINE
8
layer1
10
-2.9484928
20
-10.2973419
11
-2.8683604
21
-10.1612997
0
LINE
8
layer1
10
-2.8683604
20
-10.1612997
11
-2.7958028
21
-10.0491405
0
LINE
8
layer1
10
-2.7958028
20
-10.0491405
11
-2.6633282
21
-9.8634933
0
LINE
8
layer1
10
-2.6633282
20
-9.8634933
11
-2.6365203
21
-9.8180943
0
LINE
8
layer1
10
-2.6365203
20
-9.8180943
11
-2.6159969
21
-9.7760126
0
LINE
8
layer1
10
-2.6159969
20
-9.7760126
11
-2.6015938
21
-9.7374904
0
LINE
8
layer1
10
-2.6015938
20
-9.7374904
11
-2.59316
21
-9.7027551
0
LINE
8
layer1
10
-2.59316
20
-9.7027551
11
-2.590517
21
-9.6720498
0
LINE
8
layer1
10
-2.590517
20
-9.6720498
11
-2.5935065
21
-9.6455951
0
LINE
8
layer1
10
-2.5935065
20
-9.6455951
11
-2.6019418
21
-9.6236133
0
LINE
8
layer1
10
-2.6019418
20
-9.6236133
11
-2.6451879
21
-9.5749112
0
LINE
8
layer1
10
-2.6451879
20
-9.5749112
11
-2.8668703
21
-9.334372
0
LINE
8
layer1
10
-2.8668703
20
-9.334372
11
-3.0829197
21
-9.0887607
0
LINE
8
layer1
10
-3.0829197
20
-9.0887607
11
-3.1268346
21
-9.0406608
0
LINE
8
layer1
10
-3.1268346
20
-9.0406608
11
-3.1478143
21
-9.0299739
0
LINE
8
layer1
10
-3.1478143
20
-9.0299739
11
-3.1738115
21
-9.0242356
0
LINE
8
layer1
10
-3.1738115
20
-9.0242356
11
-3.2046249
21
-9.0236545
0
LINE
8
layer1
10
-3.2046249
20
-9.0236545
11
-3.2400515
21
-9.0284113
0
LINE
8
layer1
10
-3.2400515
20
-9.0284113
11
-3.2798682
21
-9.0387089
0
LINE
8
layer1
10
-3.2798682
20
-9.0387089
11
-3.3238646
21
-9.0547211
0
LINE
8
layer1
10
-3.3238646
20
-9.0547211
11
-3.3718171
21
-9.0766367
0
LINE
8
layer1
10
-3.3718171
20
-9.0766367
11
-3.5702947
21
-9.1889801
0
LINE
8
layer1
10
-3.5702947
20
-9.1889801
11
-3.6894238
21
-9.2494164
0
LINE
8
layer1
10
-3.6894238
20
-9.2494164
11
-3.8330969
21
-9.3148896
0
LINE
8
layer1
10
-3.8330969
20
-9.3148896
11
-4.0011107
21
-9.3831444
0
LINE
8
layer1
10
-4.0011107
20
-9.3831444
11
-4.1951455
21
-9.4527333
0
LINE
8
layer1
10
-4.1951455
20
-9.4527333
11
-4.4164496
21
-9.5218064
0
LINE
8
layer1
10
-4.4164496
20
-9.5218064
11
-4.6644446
21
-9.5879726
0
LINE
8
layer1
10
-4.6644446
20
-9.5879726
11
-4.940425
21
-9.6493158
0
LINE
8
layer1
10
-4.940425
20
-9.6493158
11
-5.2241889
21
-9.7002438
0
ARC
8
layer1
10
7.5000077
20
0.0000047
40
16
50
214.6800309
51
217.3199636
0
LINE
8
layer1
10
-5.6574707
20
-9.1038825
11
-5.5213474
21
-8.8497447
0
LINE
8
layer1
10
-5.5213474
20
-8.8497447
11
-5.3777239
21
-8.6062279
0
LINE
8
layer1
10
-5.3777239
20
-8.6062279
11
-5.2381615
21
-8.3908171
0
LINE
8
layer1
10
-5.2381615
20
-8.3908171
11
-5.1040823
21
-8.2016891
0
LINE
8
layer1
10
-5.1040823
20
-8.2016891
11
-4.9779393
21
-8.0386552
0
LINE
8
layer1
10
-4.9779393
20
-8.0386552
11
-4.861106
21
-7.8999565
0
LINE
8
layer1
10
-4.861106
20
-7.8999565
11
-4.7544398
21
-7.7835476
0
LINE
8
layer1
10
-4.7544398
20
-7.7835476
11
-4.6601486
21
-7.6889249
0
LINE
8
layer1
10
-4.6601486
20
-7.6889249
11
-4.4919707
21
-7.5348775
0
LINE
8
layer1
10
-4.4919707
20
-7.5348775
11
-4.4563096
21
-7.4960443
0
LINE
8
layer1
10
-4.4563096
20
-7.4960443
11
-4.4274854
21
-7.4591492
0
LINE
8
layer1
10
-4.4274854
20
-7.4591492
11
-4.4053878
21
-7.4244634
0
LINE
8
layer1
10
-4.4053878
20
-7.4244634
11
-4.3899164
21
-7.3922407
0
LINE
8
layer1
10
-4.3899164
20
-7.3922407
11
-4.3809472
21
-7.3627558
0
LINE
8
layer1
10
-4.3809472
20
-7.3627558
11
-4.3783711
21
-7.3362577
0
LINE
8
layer1
10
-4.3783711
20
-7.3362577
11
-4.3820519
21
-7.3130025
0
LINE
8
layer1
10
-4.3820519
20
-7.3130025
11
-4.4142271
21
-7.2563732
0
LINE
8
layer1
10
-4.4142271
20
-7.2563732
11
-4.5810544
21
-6.975
0
LINE
8
layer1
10
-4.5810544
20
-6.975
11
-4.7413171
21
-6.6898368
0
LINE
8
layer1
10
-4.7413171
20
-6.6898368
11
-4.7742719
21
-6.6336575
0
LINE
8
layer1
10
-4.7742719
20
-6.6336575
11
-4.7925711
21
-6.6188423
0
LINE
8
layer1
10
-4.7925711
20
-6.6188423
11
-4.8168072
21
-6.6078242
0
LINE
8
layer1
10
-4.8168072
20
-6.6078242
11
-4.8468264
21
-6.6008493
0
LINE
8
layer1
10
-4.8468264
20
-6.6008493
11
-4.8824678
21
-6.5981366
0
LINE
8
layer1
10
-4.8824678
20
-6.5981366
11
-4.9235554
21
-6.5999308
0
LINE
8
layer1
10
-4.9235554
20
-6.5999308
11
-4.9699196
21
-6.6064457
0
LINE
8
layer1
10
-4.9699196
20
-6.6064457
11
-5.0213807
21
-6.6179125
0
LINE
8
layer1
10
-5.0213807
20
-6.6179125
11
-5.2388786
21
-6.6865351
0
LINE
8
layer1
10
-5.2388786
20
-6.6865351
11
-5.3679698
21
-6.7208824
0
LINE
8
layer1
10
-5.3679698
20
-6.7208824
11
-5.522116
21
-6.7550535
0
LINE
8
layer1
10
-5.522116
20
-6.7550535
11
-5.7006493
21
-6.7868848
0
LINE
8
layer1
10
-5.7006493
20
-6.7868848
11
-5.9049123
21
-6.8146109
0
LINE
8
layer1
10
-5.9049123
20
-6.8146109
11
-6.1357415
21
-6.8361629
0
LINE
8
layer1
10
-6.1357415
20
-6.8361629
11
-6.3920739
21
-6.8493221
0
LINE
8
layer1
10
-6.3920739
20
-6.8493221
11
-6.6747774
21
-6.8519453
0
LINE
8
layer1
10
-6.6747774
20
-6.8519453
11
-6.9629289
21
-6.8427626
0
ARC
8
layer1
10
7.5000082
20
0.0000037
40
16
50
202.6800338
51
205.3199665
0
LINE
8
layer1
10
-7.262752
20
-6.1693489
11
-7.0767651
21
-5.9490662
0
LINE
8
layer1
10
-7.0767651
20
-5.9490662
11
-6.8856502
21
-5.7407318
0
LINE
8
layer1
10
-6.8856502
20
-5.7407318
11
-6.7043511
21
-5.5590449
0
LINE
8
layer1
10
-6.7043511
20
-5.5590449
11
-6.5338799
21
-5.4019265
0
LINE
8
layer1
10
-6.5338799
20
-5.4019265
11
-6.3765968
21
-5.2686819
0
LINE
8
layer1
10
-6.3765968
20
-5.2686819
11
-6.2334794
21
-5.157305
0
LINE
8
layer1
10
-6.2334794
20
-5.157305
11
-6.1049415
21
-5.0656171
0
LINE
8
layer1
10
-6.1049415
20
-5.0656171
11
-5.9930375
21
-4.9926664
0
LINE
8
layer1
10
-5.9930375
20
-4.9926664
11
-5.7965065
21
-4.8769515
0
LINE
8
layer1
10
-5.7965065
20
-4.8769515
11
-5.7535508
21
-4.8463812
0
LINE
8
layer1
10
-5.7535508
20
-4.8463812
11
-5.7176856
21
-4.8162853
0
LINE
8
layer1
10
-5.7176856
20
-4.8162853
11
-5.6888593
21
-4.7869517
0
LINE
8
layer1
10
-5.6888593
20
-4.7869517
11
-5.6670265
21
-4.7586498
0
LINE
8
layer1
10
-5.6670265
20
-4.7586498
11
-5.652123
21
-4.7316741
0
LINE
8
layer1
10
-5.652123
20
-4.7316741
11
-5.644094
21
-4.7062907
0
LINE
8
layer1
10
-5.644094
20
-4.7062907
11
-5.6428592
21
-4.6827783
0
LINE
8
layer1
10
-5.6428592
20
-4.6827783
11
-5.6625575
21
-4.620697
0
LINE
8
layer1
10
-5.6625575
20
-4.620697
11
-5.7672384
21
-4.3107871
0
LINE
8
layer1
10
-5.7672384
20
-4.3107871
11
-5.8647103
21
-3.9985348
0
LINE
8
layer1
10
-5.8647103
20
-3.9985348
11
-5.8852645
21
-3.9367316
0
LINE
8
layer1
10
-5.8852645
20
-3.9367316
11
-5.9000836
21
-3.9184354
0
LINE
8
layer1
10
-5.9000836
20
-3.9184354
11
-5.9214993
21
-3.9026191
0
LINE
8
layer1
10
-5.9214993
20
-3.9026191
11
-5.9494124
21
-3.8895554
0
LINE
8
layer1
10
-5.9494124
20
-3.8895554
11
-5.9837109
21
-3.8794917
0
LINE
8
layer1
10
-5.9837109
20
-3.8794917
11
-6.0242737
21
-3.872704
0
LINE
8
layer1
10
-6.0242737
20
-3.872704
11
-6.0709792
21
-3.8694369
0
LINE
8
layer1
10
-6.0709792
20
-3.8694369
11
-6.1236998
21
-3.8699538
0
LINE
8
layer1
10
-6.1236998
20
-3.8699538
11
-6.3507123
21
-3.8918565
0
LINE
8
layer1
10
-6.3507123
20
-3.8918565
11
-6.4841239
21
-3.8986137
0
LINE
8
layer1
10
-6.4841239
20
-3.8986137
11
-6.6420061
21
-3.8999893
0
LINE
8
layer1
10
-6.6420061
20
-3.8999893
11
-6.8232561
21
-3.8940058
0
LINE
8
layer1
10
-6.8232561
20
-3.8940058
11
-7.02882
21
-3.8786573
0
LINE
8
layer1
10
-7.02882
20
-3.8786573
11
-7.259086
21
-3.8517463
0
LINE
8
layer1
10
-7.259086
20
-3.8517463
11
-7.5125529
21
-3.8113234
0
LINE
8
layer1
10
-7.5125529
20
-3.8113234
11
-7.7896241
21
-3.7551119
0
LINE
8
layer1
10
-7.7896241
20
-3.7551119
11
-8.0695695
21
-3.6862198
0
ARC
8
layer1
10
7.5000086
20
0.0000028
40
16
50
190.6800371
51
193.3199697
0
LINE
8
layer1
10
-8.2228302
20
-2.9651851
11
-7.9951082
21
-2.7883849
0
LINE
8
layer1
10
-7.9951082
20
-2.7883849
11
-7.7648544
21
-2.6243382
0
LINE
8
layer1
10
-7.7648544
20
-2.6243382
11
-7.5497424
21
-2.4843158
0
LINE
8
layer1
10
-7.5497424
20
-2.4843158
11
-7.3503296
21
-2.3660737
0
LINE
8
layer1
10
-7.3503296
20
-2.3660737
11
-7.1687804
21
-2.2684418
0
LINE
8
layer1
10
-7.1687804
20
-2.2684418
11
-7.005634
21
-2.1892546
0
LINE
8
layer1
10
-7.005634
20
-2.1892546
11
-6.8608419
21
-2.1262948
0
LINE
8
layer1
10
-6.8608419
20
-2.1262948
11
-6.736216
21
-2.0782044
0
LINE
8
layer1
10
-6.736216
20
-2.0782044
11
-6.5199211
21
-2.0058792
0
LINE
8
layer1
10
-6.5199211
20
-2.0058792
11
-6.4715482
21
-1.984908
0
LINE
8
layer1
10
-6.4715482
20
-1.984908
11
-6.4302095
21
-1.9629265
0
LINE
8
layer1
10
-6.4302095
20
-1.9629265
11
-6.3959143
21
-1.9402273
0
LINE
8
layer1
10
-6.3959143
20
-1.9402273
11
-6.3686743
21
-1.9170832
0
LINE
8
layer1
10
-6.3686743
20
-1.9170832
11
-6.3484879
21
-1.8937956
0
LINE
8
layer1
10
-6.3484879
20
-1.8937956
11
-6.3353568
21
-1.8706361
0
LINE
8
layer1
10
-6.3353568
20
-1.8706361
11
-6.3292606
21
-1.8478943
0
LINE
8
layer1
10
-6.3292606
20
-1.8478943
11
-6.335621
21
-1.7830741
0
LINE
8
layer1
10
-6.335621
20
-1.7830741
11
-6.3735804
21
-1.4581721
0
LINE
8
layer1
10
-6.3735804
20
-1.4581721
11
-6.4040014
21
-1.1324777
0
LINE
8
layer1
10
-6.4040014
20
-1.1324777
11
-6.4112569
21
-1.0677516
0
LINE
8
layer1
10
-6.4112569
20
-1.0677516
11
-6.4219482
21
-1.0467742
0
LINE
8
layer1
10
-6.4219482
20
-1.0467742
11
-6.4396075
21
-1.0268509
0
LINE
8
layer1
10
-6.4396075
20
-1.0268509
11
-6.4641945
21
-1.0082692
0
LINE
8
layer1
10
-6.4641945
20
-1.0082692
11
-6.4956512
21
-0.9912943
0
LINE
8
layer1
10
-6.4956512
20
-0.9912943
11
-6.5339163
21
-0.9762216
0
LINE
8
layer1
10
-6.5339163
20
-0.9762216
11
-6.5789219
21
-0.9633152
0
LINE
8
layer1
10
-6.5789219
20
-0.9633152
11
-6.6305979
21
-0.9528596
0
LINE
8
layer1
10
-6.6305979
20
-0.9528596
11
-6.8572035
21
-0.9270851
0
LINE
8
layer1
10
-6.8572035
20
-0.9270851
11
-6.9891046
21
-0.9059568
0
LINE
8
layer1
10
-6.9891046
20
-0.9059568
11
-7.1438227
21
-0.8744768
0
LINE
8
layer1
10
-7.1438227
20
-0.8744768
11
-7.3198679
21
-0.83094
0
LINE
8
layer1
10
-7.3198679
20
-0.83094
11
-7.5177487
21
-0.7731878
0
LINE
8
layer1
10
-7.5177487
20
-0.7731878
11
-7.7373877
21
-0.6989899
0
LINE
8
layer1
10
-7.7373877
20
-0.6989899
11
-7.9769113
21
-0.6067516
0
LINE
8
layer1
10
-7.9769113
20
-0.6067516
11
-8.2362408
21
-0.4941621
0
LINE
8
layer1
10
-8.2362408
20
-0.4941621
11
-8.4957453
21
-0.3685715
0
ARC
8
layer1
10
7.500009
20
0
40
16
50
178.6800334
51
181.3199662
0
LINE
8
layer1
10
-8.4957453
20
0.3685715
11
-8.2362408
21
0.4941621
0
LINE
8
layer1
10
-8.2362408
20
0.4941621
11
-7.9769113
21
0.6067516
0
LINE
8
layer1
10
-7.9769113
20
0.6067516
11
-7.7373877
21
0.6989899
0
LINE
8
layer1
10
-7.7373877
20
0.6989899
11
-7.5177487
21
0.7731878
0
LINE
8
layer1
10
-7.5177487
20
0.7731878
11
-7.3198679
21
0.83094
0
LINE
8
layer1
10
-7.3198679
20
0.83094
11
-7.1438227
21
0.8744768
0
LINE
8
layer1
10
-7.1438227
20
0.8744768
11
-6.9891046
21
0.9059568
0
LINE
8
layer1
10
-6.9891046
20
0.9059568
11
-6.8572035
21
0.9270851
0
LINE
8
layer1
10
-6.8572035
20
0.9270851
11
-6.6305979
21
0.9528596
0
LINE
8
layer1
10
-6.6305979
20
0.9528596
11
-6.5789219
21
0.9633152
0
LINE
8
layer1
10
-6.5789219
20
0.9633152
11
-6.5339163
21
0.9762216
0
LINE
8
layer1
10
-6.5339163
20
0.9762216
11
-6.4956512
21
0.9912943
0
LINE
8
layer1
10
-6.4956512
20
0.9912943
11
-6.4641945
21
1.0082692
0
LINE
8
layer1
10
-6.4641945
20
1.0082692
11
-6.4396075
21
1.0268509
0
LINE
8
layer1
10
-6.4396075
20
1.0268509
11
-6.4219482
21
1.0467742
0
LINE
8
layer1
10
-6.4219482
20
1.0467742
11
-6.4112569
21
1.0677516
0
LINE
8
layer1
10
-6.4112569
20
1.0677516
11
-6.4040014
21
1.1324777
0
LINE
8
layer1
10
-6.4040014
20
1.1324777
11
-6.3735804
21
1.4581721
0
LINE
8
layer1
10
-6.3735804
20
1.4581721
11
-6.335621
21
1.7830741
0
LINE
8
layer1
10
-6.335621
20
1.7830741
11
-6.3292606
21
1.8478943
0
LINE
8
layer1
10
-6.3292606
20
1.8478943
11
-6.3353568
21
1.8706361
0
LINE
8
layer1
10
-6.3353568
20
1.8706361
11
-6.3484879
21
1.8937956
0
LINE
8
layer1
10
-6.3484879
20
1.8937956
11
-6.3686743
21
1.9170832
0
LINE
8
layer1
10
-6.3686743
20
1.9170832
11
-6.3959143
21
1.9402273
0
LINE
8
layer1
10
-6.3959143
20
1.9402273
11
-6.4302095
21
1.9629265
0
LINE
8
layer1
10
-6.4302095
20
1.9629265
11
-6.4715482
21
1.984908
0
LINE
8
layer1
10
-6.4715482
20
1.984908
11
-6.5199211
21
2.0058792
0
LINE
8
layer1
10
-6.5199211
20
2.0058792
11
-6.736216
21
2.0782044
0
LINE
8
layer1
10
-6.736216
20
2.0782044
11
-6.8608419
21
2.1262948
0
LINE
8
layer1
10
-6.8608419
20
2.1262948
11
-7.005634
21
2.1892546
0
LINE
8
layer1
10
-7.005634
20
2.1892546
11
-7.1687804
21
2.2684418
0
LINE
8
layer1
10
-7.1687804
20
2.2684418
11
-7.3503296
21
2.3660737
0
LINE
8
layer1
10
-7.3503296
20
2.3660737
11
-7.5497424
21
2.4843158
0
LINE
8
layer1
10
-7.5497424
20
2.4843158
11
-7.7648544
21
2.6243382
0
LINE
8
layer1
10
-7.7648544
20
2.6243382
11
-7.9951082
21
2.7883849
0
LINE
8
layer1
10
-7.9951082
20
2.7883849
11
-8.2228302
21
2.9651851
0
ARC
8
layer1
10
7.5000086
20
-0.0000027
40
16
50
166.6800306
51
169.3199632
0
LINE
8
layer1
10
-8.0695695
20
3.6862198
11
-7.7896241
21
3.7551119
0
LINE
8
layer1
10
-7.7896241
20
3.7551119
11
-7.5125529
21
3.8113234
0
LINE
8
layer1
10
-7.5125529
20
3.8113234
11
-7.259086
21
3.8517463
0
LINE
8
layer1
10
-7.259086
20
3.8517463
11
-7.02882
21
3.8786573
0
LINE
8
layer1
10
-7.02882
20
3.8786573
11
-6.8232561
21
3.8940058
0
LINE
8
layer1
10
-6.8232561
20
3.8940058
11
-6.6420061
21
3.8999893
0
LINE
8
layer1
10
-6.6420061
20
3.8999893
11
-6.4841239
21
3.8986137
0
LINE
8
layer1
10
-6.4841239
20
3.8986137
11
-6.3507123
21
3.8918565
0
LINE
8
layer1
10
-6.3507123
20
3.8918565
11
-6.1236998
21
3.8699538
0
LINE
8
layer1
10
-6.1236998
20
3.8699538
11
-6.0709792
21
3.8694369
0
LINE
8
layer1
10
-6.0709792
20
3.8694369
11
-6.0242737
21
3.872704
0
LINE
8
layer1
10
-6.0242737
20
3.872704
11
-5.9837109
21
3.8794917
0
LINE
8
layer1
10
-5.9837109
20
3.8794917
11
-5.9494124
21
3.8895554
0
LINE
8
layer1
10
-5.9494124
20
3.8895554
11
-5.9214993
21
3.9026191
0
LINE
8
layer1
10
-5.9214993
20
3.9026191
11
-5.9000836
21
3.9184354
0
LINE
8
layer1
10
-5.9000836
20
3.9184354
11
-5.8852645
21
3.9367316
0
LINE
8
layer1
10
-5.8852645
20
3.9367316
11
-5.8647103
21
3.9985348
0
LINE
8
layer1
10
-5.8647103
20
3.9985348
11
-5.7672384
21
4.3107871
0
LINE
8
layer1
10
-5.7672384
20
4.3107871
11
-5.6625575
21
4.620697
0
LINE
8
layer1
10
-5.6625575
20
4.620697
11
-5.6428592
21
4.6827783
0
LINE
8
layer1
10
-5.6428592
20
4.6827783
11
-5.644094
21
4.7062907
0
LINE
8
layer1
10
-5.644094
20
4.7062907
11
-5.652123
21
4.7316741
0
LINE
8
layer1
10
-5.652123
20
4.7316741
11
-5.6670265
21
4.7586498
0
LINE
8
layer1
10
-5.6670265
20
4.7586498
11
-5.6888593
21
4.7869517
0
LINE
8
layer1
10
-5.6888593
20
4.7869517
11
-5.7176856
21
4.8162853
0
LINE
8
layer1
10
-5.7176856
20
4.8162853
11
-5.7535508
21
4.8463812
0
LINE
8
layer1
10
-5.7535508
20
4.8463812
11
-5.7965065
21
4.8769515
0
LINE
8
layer1
10
-5.7965065
20
4.8769515
11
-5.9930375
21
4.9926664
0
LINE
8
layer1
10
-5.9930375
20
4.9926664
11
-6.1049415
21
5.0656171
0
LINE
8
layer1
10
-6.1049415
20
5.0656171
11
-6.2334794
21
5.157305
0
LINE
8
layer1
10
-6.2334794
20
5.157305
11
-6.3765968
21
5.2686819
0
LINE
8
layer1
10
-6.3765968
20
5.2686819
11
-6.5338799
21
5.4019265
0
LINE
8
layer1
10
-6.5338799
20
5.4019265
11
-6.7043511
21
5.5590449
0
LINE
8
layer1
10
-6.7043511
20
5.5590449
11
-6.8856502
21
5.7407318
0
LINE
8
layer1
10
-6.8856502
20
5.7407318
11
-7.0767651
21
5.9490662
0
LINE
8
layer1
10
-7.0767651
20
5.9490662
11
-7.262752
21
6.1693489
0
ARC
8
layer1
10
7.5000082
20
-0.0000037
40
16
50
154.6800335
51
157.3199662
0
LINE
8
layer1
10
-6.9629289
20
6.8427626
11
-6.6747774
21
6.8519453
0
LINE
8
layer1
10
-6.6747774
20
6.8519453
11
-6.3920739
21
6.8493221
0
LINE
8
layer1
10
-6.3920739
20
6.8493221
11
-6.1357415
21
6.8361629
0
LINE
8
layer1
10
-6.1357415
20
6.8361629
11
-5.9049123
21
6.8146109
0
LINE
8
layer1
10
-5.9049123
20
6.8146109
11
-5.7006493
21
6.7868848
0
LINE
8
layer1
10
-5.7006493
20
6.7868848
11
-5.522116
21
6.7550535
0
LINE
8
layer1
10
-5.522116
20
6.7550535
11
-5.3679698
21
6.7208824
0
LINE
8
layer1
10
-5.3679698
20
6.7208824
11
-5.2388786
21
6.6865351
0
LINE
8
layer1
10
-5.2388786
20
6.6865351
11
-5.0213807
21
6.6179125
0
LINE
8
layer1
10
-5.0213807
20
6.6179125
11
-4.9699196
21
6.6064457
0
LINE
8
layer1
10
-4.9699196
20
6.6064457
11
-4.9235554
21
6.5999308
0
LINE
8
layer1
10
-4.9235554
20
6.5999308
11
-4.8824678
21
6.5981366
0
LINE
8
layer1
10
-4.8824678
20
6.5981366
11
-4.8468264
21
6.6008493
0
LINE
8
layer1
10
-4.8468264
20
6.6008493
11
-4.8168072
21
6.6078242
0
LINE
8
layer1
10
-4.8168072
20
6.6078242
11
-4.7925711
21
6.6188423
0
LINE
8
layer1
10
-4.7925711
20
6.6188423
11
-4.7742719
21
6.6336575
0
LINE
8
layer1
10
-4.7742719
20
6.6336575
11
-4.7413171
21
6.6898368
0
LINE
8
layer1
10
-4.7413171
20
6.6898368
11
-4.5810544
21
6.975
0
LINE
8
layer1
10
-4.5810544
20
6.975
11
-4.4142271
21
7.2563732
0
LINE
8
layer1
10
-4.4142271
20
7.2563732
11
-4.3820519
21
7.3130025
0
LINE
8
layer1
10
-4.3820519
20
7.3130025
11
-4.3783711
21
7.3362577
0
LINE
8
layer1
10
-4.3783711
20
7.3362577
11
-4.3809472
21
7.3627558
0
LINE
8
layer1
10
-4.3809472
20
7.3627558
11
-4.3899164
21
7.3922407
0
LINE
8
layer1
10
-4.3899164
20
7.3922407
11
-4.4053878
21
7.4244634
0
LINE
8
layer1
10
-4.4053878
20
7.4244634
11
-4.4274854
21
7.4591492
0
LINE
8
layer1
10
-4.4274854
20
7.4591492
11
-4.4563096
21
7.4960443
0
LINE
8
layer1
10
-4.4563096
20
7.4960443
11
-4.4919707
21
7.5348775
0
LINE
8
layer1
10
-4.4919707
20
7.5348775
11
-4.6601486
21
7.6889249
0
LINE
8
layer1
10
-4.6601486
20
7.6889249
11
-4.7544398
21
7.7835476
0
LINE
8
layer1
10
-4.7544398
20
7.7835476
11
-4.861106
21
7.8999565
0
LINE
8
layer1
10
-4.861106
20
7.8999565
11
-4.9779393
21
8.0386552
0
LINE
8
layer1
10
-4.9779393
20
8.0386552
11
-5.1040823
21
8.2016891
0
LINE
8
layer1
10
-5.1040823
20
8.2016891
11
-5.2381615
21
8.3908171
0
LINE
8
layer1
10
-5.2381615
20
8.3908171
11
-5.3777239
21
8.6062279
0
LINE
8
layer1
10
-5.3777239
20
8.6062279
11
-5.5213474
21
8.8497447
0
LINE
8
layer1
10
-5.5213474
20
8.8497447
11
-5.6574707
21
9.1038825
0
ARC
8
layer1
10
7.5000077
20
-0.0000046
40
16
50
142.6800367
51
145.3199694
0
LINE
8
layer1
10
-5.2241889
20
9.7002438
11
-4.940425
21
9.6493158
0
LINE
8
layer1
10
-4.940425
20
9.6493158
11
-4.6644446
21
9.5879726
0
LINE
8
layer1
10
-4.6644446
20
9.5879726
11
-4.4164496
21
9.5218064
0
LINE
8
layer1
10
-4.4164496
20
9.5218064
11
-4.1951455
21
9.4527333
0
LINE
8
layer1
10
-4.1951455
20
9.4527333
11
-4.0011107
21
9.3831444
0
LINE
8
layer1
10
-4.0011107
20
9.3831444
11
-3.8330969
21
9.3148896
0
LINE
8
layer1
10
-3.8330969
20
9.3148896
11
-3.6894238
21
9.2494164
0
LINE
8
layer1
10
-3.6894238
20
9.2494164
11
-3.5702947
21
9.1889801
0
LINE
8
layer1
10
-3.5702947
20
9.1889801
11
-3.3718171
21
9.0766367
0
LINE
8
layer1
10
-3.3718171
20
9.0766367
11
-3.3238646
21
9.0547211
0
LINE
8
layer1
10
-3.3238646
20
9.0547211
11
-3.2798682
21
9.0387089
0
LINE
8
layer1
10
-3.2798682
20
9.0387089
11
-3.2400515
21
9.0284113
0
LINE
8
layer1
10
-3.2400515
20
9.0284113
11
-3.2046249
21
9.0236545
0
LINE
8
layer1
10
-3.2046249
20
9.0236545
11
-3.1738115
21
9.0242356
0
LINE
8
layer1
10
-3.1738115
20
9.0242356
11
-3.1478143
21
9.0299739
0
LINE
8
layer1
10
-3.1478143
20
9.0299739
11
-3.1268346
21
9.0406608
0
LINE
8
layer1
10
-3.1268346
20
9.0406608
11
-3.0829197
21
9.0887607
0
LINE
8
layer1
10
-3.0829197
20
9.0887607
11
-2.8668703
21
9.334372
0
LINE
8
layer1
10
-2.8668703
20
9.334372
11
-2.6451879
21
9.5749112
0
LINE
8
layer1
10
-2.6451879
20
9.5749112
11
-2.6019418
21
9.6236133
0
LINE
8
layer1
10
-2.6019418
20
9.6236133
11
-2.5935065
21
9.6455951
0
LINE
8
layer1
10
-2.5935065
20
9.6455951
11
-2.590517
21
9.6720498
0
LINE
8
layer1
10
-2.590517
20
9.6720498
11
-2.59316
21
9.7027551
0
LINE
8
layer1
10
-2.59316
20
9.7027551
11
-2.6015938
21
9.7374904
0
LINE
8
layer1
10
-2.6015938
20
9.7374904
11
-2.6159969
21
9.7760126
0
LINE
8
layer1
10
-2.6159969
20
9.7760126
11
-2.6365203
21
9.8180943
0
LINE
8
layer1
10
-2.6365203
20
9.8180943
11
-2.6633282
21
9.8634933
0
LINE
8
layer1
10
-2.6633282
20
9.8634933
11
-2.7958028
21
10.0491405
0
LINE
8
layer1
10
-2.7958028
20
10.0491405
11
-2.8683604
21
10.1612997
0
LINE
8
layer1
10
-2.8683604
20
10.1612997
11
-2.9484928
21
10.2973419
0
LINE
8
layer1
10
-2.9484928
20
10.2973419
11
-3.033936
21
10.4573008
0
LINE
8
layer1
10
-3.033936
20
10.4573008
11
-3.1234258
21
10.6429986
0
LINE
8
layer1
10
-3.1234258
20
10.6429986
11
-3.2152531
21
10.8558703
0
LINE
8
layer1
10
-3.2152531
20
10.8558703
11
-3.3069794
21
11.0955905
0
LINE
8
layer1
10
-3.3069794
20
11.0955905
11
-3.3968344
21
11.3636469
0
LINE
8
layer1
10
-3.3968344
20
11.3636469
11
-3.4771448
21
11.6405328
0
ARC
8
layer1
10
7.5000067
20
-0.0000061
40
16
50
130.6800372
51
133.3199697
0
LINE
8
layer1
10
-2.9293407
20
12.1337778
11
-2.6623663
21
12.0249649
0
LINE
8
layer1
10
-2.6623663
20
12.0249649
11
-2.4051707
21
11.9075826
0
LINE
8
layer1
10
-2.4051707
20
11.9075826
11
-2.1763518
21
11.7913013
0
LINE
8
layer1
10
-2.1763518
20
11.7913013
11
-1.9742448
21
11.6777258
0
LINE
8
layer1
10
-1.9742448
20
11.6777258
11
-1.7989184
21
11.5693155
0
LINE
8
layer1
10
-1.7989184
20
11.5693155
11
-1.6487671
21
11.4676202
0
LINE
8
layer1
10
-1.6487671
20
11.4676202
11
-1.5218462
21
11.3737065
0
LINE
8
layer1
10
-1.5218462
20
11.3737065
11
-1.4178858
21
11.2898225
0
LINE
8
layer1
10
-1.4178858
20
11.2898225
11
-1.2471029
21
11.1386682
0
LINE
8
layer1
10
-1.2471029
20
11.1386682
11
-1.2047549
21
11.1072617
0
LINE
8
layer1
10
-1.2047549
20
11.1072617
11
-1.1650489
21
11.082452
0
LINE
8
layer1
10
-1.1650489
20
11.082452
11
-1.1282433
21
11.0641011
0
LINE
8
layer1
10
-1.1282433
20
11.0641011
11
-1.0945799
21
11.0520827
0
LINE
8
layer1
10
-1.0945799
20
11.0520827
11
-1.064319
21
11.0462446
0
LINE
8
layer1
10
-1.064319
20
11.0462446
11
-1.0376968
21
11.0464524
0
LINE
8
layer1
10
-1.0376968
20
11.0464524
11
-1.0149537
21
11.0525438
0
LINE
8
layer1
10
-1.0149537
20
11.0525438
11
-0.9619979
21
11.0904622
0
LINE
8
layer1
10
-0.9619979
20
11.0904622
11
-0.6996043
21
11.2857871
0
LINE
8
layer1
10
-0.6996043
20
11.2857871
11
-0.4327552
21
11.4749796
0
LINE
8
layer1
10
-0.4327552
20
11.4749796
11
-0.3803284
21
11.5136261
0
LINE
8
layer1
10
-0.3803284
20
11.5136261
11
-0.3675071
21
11.5333737
0
LINE
8
layer1
10
-0.3675071
20
11.5333737
11
-0.3590827
21
11.5586287
0
LINE
8
layer1
10
-0.3590827
20
11.5586287
11
-0.355284
21
11.5892126
0
LINE
8
layer1
10
-0.355284
20
11.5892126
11
-0.3563117
21
11.6249423
0
LINE
8
layer1
10
-0.3563117
20
11.6249423
11
-0.3623908
21
11.6656173
0
LINE
8
layer1
10
-0.3623908
20
11.6656173
11
-0.3737164
21
11.7110465
0
LINE
8
layer1
10
-0.3737164
20
11.7110465
11
-0.3904996
21
11.761027
0
LINE
8
layer1
10
-0.3904996
20
11.761027
11
-0.481481
21
11.9701604
0
LINE
8
layer1
10
-0.481481
20
11.9701604
11
-0.5291339
21
12.0949542
0
LINE
8
layer1
10
-0.5291339
20
12.0949542
11
-0.5792304
21
12.2446841
0
LINE
8
layer1
10
-0.5792304
20
12.2446841
11
-0.6295491
21
12.4189121
0
LINE
8
layer1
10
-0.6295491
20
12.4189121
11
-0.6784746
21
12.619158
0
LINE
8
layer1
10
-0.6784746
20
12.619158
11
-0.7240368
21
12.8464699
0
LINE
8
layer1
10
-0.7240368
20
12.8464699
11
-0.763918
21
13.1000226
0
LINE
8
layer1
10
-0.763918
20
13.1000226
11
-0.7960773
21
13.3809032
0
LINE
8
layer1
10
-0.7960773
20
13.3809032
11
-0.8170649
21
13.668436
0
ARC
8
layer1
10
7.5000042
20
-0.000008
40
16
50
118.6800323
51
121.3199649
0
LINE
8
layer1
10
-0.1786803
20
14.0370075
11
0.0598366
21
13.8750653
0
LINE
8
layer1
10
0.0598366
20
13.8750653
11
0.2870066
21
13.7067742
0
LINE
8
layer1
10
0.2870066
20
13.7067742
11
0.4866491
21
13.5454597
0
LINE
8
layer1
10
0.4866491
20
13.5454597
11
0.6607259
21
13.3923457
0
LINE
8
layer1
10
0.6607259
20
13.3923457
11
0.8096812
21
13.2498521
0
LINE
8
layer1
10
0.8096812
20
13.2498521
11
0.9354077
21
13.1191608
0
LINE
8
layer1
10
0.9354077
20
13.1191608
11
1.0400293
21
13.000911
0
LINE
8
layer1
10
1.0400293
20
13.000911
11
1.1242775
21
12.8972455
0
LINE
8
layer1
10
1.1242775
20
12.8972455
11
1.2599016
21
12.7138866
0
LINE
8
layer1
10
1.2599016
20
12.7138866
11
1.2947945
21
12.6743617
0
LINE
8
layer1
10
1.2947945
20
12.6743617
11
1.3284745
21
12.6418388
0
LINE
8
layer1
10
1.3284745
20
12.6418388
11
1.3606605
21
12.6162366
0
LINE
8
layer1
10
1.3606605
20
12.6162366
11
1.3910895
21
12.5974818
0
LINE
8
layer1
10
1.3910895
20
12.5974818
11
1.4194753
21
12.5854797
0
LINE
8
layer1
10
1.4194753
20
12.5854797
11
1.4455589
21
12.5801479
0
LINE
8
layer1
10
1.4455589
20
12.5801479
11
1.4690715
21
12.5813776
0
LINE
8
layer1
10
1.4690715
20
12.5813776
11
1.5287538
21
12.6074573
0
LINE
8
layer1
10
1.5287538
20
12.6074573
11
1.8260238
21
12.7439591
0
LINE
8
layer1
10
1.8260238
20
12.7439591
11
2.1263769
21
12.8735363
0
LINE
8
layer1
10
2.1263769
20
12.8735363
11
2.1856931
21
12.9004381
0
LINE
8
layer1
10
2.1856931
20
12.9004381
11
2.20234
21
12.9170885
0
LINE
8
layer1
10
2.20234
20
12.9170885
11
2.2158311
21
12.9400401
0
LINE
8
layer1
10
2.2158311
20
12.9400401
11
2.2259056
21
12.9691658
0
LINE
8
layer1
10
2.2259056
20
12.9691658
11
2.232329
21
13.0043285
0
LINE
8
layer1
10
2.232329
20
13.0043285
11
2.2348395
21
13.0453785
0
LINE
8
layer1
10
2.2348395
20
13.0453785
11
2.2332066
21
13.0921697
0
LINE
8
layer1
10
2.2332066
20
13.0921697
11
2.2271818
21
13.1445475
0
LINE
8
layer1
10
2.2271818
20
13.1445475
11
2.1816698
21
13.3680269
0
LINE
8
layer1
10
2.1816698
20
13.3680269
11
2.1610044
21
13.5000013
0
LINE
8
layer1
10
2.1610044
20
13.5000013
11
2.1431331
21
13.6568748
0
LINE
8
layer1
10
2.1431331
20
13.6568748
11
2.1301381
21
13.8377574
0
LINE
8
layer1
10
2.1301381
20
13.8377574
11
2.1239152
21
14.0437996
0
LINE
8
layer1
10
2.1239152
20
14.0437996
11
2.1266094
21
14.2756171
0
LINE
8
layer1
10
2.1266094
20
14.2756171
11
2.1403163
21
14.5319208
0
LINE
8
layer1
10
2.1403163
20
14.5319208
11
2.1672581
21
14.8133498
0
LINE
8
layer1
10
2.1672581
20
14.8133498
11
2.2065105
21
15.0989629
0
ARC
8
layer1
10
7.5000022
20
-0.0000088
40
16
50
106.6800316
51
109.3199641
0
LINE
8
layer1
10
2.9075752
20
15.3267526
11
3.1072103
21
15.1187588
0
LINE
8
layer1
10
3.1072103
20
15.1187588
11
3.2944264
21
14.9069139
0
LINE
8
layer1
10
3.2944264
20
14.9069139
11
3.4561671
21
14.7076166
0
LINE
8
layer1
10
3.4561671
20
14.7076166
11
3.5946057
21
14.5216559
0
LINE
8
layer1
10
3.5946057
20
14.5216559
11
3.7106799
21
14.3513065
0
LINE
8
layer1
10
3.7106799
20
14.3513065
11
3.8064867
21
14.1973312
0
LINE
8
layer1
10
3.8064867
20
14.1973312
11
3.8842365
21
14.0599133
0
LINE
8
layer1
10
3.8842365
20
14.0599133
11
3.9450904
21
13.940997
0
LINE
8
layer1
10
3.9450904
20
13.940997
11
4.0396284
21
13.7334471
0
LINE
8
layer1
10
4.0396284
20
13.7334471
11
4.0655411
21
13.6875312
0
LINE
8
layer1
10
4.0655411
20
13.6875312
11
4.0917232
21
13.6487166
0
LINE
8
layer1
10
4.0917232
20
13.6487166
11
4.1178829
21
13.616982
0
LINE
8
layer1
10
4.1178829
20
13.616982
11
4.1437476
21
13.5923105
0
LINE
8
layer1
10
4.1437476
20
13.5923105
11
4.1690177
21
13.5746689
0
LINE
8
layer1
10
4.1690177
20
13.5746689
11
4.1934228
21
13.5640306
0
LINE
8
layer1
10
4.1934228
20
13.5640306
11
4.2166773
21
13.5603449
0
LINE
8
layer1
10
4.2166773
20
13.5603449
11
4.2804776
21
13.573446
0
LINE
8
layer1
10
4.2804776
20
13.573446
11
4.5996319
21
13.645159
0
LINE
8
layer1
10
4.5996319
20
13.645159
11
4.9203622
21
13.7094577
0
LINE
8
layer1
10
4.9203622
20
13.7094577
11
4.9839754
21
13.7234391
0
LINE
8
layer1
10
4.9839754
20
13.7234391
11
5.0037203
21
13.7362646
0
LINE
8
layer1
10
5.0037203
20
13.7362646
11
5.0216885
21
13.7559097
0
LINE
8
layer1
10
5.0216885
20
13.7559097
11
5.0375984
21
13.7823043
0
LINE
8
layer1
10
5.0375984
20
13.7823043
11
5.0511922
21
13.8153631
0
LINE
8
layer1
10
5.0511922
20
13.8153631
11
5.0621826
21
13.8549941
0
LINE
8
layer1
10
5.0621826
20
13.8549941
11
5.0703138
21
13.9011023
0
LINE
8
layer1
10
5.0703138
20
13.9011023
11
5.0753106
21
13.9535881
0
LINE
8
layer1
10
5.0753106
20
13.9535881
11
5.0772572
21
14.1816464
0
LINE
8
layer1
10
5.0772572
20
14.1816464
11
5.0844823
21
14.3150335
0
LINE
8
layer1
10
5.0844823
20
14.3150335
11
5.0996174
21
14.4721946
0
LINE
8
layer1
10
5.0996174
20
14.4721946
11
5.124514
21
14.6518262
0
LINE
8
layer1
10
5.124514
20
14.6518262
11
5.1612656
21
14.8546597
0
LINE
8
layer1
10
5.1612656
20
14.8546597
11
5.2120986
21
15.0808513
0
LINE
8
layer1
10
5.2120986
20
15.0808513
11
5.2787945
21
15.3287044
0
LINE
8
layer1
10
5.2787945
20
15.3287044
11
5.3636599
21
15.598382
0
LINE
8
layer1
10
5.3636599
20
15.598382
11
5.4614369
21
15.8695927
0
ARC
8
layer1
10
7.5000003
20
-0.000009
40
16
50
94.6800313
51
97.3199639
0
LINE
8
layer1
10
6.1945418
20
15.9466451
11
6.34657
21
15.70169
0
LINE
8
layer1
10
6.34657
20
15.70169
11
6.48565
21
15.45555
0
LINE
8
layer1
10
6.48565
20
15.45555
11
6.60242
21
15.22698
0
LINE
8
layer1
10
6.60242
20
15.22698
11
6.69917
21
15.0163
0
LINE
8
layer1
10
6.69917
20
15.0163
11
6.77729
21
14.82554
0
LINE
8
layer1
10
6.77729
20
14.82554
11
6.83899
21
14.65501
0
LINE
8
layer1
10
6.83899
20
14.65501
11
6.88647
21
14.50443
0
LINE
8
layer1
10
6.88647
20
14.50443
11
6.92127
21
14.37546
0
LINE
8
layer1
10
6.92127
20
14.37546
11
6.97059
21
14.15279
0
LINE
8
layer1
10
6.97059
20
14.15279
11
6.98639
21
14.10249
0
LINE
8
layer1
10
6.98639
20
14.10249
11
7.00393
21
14.05908
0
LINE
8
layer1
10
7.00393
20
14.05908
11
7.02292
21
14.0226
0
LINE
8
layer1
10
7.02292
20
14.0226
11
7.04309
21
13.99309
0
LINE
8
layer1
10
7.04309
20
13.99309
11
7.06414
21
13.97058
0
LINE
8
layer1
10
7.06414
20
13.97058
11
7.0858
21
13.9551
0
LINE
8
layer1
10
7.0858
20
13.9551
11
7.10778
21
13.94666
0
LINE
8
layer1
10
7.10778
20
13.94666
11
7.17291
21
13.94621
0
LINE
8
layer1
10
7.17291
20
13.94621
11
7.5
21
13.95
0
LINE
8
layer1
10
7.5
20
13.95
11
7.82709
21
13.94621
0
LINE
8
layer1
10
7.82709
20
13.94621
11
7.89222
21
13.94666
0
LINE
8
layer1
10
7.89222
20
13.94666
11
7.9142
21
13.9551
0
LINE
8
layer1
10
7.9142
20
13.9551
11
7.93586
21
13.97058
0
LINE
8
layer1
10
7.93586
20
13.97058
11
7.95691
21
13.99309
0
LINE
8
layer1
10
7.95691
20
13.99309
11
7.97708
21
14.0226
0
LINE
8
layer1
10
7.97708
20
14.0226
11
7.99607
21
14.05908
0
LINE
8
layer1
10
7.99607
20
14.05908
11
8.01361
21
14.10249
0
LINE
8
layer1
10
8.01361
20
14.10249
11
8.02941
21
14.15279
0
LINE
8
layer1
10
8.02941
20
14.15279
11
8.07873
21
14.37546
0
LINE
8
layer1
10
8.07873
20
14.37546
11
8.11353
21
14.50443
0
LINE
8
layer1
10
8.11353
20
14.50443
11
8.16101
21
14.65501
0
LINE
8
layer1
10
8.16101
20
14.65501
11
8.22271
21
14.82554
0
LINE
8
layer1
10
8.22271
20
14.82554
11
8.30083
21
15.0163
0
LINE
8
layer1
10
8.30083
20
15.0163
11
8.39758
21
15.22698
0
LINE
8
layer1
10
8.39758
20
15.22698
11
8.51435
21
15.45555
0
LINE
8
layer1
10
8.51435
20
15.45555
11
8.65343
21
15.70169
0
LINE
8
layer1
10
8.65343
20
15.70169
11
8.8054582
21
15.9466451
0
ARC
8
layer1
10
7.4999997
20
-0.000009
40
16
50
82.6800361
51
85.3199687
0
LINE
8
layer1
10
9.5385631
20
15.8695927
11
9.6363401
21
15.598382
0
LINE
8
layer1
10
9.6363401
20
15.598382
11
9.7212055
21
15.3287044
0
LINE
8
layer1
10
9.7212055
20
15.3287044
11
9.7879014
21
15.0808513
0
LINE
8
layer1
10
9.7879014
20
15.0808513
11
9.8387344
21
14.8546597
0
LINE
8
layer1
10
9.8387344
20
14.8546597
11
9.875486
21
14.6518262
0
LINE
8
layer1
10
9.875486
20
14.6518262
11
9.9003826
21
14.4721946
0
LINE
8
layer1
10
9.9003826
20
14.4721946
11
9.9155177
21
14.3150335
0
LINE
8
layer1
10
9.9155177
20
14.3150335
11
9.9227428
21
14.1816464
0
LINE
8
layer1
10
9.9227428
20
14.1816464
11
9.9246894
21
13.9535881
0
LINE
8
layer1
10
9.9246894
20
13.9535881
11
9.9296862
21
13.9011023
0
LINE
8
layer1
10
9.9296862
20
13.9011023
11
9.9378174
21
13.8549941
0
LINE
8
layer1
10
9.9378174
20
13.8549941
11
9.9488078
21
13.8153631
0
LINE
8
layer1
10
9.9488078
20
13.8153631
11
9.9624016
21
13.7823043
0
LINE
8
layer1
10
9.9624016
20
13.7823043
11
9.9783115
21
13.7559097
0
LINE
8
layer1
10
9.9783115
20
13.7559097
11
9.9962797
21
13.7362646
0
LINE
8
layer1
10
9.9962797
20
13.7362646
11
10.0160246
21
13.7234391
0
LINE
8
layer1
10
10.0160246
20
13.7234391
11
10.0796378
21
13.7094577
0
LINE
8
layer1
10
10.0796378
20
13.7094577
11
10.4003681
21
13.645159
0
LINE
8
layer1
10
10.4003681
20
13.645159
11
10.7195224
21
13.573446
0
LINE
8
layer1
10
10.7195224
20
13.573446
11
10.7833227
21
13.5603449
0
LINE
8
layer1
10
10.7833227
20
13.5603449
11
10.8065772
21
13.5640306
0
LINE
8
layer1
10
10.8065772
20
13.5640306
11
10.8309823
21
13.5746689
0
LINE
8
layer1
10
10.8309823
20
13.5746689
11
10.8562524
21
13.5923105
0
LINE
8
layer1
10
10.8562524
20
13.5923105
11
10.8821171
21
13.616982
0
LINE
8
layer1
10
10.8821171
20
13.616982
11
10.9082768
21
13.6487166
0
LINE
8
layer1
10
10.9082768
20
13.6487166
11
10.9344589
21
13.6875312
0
LINE
8
layer1
10
10.9344589
20
13.6875312
11
10.9603716
21
13.7334471
0
LINE
8
layer1
10
10.9603716
20
13.7334471
11
11.0549096
21
13.940997
0
LINE
8
layer1
10
11.0549096
20
13.940997
11
11.1157635
21
14.0599133
0
LINE
8
layer1
10
11.1157635
20
14.0599133
11
11.1935133
21
14.1973312
0
LINE
8
layer1
10
11.1935133
20
14.1973312
11
11.2893201
21
14.3513065
0
LINE
8
layer1
10
11.2893201
20
14.3513065
11
11.4053943
21
14.5216559
0
LINE
8
layer1
10
11.4053943
20
14.5216559
11
11.5438329
21
14.7076166
0
LINE
8
layer1
10
11.5438329
20
14.7076166
11
11.7055736
21
14.9069139
0
LINE
8
layer1
10
11.7055736
20
14.9069139
11
11.8927897
21
15.1187588
0
LINE
8
layer1
10
11.8927897
20
15.1187588
11
12.0924248
21
15.3267526
0
ARC
8
layer1
10
7.4999978
20
-0.0000088
40
16
50
70.6800359
51
73.3199684
0
LINE
8
layer1
10
12.7934895
20
15.0989629
11
12.8327419
21
14.8133498
0
LINE
8
layer1
10
12.8327419
20
14.8133498
11
12.8596837
21
14.5319208
0
LINE
8
layer1
10
12.8596837
20
14.5319208
11
12.8733906
21
14.2756171
0
LINE
8
layer1
10
12.8733906
20
14.2756171
11
12.8760848
21
14.0437996
0
LINE
8
layer1
10
12.8760848
20
14.0437996
11
12.8698619
21
13.8377574
0
LINE
8
layer1
10
12.8698619
20
13.8377574
11
12.8568669
21
13.6568748
0
LINE
8
layer1
10
12.8568669
20
13.6568748
11
12.8389956
21
13.5000013
0
LINE
8
layer1
10
12.8389956
20
13.5000013
11
12.8183302
21
13.3680269
0
LINE
8
layer1
10
12.8183302
20
13.3680269
11
12.7728182
21
13.1445475
0
LINE
8
layer1
10
12.7728182
20
13.1445475
11
12.7667934
21
13.0921697
0
LINE
8
layer1
10
12.7667934
20
13.0921697
11
12.7651605
21
13.0453785
0
LINE
8
layer1
10
12.7651605
20
13.0453785
11
12.767671
21
13.0043285
0
LINE
8
layer1
10
12.767671
20
13.0043285
11
12.7740944
21
12.9691658
0
LINE
8
layer1
10
12.7740944
20
12.9691658
11
12.7841689
21
12.9400401
0
LINE
8
layer1
10
12.7841689
20
12.9400401
11
12.79766
21
12.9170885
0
LINE
8
layer1
10
12.79766
20
12.9170885
11
12.8143069
21
12.9004381
0
LINE
8
layer1
10
12.8143069
20
12.9004381
11
12.8736231
21
12.8735363
0
LINE
8
layer1
10
12.8736231
20
12.8735363
11
13.1739762
21
12.7439591
0
LINE
8
layer1
10
13.1739762
20
12.7439591
11
13.4712462
21
12.6074573
0
LINE
8
layer1
10
13.4712462
20
12.6074573
11
13.5309285
21
12.5813776
0
LINE
8
layer1
10
13.5309285
20
12.5813776
11
13.5544411
21
12.5801479
0
LINE
8
layer1
10
13.5544411
20
12.5801479
11
13.5805247
21
12.5854797
0
LINE
8
layer1
10
13.5805247
20
12.5854797
11
13.6089105
21
12.5974818
0
LINE
8
layer1
10
13.6089105
20
12.5974818
11
13.6393395
21
12.6162366
0
LINE
8
layer1
10
13.6393395
20
12.6162366
11
13.6715255
21
12.6418388
0
LINE
8
layer1
10
13.6715255
20
12.6418388
11
13.7052055
21
12.6743617
0
LINE
8
layer1
10
13.7052055
20
12.6743617
11
13.7400984
21
12.7138866
0
LINE
8
layer1
10
13.7400984
20
12.7138866
11
13.8757225
21
12.8972455
0
LINE
8
layer1
10
13.8757225
20
12.8972455
11
13.9599707
21
13.000911
0
LINE
8
layer1
10
13.9599707
20
13.000911
11
14.0645923
21
13.1191608
0
LINE
8
layer1
10
14.0645923
20
13.1191608
11
14.1903188
21
13.2498521
0
LINE
8
layer1
10
14.1903188
20
13.2498521
11
14.3392741
21
13.3923457
0
LINE
8
layer1
10
14.3392741
20
13.3923457
11
14.5133509
21
13.5454597
0
LINE
8
layer1
10
14.5133509
20
13.5454597
11
14.7129934
21
13.7067742
0
LINE
8
layer1
10
14.7129934
20
13.7067742
11
14.9401634
21
13.8750653
0
LINE
8
layer1
10
14.9401634
20
13.8750653
11
15.1786803
21
14.0370075
0
ARC
8
layer1
10
7.4999958
20
-0.000008
40
16
50
58.6800351
51
61.3199677
0
LINE
8
layer1
10
15.8170649
20
13.668436
11
15.7960773
21
13.3809032
0
LINE
8
layer1
10
15.7960773
20
13.3809032
11
15.763918
21
13.1000226
0
LINE
8
layer1
10
15.763918
20
13.1000226
11
15.7240368
21
12.8464699
0
LINE
8
layer1
10
15.7240368
20
12.8464699
11
15.6784746
21
12.619158
0
LINE
8
layer1
10
15.6784746
20
12.619158
11
15.6295491
21
12.4189121
0
LINE
8
layer1
10
15.6295491
20
12.4189121
11
15.5792304
21
12.2446841
0
LINE
8
layer1
10
15.5792304
20
12.2446841
11
15.5291339
21
12.0949542
0
LINE
8
layer1
10
15.5291339
20
12.0949542
11
15.481481
21
11.9701604
0
LINE
8
layer1
10
15.481481
20
11.9701604
11
15.3904996
21
11.761027
0
LINE
8
layer1
10
15.3904996
20
11.761027
11
15.3737164
21
11.7110465
0
LINE
8
layer1
10
15.3737164
20
11.7110465
11
15.3623908
21
11.6656173
0
LINE
8
layer1
10
15.3623908
20
11.6656173
11
15.3563117
21
11.6249423
0
LINE
8
layer1
10
15.3563117
20
11.6249423
11
15.355284
21
11.5892126
0
LINE
8
layer1
10
15.355284
20
11.5892126
11
15.3590827
21
11.5586287
0
LINE
8
layer1
10
15.3590827
20
11.5586287
11
15.3675071
21
11.5333737
0
LINE
8
layer1
10
15.3675071
20
11.5333737
11
15.3803284
21
11.5136261
0
LINE
8
layer1
10
15.3803284
20
11.5136261
11
15.4327552
21
11.4749796
0
LINE
8
layer1
10
15.4327552
20
11.4749796
11
15.6996043
21
11.2857871
0
LINE
8
layer1
10
15.6996043
20
11.2857871
11
15.9619979
21
11.0904622
0
LINE
8
layer1
10
15.9619979
20
11.0904622
11
16.0149537
21
11.0525438
0
LINE
8
layer1
10
16.0149537
20
11.0525438
11
16.0376968
21
11.0464524
0
LINE
8
layer1
10
16.0376968
20
11.0464524
11
16.064319
21
11.0462446
0
LINE
8
layer1
10
16.064319
20
11.0462446
11
16.0945799
21
11.0520827
0
LINE
8
layer1
10
16.0945799
20
11.0520827
11
16.1282433
21
11.0641011
0
LINE
8
layer1
10
16.1282433
20
11.0641011
11
16.1650489
21
11.082452
0
LINE
8
layer1
10
16.1650489
20
11.082452
11
16.2047549
21
11.1072617
0
LINE
8
layer1
10
16.2047549
20
11.1072617
11
16.2471029
21
11.1386682
0
LINE
8
layer1
10
16.2471029
20
11.1386682
11
16.4178858
21
11.2898225
0
LINE
8
layer1
10
16.4178858
20
11.2898225
11
16.5218462
21
11.3737065
0
LINE
8
layer1
10
16.5218462
20
11.3737065
11
16.6487671
21
11.4676202
0
LINE
8
layer1
10
16.6487671
20
11.4676202
11
16.7989184
21
11.5693155
0
LINE
8
layer1
10
16.7989184
20
11.5693155
11
16.9742448
21
11.6777258
0
LINE
8
layer1
10
16.9742448
20
11.6777258
11
17.1763518
21
11.7913013
0
LINE
8
layer1
10
17.1763518
20
11.7913013
11
17.4051707
21
11.9075826
0
LINE
8
layer1
10
17.4051707
20
11.9075826
11
17.6623663
21
12.0249649
0
LINE
8
layer1
10
17.6623663
20
12.0249649
11
17.9293407
21
12.1337778
0
ARC
8
layer1
10
7.4999932
20
-0.000006
40
16
50
46.68003
51
49.3199626
0
LINE
8
layer1
10
18.4771448
20
11.6405328
11
18.3968344
21
11.3636469
0
LINE
8
layer1
10
18.3968344
20
11.3636469
11
18.3069794
21
11.0955905
0
LINE
8
layer1
10
18.3069794
20
11.0955905
11
18.2152531
21
10.8558703
0
LINE
8
layer1
10
18.2152531
20
10.8558703
11
18.1234258
21
10.6429986
0
LINE
8
layer1
10
18.1234258
20
10.6429986
11
18.033936
21
10.4573008
0
LINE
8
layer1
10
18.033936
20
10.4573008
11
17.9484928
21
10.2973419
0
LINE
8
layer1
10
17.9484928
20
10.2973419
11
17.8683604
21
10.1612997
0
LINE
8
layer1
10
17.8683604
20
10.1612997
11
17.7958028
21
10.0491405
0
LINE
8
layer1
10
17.7958028
20
10.0491405
11
17.6633282
21
9.8634933
0
LINE
8
layer1
10
17.6633282
20
9.8634933
11
17.6365203
21
9.8180943
0
LINE
8
layer1
10
17.6365203
20
9.8180943
11
17.6159969
21
9.7760126
0
LINE
8
layer1
10
17.6159969
20
9.7760126
11
17.6015938
21
9.7374904
0
LINE
8
layer1
10
17.6015938
20
9.7374904
11
17.59316
21
9.7027551
0
LINE
8
layer1
10
17.59316
20
9.7027551
11
17.590517
21
9.6720498
0
LINE
8
layer1
10
17.590517
20
9.6720498
11
17.5935065
21
9.6455951
0
LINE
8
layer1
10
17.5935065
20
9.6455951
11
17.6019418
21
9.6236133
0
LINE
8
layer1
10
17.6019418
20
9.6236133
11
17.6451879
21
9.5749112
0
LINE
8
layer1
10
17.6451879
20
9.5749112
11
17.8668703
21
9.334372
0
LINE
8
layer1
10
17.8668703
20
9.334372
11
18.0829197
21
9.0887607
0
LINE
8
layer1
10
18.0829197
20
9.0887607
11
18.1268346
21
9.0406608
0
LINE
8
layer1
10
18.1268346
20
9.0406608
11
18.1478143
21
9.0299739
0
LINE
8
layer1
10
18.1478143
20
9.0299739
11
18.1738115
21
9.0242356
0
LINE
8
layer1
10
18.1738115
20
9.0242356
11
18.2046249
21
9.0236545
0
LINE
8
layer1
10
18.2046249
20
9.0236545
11
18.2400515
21
9.0284113
0
LINE
8
layer1
10
18.2400515
20
9.0284113
11
18.2798682
21
9.0387089
0
LINE
8
layer1
10
18.2798682
20
9.0387089
11
18.3238646
21
9.0547211
0
LINE
8
layer1
10
18.3238646
20
9.0547211
11
18.3718171
21
9.0766367
0
LINE
8
layer1
10
18.3718171
20
9.0766367
11
18.5702947
21
9.1889801
0
LINE
8
layer1
10
18.5702947
20
9.1889801
11
18.6894238
21
9.2494164
0
LINE
8
layer1
10
18.6894238
20
9.2494164
11
18.8330969
21
9.3148896
0
LINE
8
layer1
10
18.8330969
20
9.3148896
11
19.0011107
21
9.3831444
0
LINE
8
layer1
10
19.0011107
20
9.3831444
11
19.1951455
21
9.4527333
0
LINE
8
layer1
10
19.1951455
20
9.4527333
11
19.4164496
21
9.5218064
0
LINE
8
layer1
10
19.4164496
20
9.5218064
11
19.6644446
21
9.5879726
0
LINE
8
layer1
10
19.6644446
20
9.5879726
11
19.940425
21
9.6493158
0
LINE
8
layer1
10
19.940425
20
9.6493158
11
20.2241889
21
9.7002438
0
ARC
8
layer1
10
7.4999923
20
-0.0000047
40
16
50
34.6800309
51
37.3199636
0
LINE
8
layer1
10
20.6574707
20
9.1038825
11
20.5213474
21
8.8497447
0
LINE
8
layer1
10
20.5213474
20
8.8497447
11
20.3777239
21
8.6062279
0
LINE
8
layer1
10
20.3777239
20
8.6062279
11
20.2381615
21
8.3908171
0
LINE
8
layer1
10
20.2381615
20
8.3908171
11
20.1040823
21
8.2016891
0
LINE
8
layer1
10
20.1040823
20
8.2016891
11
19.9779393
21
8.0386552
0
LINE
8
layer1
10
19.9779393
20
8.0386552
11
19.861106
21
7.8999565
0
LINE
8
layer1
10
19.861106
20
7.8999565
11
19.7544398
21
7.7835476
0
LINE
8
layer1
10
19.7544398
20
7.7835476
11
19.6601486
21
7.6889249
0
LINE
8
layer1
10
19.6601486
20
7.6889249
11
19.4919707
21
7.5348775
0
LINE
8
layer1
10
19.4919707
20
7.5348775
11
19.4563096
21
7.4960443
0
LINE
8
layer1
10
19.4563096
20
7.4960443
11
19.4274854
21
7.4591492
0
LINE
8
layer1
10
19.4274854
20
7.4591492
11
19.4053878
21
7.4244634
0
LINE
8
layer1
10
19.4053878
20
7.4244634
11
19.3899164
21
7.3922407
0
LINE
8
layer1
10
19.3899164
20
7.3922407
11
19.3809472
21
7.3627558
0
LINE
8
layer1
10
19.3809472
20
7.3627558
11
19.3783711
21
7.3362577
0
LINE
8
layer1
10
19.3783711
20
7.3362577
11
19.3820519
21
7.3130025
0
LINE
8
layer1
10
19.3820519
20
7.3130025
11
19.4142271
21
7.2563732
0
LINE
8
layer1
10
19.4142271
20
7.2563732
11
19.5810544
21
6.975
0
LINE
8
layer1
10
19.5810544
20
6.975
11
19.7413171
21
6.6898368
0
LINE
8
layer1
10
19.7413171
20
6.6898368
11
19.7742719
21
6.6336575
0
LINE
8
layer1
10
19.7742719
20
6.6336575
11
19.7925711
21
6.6188423
0
LINE
8
layer1
10
19.7925711
20
6.6188423
11
19.8168072
21
6.6078242
0
LINE
8
layer1
10
19.8168072
20
6.6078242
11
19.8468264
21
6.6008493
0
LINE
8
layer1
10
19.8468264
20
6.6008493
11
19.8824678
21
6.5981366
0
LINE
8
layer1
10
19.8824678
20
6.5981366
11
19.9235554
21
6.5999308
0
LINE
8
layer1
10
19.9235554
20
6.5999308
11
19.9699196
21
6.6064457
0
LINE
8
layer1
10
19.9699196
20
6.6064457
11
20.0213807
21
6.6179125
0
LINE
8
layer1
10
20.0213807
20
6.6179125
11
20.2388786
21
6.6865351
0
LINE
8
layer1
10
20.2388786
20
6.6865351
11
20.3679698
21
6.7208824
0
LINE
8
layer1
10
20.3679698
20
6.7208824
11
20.522116
21
6.7550535
0
LINE
8
layer1
10
20.522116
20
6.7550535
11
20.7006493
21
6.7868848
0
LINE
8
layer1
10
20.7006493
20
6.7868848
11
20.9049123
21
6.8146109
0
LINE
8
layer1
10
20.9049123
20
6.8146109
11
21.1357415
21
6.8361629
0
LINE
8
layer1
10
21.1357415
20
6.8361629
11
21.3920739
21
6.8493221
0
LINE
8
layer1
10
21.3920739
20
6.8493221
11
21.6747774
21
6.8519453
0
LINE
8
layer1
10
21.6747774
20
6.8519453
11
21.9629289
21
6.8427626
0
ARC
8
layer1
10
7.4999918
20
-0.0000037
40
16
50
22.6800338
51
25.3199665
0
LINE
8
layer1
10
22.262752
20
6.1693489
11
22.0767651
21
5.9490662
0
LINE
8
layer1
10
22.0767651
20
5.9490662
11
21.8856502
21
5.7407318
0
LINE
8
layer1
10
21.8856502
20
5.7407318
11
21.7043511
21
5.5590449
0
LINE
8
layer1
10
21.7043511
20
5.5590449
11
21.5338799
21
5.4019265
0
LINE
8
layer1
10
21.5338799
20
5.4019265
11
21.3765968
21
5.2686819
0
LINE
8
layer1
10
21.3765968
20
5.2686819
11
21.2334794
21
5.157305
0
LINE
8
layer1
10
21.2334794
20
5.157305
11
21.1049415
21
5.0656171
0
LINE
8
layer1
10
21.1049415
20
5.0656171
11
20.9930375
21
4.9926664
0
LINE
8
layer1
10
20.9930375
20
4.9926664
11
20.7965065
21
4.8769515
0
LINE
8
layer1
10
20.7965065
20
4.8769515
11
20.7535508
21
4.8463812
0
LINE
8
layer1
10
20.7535508
20
4.8463812
11
20.7176856
21
4.8162853
0
LINE
8
layer1
10
20.7176856
20
4.8162853
11
20.6888593
21
4.7869517
0
LINE
8
layer1
10
20.6888593
20
4.7869517
11
20.6670265
21
4.7586498
0
LINE
8
layer1
10
20.6670265
20
4.7586498
11
20.652123
21
4.7316741
0
LINE
8
layer1
10
20.652123
20
4.7316741
11
20.644094
21
4.7062907
0
LINE
8
layer1
10
20.644094
20
4.7062907
11
20.6428592
21
4.6827783
0
LINE
8
layer1
10
20.6428592
20
4.6827783
11
20.6625575
21
4.620697
0
LINE
8
layer1
10
20.6625575
20
4.620697
11
20.7672384
21
4.3107871
0
LINE
8
layer1
10
20.7672384
20
4.3107871
11
20.8647103
21
3.9985348
0
LINE
8
layer1
10
20.8647103
20
3.9985348
11
20.8852645
21
3.9367316
0
LINE
8
layer1
10
20.8852645
20
3.9367316
11
20.9000836
21
3.9184354
0
LINE
8
layer1
10
20.9000836
20
3.9184354
11
20.9214993
21
3.9026191
0
LINE
8
layer1
10
20.9214993
20
3.9026191
11
20.9494124
21
3.8895554
0
LINE
8
layer1
10
20.9494124
20
3.8895554
11
20.9837109
21
3.8794917
0
LINE
8
layer1
10
20.9837109
20
3.8794917
11
21.0242737
21
3.872704
0
LINE
8
layer1
10
21.0242737
20
3.872704
11
21.0709792
21
3.8694369
0
LINE
8
layer1
10
21.0709792
20
3.8694369
11
21.1236998
21
3.8699538
0
LINE
8
layer1
10
21.1236998
20
3.8699538
11
21.3507123
21
3.8918565
0
LINE
8
layer1
10
21.3507123
20
3.8918565
11
21.4841239
21
3.8986137
0
LINE
8
layer1
10
21.4841239
20
3.8986137
11
21.6420061
21
3.8999893
0
LINE
8
layer1
10
21.6420061
20
3.8999893
11
21.8232561
21
3.8940058
0
LINE
8
layer1
10
21.8232561
20
3.8940058
11
22.02882
21
3.8786573
0
LINE
8
layer1
10
22.02882
20
3.8786573
11
22.259086
21
3.8517463
0
LINE
8
layer1
10
22.259086
20
3.8517463
11
22.5125529
21
3.8113234
0
LINE
8
layer1
10
22.5125529
20
3.8113234
11
22.7896241
21
3.7551119
0
LINE
8
layer1
10
22.7896241
20
3.7551119
11
23.0695695
21
3.6862198
0
ARC
8
layer1
10
7.4999914
20
-0.0000028
40
16
50
10.6800371
51
13.3199697
0
LINE
8
layer1
10
23.2228302
20
2.9651851
11
22.9951082
21
2.7883849
0
ENDSEC
0
EOF