  0
SECTION
  2
HEADER
  9
$ACADVER
  1
AC1014
  9
$ACADMAINTVER
 70
     0
  9
$DWGCODEPAGE
  3
ANSI_1252
  9
$INSBASE
 10
0.0
 20
0.0
 30
0.0
  9
$INSUNITS
 70
4  
  9
$EXTMIN
 10
1.653475
 20
0.802498
 30
0.0
  9
$EXTMAX
 10
8.401427
 20
5.56925
 30
0.0
  9
$LIMMIN
 10
0.0
 20
0.0
  9
$LIMMAX
 10
12.0
 20
9.0
  9
$ORTHOMODE
 70
     0
  9
$REGENMODE
 70
     1
  9
$FILLMODE
 70
     1
  9
$QTEXTMODE
 70
     0
  9
$MIRRTEXT
 70
     1
  9
$DRAGMODE
 70
     2
  9
$LTSCALE
 40
1.0
  9
$OSMODE
 70
     0
  9
$ATTMODE
 70
     1
  9
$TEXTSIZE
 40
0.2
  9
$TRACEWID
 40
0.05
  9
$TEXTSTYLE
  7
STANDARD
  9
$CLAYER
  8
0
  9
$CELTYPE
  6
BYLAYER
  9
$CECOLOR
 62
   256
  9
$CELTSCALE
 40
1.0
  9
$DELOBJ
 70
     1
  9
$DISPSILH
 70
     0
  9
$DIMSCALE
 40
1.0
  9
$DIMASZ
 40
0.18
  9
$DIMEXO
 40
0.0625
  9
$DIMDLI
 40
0.38
  9
$DIMRND
 40
0.0
  9
$DIMDLE
 40
0.0
  9
$DIMEXE
 40
0.18
  9
$DIMTP
 40
0.0
  9
$DIMTM
 40
0.0
  9
$DIMTXT
 40
0.18
  9
$DIMCEN
 40
0.09
  9
$DIMTSZ
 40
0.0
  9
$DIMTOL
 70
     0
  9
$DIMLIM
 70
     0
  9
$DIMTIH
 70
     1
  9
$DIMTOH
 70
     1
  9
$DIMSE1
 70
     0
  9
$DIMSE2
 70
     0
  9
$DIMTAD
 70
     0
  9
$DIMZIN
 70
     0
  9
$DIMBLK
  1

  9
$DIMASO
 70
     1
  9
$DIMSHO
 70
     1
  9
$DIMPOST
  1

  9
$DIMAPOST
  1

  9
$DIMALT
 70
     0
  9
$DIMALTD
 70
     2
  9
$DIMALTF
 40
25.4
  9
$DIMLFAC
 40
1.0
  9
$DIMTOFL
 70
     0
  9
$DIMTVP
 40
0.0
  9
$DIMTIX
 70
     0
  9
$DIMSOXD
 70
     0
  9
$DIMSAH
 70
     0
  9
$DIMBLK1
  1

  9
$DIMBLK2
  1

  9
$DIMSTYLE
  2
STANDARD
  9
$DIMCLRD
 70
     0
  9
$DIMCLRE
 70
     0
  9
$DIMCLRT
 70
     0
  9
$DIMTFAC
 40
1.0
  9
$DIMGAP
 40
0.09
  9
$DIMJUST
 70
     0
  9
$DIMSD1
 70
     0
  9
$DIMSD2
 70
     0
  9
$DIMTOLJ
 70
     1
  9
$DIMTZIN
 70
     0
  9
$DIMALTZ
 70
     0
  9
$DIMALTTZ
 70
     0
  9
$DIMFIT
 70
     3
  9
$DIMUPT
 70
     0
  9
$DIMUNIT
 70
     2
  9
$DIMDEC
 70
     4
  9
$DIMTDEC
 70
     4
  9
$DIMALTU
 70
     2
  9
$DIMALTTD
 70
     2
  9
$DIMTXSTY
  7
STANDARD
  9
$DIMAUNIT
 70
     0
  9
$LUNITS
 70
     2
  9
$LUPREC
 70
     4
  9
$SKETCHINC
 40
0.1
  9
$FILLETRAD
 40
0.5
  9
$AUNITS
 70
     0
  9
$AUPREC
 70
     0
  9
$MENU
  1
acad
  9
$ELEVATION
 40
0.0
  9
$PELEVATION
 40
0.0
  9
$THICKNESS
 40
0.0
  9
$LIMCHECK
 70
     0
  9
$BLIPMODE
 70
     0
  9
$CHAMFERA
 40
0.5
  9
$CHAMFERB
 40
0.5
  9
$CHAMFERC
 40
1.0
  9
$CHAMFERD
 40
0.0
  9
$SKPOLY
 70
     0
  9
$TDCREATE
 40
2452822.484858160
  9
$TDUPDATE
 40
2452822.484858160
  9
$TDINDWG
 40
0.0000000000
  9
$TDUSRTIMER
 40
0.0000000000
  9
$USRTIMER
 70
     1
  9
$ANGBASE
 50
0.0
  9
$ANGDIR
 70
     0
  9
$PDMODE
 70
     0
  9
$PDSIZE
 40
0.0
  9
$PLINEWID
 40
0.0
  9
$COORDS
 70
     1
  9
$SPLFRAME
 70
     0
  9
$SPLINETYPE
 70
     6
  9
$SPLINESEGS
 70
     8
  9
$ATTDIA
 70
     0
  9
$ATTREQ
 70
     1
  9
$HANDLING
 70
     1
  9
$HANDSEED
  5
39
  9
$SURFTAB1
 70
     6
  9
$SURFTAB2
 70
     6
  9
$SURFTYPE
 70
     6
  9
$SURFU
 70
     6
  9
$SURFV
 70
     6
  9
$UCSNAME
  2

  9
$UCSORG
 10
0.0
 20
0.0
 30
0.0
  9
$UCSXDIR
 10
1.0
 20
0.0
 30
0.0
  9
$UCSYDIR
 10
0.0
 20
1.0
 30
0.0
  9
$PUCSNAME
  2

  9
$PUCSORG
 10
0.0
 20
0.0
 30
0.0
  9
$PUCSXDIR
 10
1.0
 20
0.0
 30
0.0
  9
$PUCSYDIR
 10
0.0
 20
1.0
 30
0.0
  9
$USERI1
 70
     0
  9
$USERI2
 70
     0
  9
$USERI3
 70
     0
  9
$USERI4
 70
     0
  9
$USERI5
 70
     0
  9
$USERR1
 40
0.0
  9
$USERR2
 40
0.0
  9
$USERR3
 40
0.0
  9
$USERR4
 40
0.0
  9
$USERR5
 40
0.0
  9
$WORLDVIEW
 70
     1
  9
$SHADEDGE
 70
     3
  9
$SHADEDIF
 70
    70
  9
$TILEMODE
 70
     1
  9
$MAXACTVP
 70
    48
  9
$PINSBASE
 10
0.0
 20
0.0
 30
0.0
  9
$PLIMCHECK
 70
     0
  9
$PEXTMIN
 10
1.000000E+20
 20
1.000000E+20
 30
1.000000E+20
  9
$PEXTMAX
 10
-1.000000E+20
 20
-1.000000E+20
 30
-1.000000E+20
  9
$PLIMMIN
 10
0.0
 20
0.0
  9
$PLIMMAX
 10
12.0
 20
9.0
  9
$UNITMODE
 70
     0
  9
$VISRETAIN
 70
     1
  9
$PLINEGEN
 70
     0
  9
$PSLTSCALE
 70
     1
  9
$TREEDEPTH
 70
  3020
  9
$PICKSTYLE
 70
     1
  9
$CMLSTYLE
  2
STANDARD
  9
$CMLJUST
 70
     0
  9
$CMLSCALE
 40
1.0
  9
$PROXYGRAPHICS
 70
     1
  9
$MEASUREMENT
 70
     0
  0
ENDSEC
  0
SECTION
  2
CLASSES
  0
ENDSEC
  0
SECTION
  2
TABLES
  0
TABLE
  2
VPORT
  5
8
100
AcDbSymbolTable
 70
     2
  0
VPORT
  5
38
100
AcDbSymbolTableRecord
100
AcDbViewportTableRecord
  2
*ACTIVE
 70
     0
 10
0.0
 20
0.0
 11
1.0
 21
1.0
 12
9.841667
 22
4.5
 13
0.0
 23
0.0
 14
0.5
 24
0.5
 15
0.5
 25
0.5
 16
0.0
 26
0.0
 36
1.0
 17
0.0
 27
0.0
 37
0.0
 40
9.0
 41
2.187037
 42
50.0
 43
0.0
 44
0.0
 50
0.0
 51
0.0
 71
     0
 72
   100
 73
     1
 74
     1
 75
     0
 76
     0
 77
     0
 78
     0
  0
ENDTAB
  0
TABLE
  2
LTYPE
  5
5
100
AcDbSymbolTable
 70
     1
  0
LTYPE
  5
12
100
AcDbSymbolTableRecord
100
AcDbLinetypeTableRecord
  2
BYBLOCK
 70
     0
  3

 72
    65
 73
     0
 40
0.0
  0
LTYPE
  5
13
100
AcDbSymbolTableRecord
100
AcDbLinetypeTableRecord
  2
BYLAYER
 70
     0
  3

 72
    65
 73
     0
 40
0.0
  0
LTYPE
  5
14
100
AcDbSymbolTableRecord
100
AcDbLinetypeTableRecord
  2
CONTINUOUS
 70
     0
  3
Solid line
 72
    65
 73
     0
 40
0.0
  0
ENDTAB
  0
TABLE
  2
LAYER
  5
2
100
AcDbSymbolTable
 70
     1
  0
LAYER
  5
E
100
AcDbSymbolTableRecord
100
AcDbLayerTableRecord
  2
0
 70
     0
 62
     7
  6
CONTINUOUS
  0
ENDTAB
  0
TABLE
  2
STYLE
  5
3
100
AcDbSymbolTable
 70
     1
  0
STYLE
  5
F
100
AcDbSymbolTableRecord
100
AcDbTextStyleTableRecord
  2
STANDARD
 70
     0
 40
0.0
 41
1.0
 50
0.0
 71
     0
 42
0.2
  3
txt
  4

  0
ENDTAB
  0
TABLE
  2
VIEW
  5
6
100
AcDbSymbolTable
 70
     0
  0
ENDTAB
  0
TABLE
  2
UCS
  5
7
100
AcDbSymbolTable
 70
     0
  0
ENDTAB
  0
TABLE
  2
APPID
  5
9
100
AcDbSymbolTable
 70
     1
  0
APPID
  5
10
100
AcDbSymbolTableRecord
100
AcDbRegAppTableRecord
  2
ACAD
 70
     0
  0
ENDTAB
  0
TABLE
  2
DIMSTYLE
  5
A
100
AcDbSymbolTable
 70
     1
  0
DIMSTYLE
105
1D
100
AcDbSymbolTableRecord
100
AcDbDimStyleTableRecord
  2
STANDARD
 70
     0
  3

  4

  5

  6

  7

 40
1.0
 41
0.18
 42
0.0625
 43
0.38
 44
0.18
 45
0.0
 46
0.0
 47
0.0
 48
0.0
140
0.18
141
0.09
142
0.0
143
25.4
144
1.0
145
0.0
146
1.0
147
0.09
 71
     0
 72
     0
 73
     1
 74
     1
 75
     0
 76
     0
 77
     0
 78
     0
170
     0
171
     2
172
     0
173
     0
174
     0
175
     0
176
     0
177
     0
178
     0
270
     2
271
     4
272
     4
273
     2
274
     2
340
F
275
     0
280
     0
281
     0
282
     0
283
     1
284
     0
285
     0
286
     0
287
     3
288
     0
  0
ENDTAB
  0
TABLE
  2
BLOCK_RECORD
  5
1
100
AcDbSymbolTable
 70
     0
  0
BLOCK_RECORD
  5
18
100
AcDbSymbolTableRecord
100
AcDbBlockTableRecord
  2
  0
BLOCK_RECORD
  5
15
100
AcDbSymbolTableRecord
100
AcDbBlockTableRecord
  2
*PAPER_SPACE
  0
ENDTAB
  0
ENDSEC
  0
SECTION
  2
BLOCKS
  0
BLOCK
  5
19
100
AcDbEntity
  8
0
100
AcDbBlockBegin
  2
*MODEL_SPACE
 70
     0
 10
0.0
 20
0.0
 30
0.0
  3
*MODEL_SPACE
  1

  0
ENDBLK
  5
1A
100
AcDbEntity
  8
0
100
AcDbBlockEnd
  0
BLOCK
  5
16
100
AcDbEntity
 67
     1
  8
0
100
AcDbBlockBegin
  2
*PAPER_SPACE
 70
     0
 10
0.0
 20
0.0
 30
0.0
  3
*PAPER_SPACE
  1

  0
ENDBLK
  5
17
100
AcDbEntity
 67
     1
  8
0
100
AcDbBlockEnd
  0
ENDSEC
  0
SECTION
  2
ENTITIES

0
LINE
  5
32
100
AcDbEntity
  8
0
100
AcDbLine
 10
3.500000
 20
0.000000
 30
0.0
 11
3.500152
 21
0.017456
 31
0.0
0
LINE
  5
33
100
AcDbEntity
  8
0
100
AcDbLine
 10
3.500152
 20
0.017456
 30
0.0
 11
3.500609
 21
0.034931
 31
0.0
0
LINE
  5
34
100
AcDbEntity
  8
0
100
AcDbLine
 10
3.500609
 20
0.034931
 30
0.0
 11
3.501368
 21
0.052444
 31
0.0
0
LINE
  5
35
100
AcDbEntity
  8
0
100
AcDbLine
 10
3.501368
 20
0.052444
 30
0.0
 11
3.502429
 21
0.070011
 31
0.0
0
LINE
  5
36
100
AcDbEntity
  8
0
100
AcDbLine
 10
3.502429
 20
0.070011
 30
0.0
 11
3.503789
 21
0.087653
 31
0.0
0
LINE
  5
37
100
AcDbEntity
  8
0
100
AcDbLine
 10
3.503789
 20
0.087653
 30
0.0
 11
3.505444
 21
0.105388
 31
0.0
0
LINE
  5
38
100
AcDbEntity
  8
0
100
AcDbLine
 10
3.505444
 20
0.105388
 30
0.0
 11
3.507391
 21
0.123233
 31
0.0
0
LINE
  5
39
100
AcDbEntity
  8
0
100
AcDbLine
 10
3.507391
 20
0.123233
 30
0.0
 11
3.509625
 21
0.141207
 31
0.0
0
LINE
  5
40
100
AcDbEntity
  8
0
100
AcDbLine
 10
3.509625
 20
0.141207
 30
0.0
 11
3.512141
 21
0.159328
 31
0.0
0
LINE
  5
41
100
AcDbEntity
  8
0
100
AcDbLine
 10
3.512141
 20
0.159328
 30
0.0
 11
3.514932
 21
0.177613
 31
0.0
0
LINE
  5
42
100
AcDbEntity
  8
0
100
AcDbLine
 10
3.514932
 20
0.177613
 30
0.0
 11
3.517993
 21
0.196080
 31
0.0
0
LINE
  5
43
100
AcDbEntity
  8
0
100
AcDbLine
 10
3.517993
 20
0.196080
 30
0.0
 11
3.521315
 21
0.214746
 31
0.0
0
LINE
  5
44
100
AcDbEntity
  8
0
100
AcDbLine
 10
3.521315
 20
0.214746
 30
0.0
 11
3.524890
 21
0.233627
 31
0.0
0
LINE
  5
45
100
AcDbEntity
  8
0
100
AcDbLine
 10
3.524890
 20
0.233627
 30
0.0
 11
3.528711
 21
0.252742
 31
0.0
0
LINE
  5
46
100
AcDbEntity
  8
0
100
AcDbLine
 10
3.528711
 20
0.252742
 30
0.0
 11
3.532767
 21
0.272105
 31
0.0
0
LINE
  5
47
100
AcDbEntity
  8
0
100
AcDbLine
 10
3.532767
 20
0.272105
 30
0.0
 11
3.537048
 21
0.291733
 31
0.0
0
LINE
  5
48
100
AcDbEntity
  8
0
100
AcDbLine
 10
3.537048
 20
0.291733
 30
0.0
 11
3.541545
 21
0.311641
 31
0.0
0
LINE
  5
49
100
AcDbEntity
  8
0
100
AcDbLine
 10
3.541545
 20
0.311641
 30
0.0
 11
3.546245
 21
0.331845
 31
0.0
0
LINE
  5
50
100
AcDbEntity
  8
0
100
AcDbLine
 10
3.546245
 20
0.331845
 30
0.0
 11
3.551137
 21
0.352360
 31
0.0
0
LINE
  5
51
100
AcDbEntity
  8
0
100
AcDbLine
 10
3.551137
 20
0.352360
 30
0.0
 11
3.556209
 21
0.373199
 31
0.0
0
LINE
  5
52
100
AcDbEntity
  8
0
100
AcDbLine
 10
3.556209
 20
0.373199
 30
0.0
 11
3.561447
 21
0.394377
 31
0.0
0
LINE
  5
53
100
AcDbEntity
  8
0
100
AcDbLine
 10
3.561447
 20
0.394377
 30
0.0
 11
3.566839
 21
0.415907
 31
0.0
0
LINE
  5
54
100
AcDbEntity
  8
0
100
AcDbLine
 10
3.566839
 20
0.415907
 30
0.0
 11
3.572370
 21
0.437802
 31
0.0
0
LINE
  5
55
100
AcDbEntity
  8
0
100
AcDbLine
 10
3.572370
 20
0.437802
 30
0.0
 11
3.578025
 21
0.460074
 31
0.0
0
LINE
  5
56
100
AcDbEntity
  8
0
100
AcDbLine
 10
3.578025
 20
0.460074
 30
0.0
 11
3.583790
 21
0.482736
 31
0.0
0
LINE
  5
57
100
AcDbEntity
  8
0
100
AcDbLine
 10
3.583790
 20
0.482736
 30
0.0
 11
3.589650
 21
0.505799
 31
0.0
0
LINE
  5
58
100
AcDbEntity
  8
0
100
AcDbLine
 10
3.589650
 20
0.505799
 30
0.0
 11
3.595587
 21
0.529273
 31
0.0
0
LINE
  5
59
100
AcDbEntity
  8
0
100
AcDbLine
 10
3.595587
 20
0.529273
 30
0.0
 11
3.601586
 21
0.553169
 31
0.0
0
LINE
  5
60
100
AcDbEntity
  8
0
100
AcDbLine
 10
3.601586
 20
0.553169
 30
0.0
 11
3.607631
 21
0.577496
 31
0.0
0
LINE
  5
61
100
AcDbEntity
  8
0
100
AcDbLine
 10
3.607631
 20
0.577496
 30
0.0
 11
3.613703
 21
0.602263
 31
0.0
0
LINE
  5
62
100
AcDbEntity
  8
0
100
AcDbLine
 10
3.613703
 20
0.602263
 30
0.0
 11
3.619786
 21
0.627480
 31
0.0
0
LINE
  5
63
100
AcDbEntity
  8
0
100
AcDbLine
 10
3.619786
 20
0.627480
 30
0.0
 11
3.625861
 21
0.653152
 31
0.0
0
LINE
  5
64
100
AcDbEntity
  8
0
100
AcDbLine
 10
3.625861
 20
0.653152
 30
0.0
 11
3.631911
 21
0.679289
 31
0.0
0
LINE
  5
65
100
AcDbEntity
  8
0
100
AcDbLine
 10
3.631911
 20
0.679289
 30
0.0
 11
3.637916
 21
0.705895
 31
0.0
0
LINE
  5
66
100
AcDbEntity
  8
0
100
AcDbLine
 10
3.637916
 20
0.705895
 30
0.0
 11
3.643858
 21
0.732977
 31
0.0
0
LINE
  5
67
100
AcDbEntity
  8
0
100
AcDbLine
 10
3.643858
 20
0.732977
 30
0.0
 11
3.649718
 21
0.760540
 31
0.0
0
LINE
  5
68
100
AcDbEntity
  8
0
100
AcDbLine
 10
3.649718
 20
0.760540
 30
0.0
 11
3.655476
 21
0.788588
 31
0.0
0
LINE
  5
69
100
AcDbEntity
  8
0
100
AcDbLine
 10
3.655476
 20
0.788588
 30
0.0
 11
3.661113
 21
0.817125
 31
0.0
0
LINE
  5
70
100
AcDbEntity
  8
0
100
AcDbLine
 10
3.661113
 20
0.817125
 30
0.0
 11
3.666610
 21
0.846154
 31
0.0
0
LINE
  5
71
100
AcDbEntity
  8
0
100
AcDbLine
 10
3.666610
 20
0.846154
 30
0.0
 11
3.671946
 21
0.875677
 31
0.0
0
LINE
  5
72
100
AcDbEntity
  8
0
100
AcDbLine
 10
3.671946
 20
0.875677
 30
0.0
 11
3.677102
 21
0.905695
 31
0.0
0
LINE
  5
73
100
AcDbEntity
  8
0
100
AcDbLine
 10
3.677102
 20
0.905695
 30
0.0
 11
3.682057
 21
0.936211
 31
0.0
0
LINE
  5
74
100
AcDbEntity
  8
0
100
AcDbLine
 10
3.682057
 20
0.936211
 30
0.0
 11
3.686792
 21
0.967223
 31
0.0
0
LINE
  5
75
100
AcDbEntity
  8
0
100
AcDbLine
 10
3.686792
 20
0.967223
 30
0.0
 11
3.691286
 21
0.998731
 31
0.0
0
LINE
  5
76
100
AcDbEntity
  8
0
100
AcDbLine
 10
3.691286
 20
0.998731
 30
0.0
 11
3.695518
 21
1.030734
 31
0.0
0
LINE
  5
77
100
AcDbEntity
  8
0
100
AcDbLine
 10
3.695518
 20
1.030734
 30
0.0
 11
3.699469
 21
1.063229
 31
0.0
0
LINE
  5
78
100
AcDbEntity
  8
0
100
AcDbLine
 10
3.699469
 20
1.063229
 30
0.0
 11
3.703119
 21
1.096214
 31
0.0
0
LINE
  5
79
100
AcDbEntity
  8
0
100
AcDbLine
 10
3.703119
 20
1.096214
 30
0.0
 11
3.706446
 21
1.129686
 31
0.0
0
LINE
  5
80
100
AcDbEntity
  8
0
100
AcDbLine
 10
3.706446
 20
1.129686
 30
0.0
 11
3.709432
 21
1.163639
 31
0.0
0
LINE
  5
81
100
AcDbEntity
  8
0
100
AcDbLine
 10
3.709432
 20
1.163639
 30
0.0
 11
3.712055
 21
1.198069
 31
0.0
0
LINE
  5
82
100
AcDbEntity
  8
0
100
AcDbLine
 10
3.712055
 20
1.198069
 30
0.0
 11
3.714297
 21
1.232971
 31
0.0
0
LINE
  5
83
100
AcDbEntity
  8
0
100
AcDbLine
 10
3.714297
 20
1.232971
 30
0.0
 11
3.716137
 21
1.268337
 31
0.0
0
LINE
  5
84
100
AcDbEntity
  8
0
100
AcDbLine
 10
3.716137
 20
1.268337
 30
0.0
 11
3.717556
 21
1.304160
 31
0.0
0
LINE
  5
85
100
AcDbEntity
  8
0
100
AcDbLine
 10
3.717556
 20
1.304160
 30
0.0
 11
3.718535
 21
1.340434
 31
0.0
0
LINE
  5
86
100
AcDbEntity
  8
0
100
AcDbLine
 10
3.718535
 20
1.340434
 30
0.0
 11
3.719053
 21
1.377148
 31
0.0
0
LINE
  5
87
100
AcDbEntity
  8
0
100
AcDbLine
 10
3.719053
 20
1.377148
 30
0.0
 11
3.719094
 21
1.414294
 31
0.0
0
LINE
  5
88
100
AcDbEntity
  8
0
100
AcDbLine
 10
3.719094
 20
1.414294
 30
0.0
 11
3.718637
 21
1.451862
 31
0.0
0
LINE
  5
89
100
AcDbEntity
  8
0
100
AcDbLine
 10
3.718637
 20
1.451862
 30
0.0
 11
3.717664
 21
1.489841
 31
0.0
0
LINE
  5
90
100
AcDbEntity
  8
0
100
AcDbLine
 10
3.717664
 20
1.489841
 30
0.0
 11
3.716159
 21
1.528220
 31
0.0
0
LINE
  5
91
100
AcDbEntity
  8
0
100
AcDbLine
 10
3.716159
 20
1.528220
 30
0.0
 11
3.714102
 21
1.566987
 31
0.0
0
LINE
  5
92
100
AcDbEntity
  8
0
100
AcDbLine
 10
3.714102
 20
1.566987
 30
0.0
 11
3.711476
 21
1.606129
 31
0.0
0
LINE
  5
93
100
AcDbEntity
  8
0
100
AcDbLine
 10
3.711476
 20
1.606129
 30
0.0
 11
3.708266
 21
1.645634
 31
0.0
0
LINE
  5
94
100
AcDbEntity
  8
0
100
AcDbLine
 10
3.708266
 20
1.645634
 30
0.0
 11
3.704453
 21
1.685486
 31
0.0
0
LINE
  5
95
100
AcDbEntity
  8
0
100
AcDbLine
 10
3.704453
 20
1.685486
 30
0.0
 11
3.700023
 21
1.725672
 31
0.0
0
LINE
  5
96
100
AcDbEntity
  8
0
100
AcDbLine
 10
3.700023
 20
1.725672
 30
0.0
 11
3.694960
 21
1.766176
 31
0.0
0
LINE
  5
97
100
AcDbEntity
  8
0
100
AcDbLine
 10
3.694960
 20
1.766176
 30
0.0
 11
3.689248
 21
1.806984
 31
0.0
0
LINE
  5
98
100
AcDbEntity
  8
0
100
AcDbLine
 10
3.689248
 20
1.806984
 30
0.0
 11
3.682872
 21
1.848078
 31
0.0
0
LINE
  5
99
100
AcDbEntity
  8
0
100
AcDbLine
 10
3.682872
 20
1.848078
 30
0.0
 11
3.675820
 21
1.889442
 31
0.0
0
LINE
  5
100
100
AcDbEntity
  8
0
100
AcDbLine
 10
3.675820
 20
1.889442
 30
0.0
 11
3.668077
 21
1.931060
 31
0.0
0
LINE
  5
101
100
AcDbEntity
  8
0
100
AcDbLine
 10
3.668077
 20
1.931060
 30
0.0
 11
3.659630
 21
1.972912
 31
0.0
0
LINE
  5
102
100
AcDbEntity
  8
0
100
AcDbLine
 10
3.659630
 20
1.972912
 30
0.0
 11
3.650467
 21
2.014981
 31
0.0
0
LINE
  5
103
100
AcDbEntity
  8
0
100
AcDbLine
 10
3.650467
 20
2.014981
 30
0.0
 11
3.640576
 21
2.057248
 31
0.0
0
LINE
  5
104
100
AcDbEntity
  8
0
100
AcDbLine
 10
3.640576
 20
2.057248
 30
0.0
 11
3.629946
 21
2.099695
 31
0.0
0
LINE
  5
105
100
AcDbEntity
  8
0
100
AcDbLine
 10
3.629946
 20
2.099695
 30
0.0
 11
3.618566
 21
2.142300
 31
0.0
0
LINE
  5
106
100
AcDbEntity
  8
0
100
AcDbLine
 10
3.618566
 20
2.142300
 30
0.0
 11
3.606426
 21
2.185046
 31
0.0
0
LINE
  5
107
100
AcDbEntity
  8
0
100
AcDbLine
 10
3.606426
 20
2.185046
 30
0.0
 11
3.593517
 21
2.227910
 31
0.0
0
LINE
  5
108
100
AcDbEntity
  8
0
100
AcDbLine
 10
3.593517
 20
2.227910
 30
0.0
 11
3.579830
 21
2.270873
 31
0.0
0
LINE
  5
109
100
AcDbEntity
  8
0
100
AcDbLine
 10
3.579830
 20
2.270873
 30
0.0
 11
3.565357
 21
2.313913
 31
0.0
0
LINE
  5
110
100
AcDbEntity
  8
0
100
AcDbLine
 10
3.565357
 20
2.313913
 30
0.0
 11
3.550090
 21
2.357010
 31
0.0
0
LINE
  5
111
100
AcDbEntity
  8
0
100
AcDbLine
 10
3.550090
 20
2.357010
 30
0.0
 11
3.534024
 21
2.400140
 31
0.0
0
LINE
  5
112
100
AcDbEntity
  8
0
100
AcDbLine
 10
3.534024
 20
2.400140
 30
0.0
 11
3.517152
 21
2.443284
 31
0.0
0
LINE
  5
113
100
AcDbEntity
  8
0
100
AcDbLine
 10
3.517152
 20
2.443284
 30
0.0
 11
3.499469
 21
2.486417
 31
0.0
0
LINE
  5
114
100
AcDbEntity
  8
0
100
AcDbLine
 10
3.499469
 20
2.486417
 30
0.0
 11
3.480971
 21
2.529519
 31
0.0
0
LINE
  5
115
100
AcDbEntity
  8
0
100
AcDbLine
 10
3.480971
 20
2.529519
 30
0.0
 11
3.461653
 21
2.572567
 31
0.0
0
LINE
  5
116
100
AcDbEntity
  8
0
100
AcDbLine
 10
3.461653
 20
2.572567
 30
0.0
 11
3.441513
 21
2.615537
 31
0.0
0
LINE
  5
117
100
AcDbEntity
  8
0
100
AcDbLine
 10
3.441513
 20
2.615537
 30
0.0
 11
3.420549
 21
2.658407
 31
0.0
0
LINE
  5
118
100
AcDbEntity
  8
0
100
AcDbLine
 10
3.420549
 20
2.658407
 30
0.0
 11
3.398758
 21
2.701154
 31
0.0
0
LINE
  5
119
100
AcDbEntity
  8
0
100
AcDbLine
 10
3.398758
 20
2.701154
 30
0.0
 11
3.376141
 21
2.743755
 31
0.0
0
LINE
  5
120
100
AcDbEntity
  8
0
100
AcDbLine
 10
3.376141
 20
2.743755
 30
0.0
 11
3.352697
 21
2.786187
 31
0.0
0
LINE
  5
121
100
AcDbEntity
  8
0
100
AcDbLine
 10
3.352697
 20
2.786187
 30
0.0
 11
3.328427
 21
2.828427
 31
0.0
0
LINE
  5
122
100
AcDbEntity
  8
0
100
AcDbLine
 10
3.328427
 20
2.828427
 30
0.0
 11
3.303332
 21
2.870452
 31
0.0
0
LINE
  5
123
100
AcDbEntity
  8
0
100
AcDbLine
 10
3.303332
 20
2.870452
 30
0.0
 11
3.277416
 21
2.912237
 31
0.0
0
LINE
  5
124
100
AcDbEntity
  8
0
100
AcDbLine
 10
3.277416
 20
2.912237
 30
0.0
 11
3.250679
 21
2.953762
 31
0.0
0
LINE
  5
125
100
AcDbEntity
  8
0
100
AcDbLine
 10
3.250679
 20
2.953762
 30
0.0
 11
3.223127
 21
2.995001
 31
0.0
0
LINE
  5
126
100
AcDbEntity
  8
0
100
AcDbLine
 10
3.223127
 20
2.995001
 30
0.0
 11
3.194765
 21
3.035933
 31
0.0
0
LINE
  5
127
100
AcDbEntity
  8
0
100
AcDbLine
 10
3.194765
 20
3.035933
 30
0.0
 11
3.165596
 21
3.076535
 31
0.0
0
LINE
  5
128
100
AcDbEntity
  8
0
100
AcDbLine
 10
3.165596
 20
3.076535
 30
0.0
 11
3.135628
 21
3.116784
 31
0.0
0
LINE
  5
129
100
AcDbEntity
  8
0
100
AcDbLine
 10
3.135628
 20
3.116784
 30
0.0
 11
3.104867
 21
3.156657
 31
0.0
0
LINE
  5
130
100
AcDbEntity
  8
0
100
AcDbLine
 10
3.104867
 20
3.156657
 30
0.0
 11
3.073320
 21
3.196132
 31
0.0
0
LINE
  5
131
100
AcDbEntity
  8
0
100
AcDbLine
 10
3.073320
 20
3.196132
 30
0.0
 11
3.040997
 21
3.235188
 31
0.0
0
LINE
  5
132
100
AcDbEntity
  8
0
100
AcDbLine
 10
3.040997
 20
3.235188
 30
0.0
 11
3.007905
 21
3.273802
 31
0.0
0
LINE
  5
133
100
AcDbEntity
  8
0
100
AcDbLine
 10
3.007905
 20
3.273802
 30
0.0
 11
2.974054
 21
3.311952
 31
0.0
0
LINE
  5
134
100
AcDbEntity
  8
0
100
AcDbLine
 10
2.974054
 20
3.311952
 30
0.0
 11
2.939456
 21
3.349618
 31
0.0
0
LINE
  5
135
100
AcDbEntity
  8
0
100
AcDbLine
 10
2.939456
 20
3.349618
 30
0.0
 11
2.904120
 21
3.386779
 31
0.0
0
LINE
  5
136
100
AcDbEntity
  8
0
100
AcDbLine
 10
2.904120
 20
3.386779
 30
0.0
 11
2.868058
 21
3.423413
 31
0.0
0
LINE
  5
137
100
AcDbEntity
  8
0
100
AcDbLine
 10
2.868058
 20
3.423413
 30
0.0
 11
2.831284
 21
3.459502
 31
0.0
0
LINE
  5
138
100
AcDbEntity
  8
0
100
AcDbLine
 10
2.831284
 20
3.459502
 30
0.0
 11
2.793810
 21
3.495024
 31
0.0
0
LINE
  5
139
100
AcDbEntity
  8
0
100
AcDbLine
 10
2.793810
 20
3.495024
 30
0.0
 11
2.755650
 21
3.529961
 31
0.0
0
LINE
  5
140
100
AcDbEntity
  8
0
100
AcDbLine
 10
2.755650
 20
3.529961
 30
0.0
 11
2.716817
 21
3.564293
 31
0.0
0
LINE
  5
141
100
AcDbEntity
  8
0
100
AcDbLine
 10
2.716817
 20
3.564293
 30
0.0
 11
2.677328
 21
3.598002
 31
0.0
0
LINE
  5
142
100
AcDbEntity
  8
0
100
AcDbLine
 10
2.677328
 20
3.598002
 30
0.0
 11
2.637197
 21
3.631070
 31
0.0
0
LINE
  5
143
100
AcDbEntity
  8
0
100
AcDbLine
 10
2.637197
 20
3.631070
 30
0.0
 11
2.596442
 21
3.663479
 31
0.0
0
LINE
  5
144
100
AcDbEntity
  8
0
100
AcDbLine
 10
2.596442
 20
3.663479
 30
0.0
 11
2.555077
 21
3.695213
 31
0.0
0
LINE
  5
145
100
AcDbEntity
  8
0
100
AcDbLine
 10
2.555077
 20
3.695213
 30
0.0
 11
2.513121
 21
3.726255
 31
0.0
0
LINE
  5
146
100
AcDbEntity
  8
0
100
AcDbLine
 10
2.513121
 20
3.726255
 30
0.0
 11
2.470592
 21
3.756588
 31
0.0
0
LINE
  5
147
100
AcDbEntity
  8
0
100
AcDbLine
 10
2.470592
 20
3.756588
 30
0.0
 11
2.427508
 21
3.786198
 31
0.0
0
LINE
  5
148
100
AcDbEntity
  8
0
100
AcDbLine
 10
2.427508
 20
3.786198
 30
0.0
 11
2.383887
 21
3.815069
 31
0.0
0
LINE
  5
149
100
AcDbEntity
  8
0
100
AcDbLine
 10
2.383887
 20
3.815069
 30
0.0
 11
2.339749
 21
3.843188
 31
0.0
0
LINE
  5
150
100
AcDbEntity
  8
0
100
AcDbLine
 10
2.339749
 20
3.843188
 30
0.0
 11
2.295113
 21
3.870541
 31
0.0
0
LINE
  5
151
100
AcDbEntity
  8
0
100
AcDbLine
 10
2.295113
 20
3.870541
 30
0.0
 11
2.250000
 21
3.897114
 31
0.0
0
LINE
  5
152
100
AcDbEntity
  8
0
100
AcDbLine
 10
2.250000
 20
3.897114
 30
0.0
 11
2.204430
 21
3.922897
 31
0.0
0
LINE
  5
153
100
AcDbEntity
  8
0
100
AcDbLine
 10
2.204430
 20
3.922897
 30
0.0
 11
2.158424
 21
3.947876
 31
0.0
0
LINE
  5
154
100
AcDbEntity
  8
0
100
AcDbLine
 10
2.158424
 20
3.947876
 30
0.0
 11
2.112003
 21
3.972041
 31
0.0
0
LINE
  5
155
100
AcDbEntity
  8
0
100
AcDbLine
 10
2.112003
 20
3.972041
 30
0.0
 11
2.065190
 21
3.995382
 31
0.0
0
LINE
  5
156
100
AcDbEntity
  8
0
100
AcDbLine
 10
2.065190
 20
3.995382
 30
0.0
 11
2.018005
 21
4.017890
 31
0.0
0
LINE
  5
157
100
AcDbEntity
  8
0
100
AcDbLine
 10
2.018005
 20
4.017890
 30
0.0
 11
1.970470
 21
4.039554
 31
0.0
0
LINE
  5
158
100
AcDbEntity
  8
0
100
AcDbLine
 10
1.970470
 20
4.039554
 30
0.0
 11
1.922610
 21
4.060368
 31
0.0
0
LINE
  5
159
100
AcDbEntity
  8
0
100
AcDbLine
 10
1.922610
 20
4.060368
 30
0.0
 11
1.874446
 21
4.080324
 31
0.0
0
LINE
  5
160
100
AcDbEntity
  8
0
100
AcDbLine
 10
1.874446
 20
4.080324
 30
0.0
 11
1.826000
 21
4.099415
 31
0.0
0
LINE
  5
161
100
AcDbEntity
  8
0
100
AcDbLine
 10
1.826000
 20
4.099415
 30
0.0
 11
1.777297
 21
4.117635
 31
0.0
0
LINE
  5
162
100
AcDbEntity
  8
0
100
AcDbLine
 10
1.777297
 20
4.117635
 30
0.0
 11
1.728360
 21
4.134979
 31
0.0
0
LINE
  5
163
100
AcDbEntity
  8
0
100
AcDbLine
 10
1.728360
 20
4.134979
 30
0.0
 11
1.679211
 21
4.151443
 31
0.0
0
LINE
  5
164
100
AcDbEntity
  8
0
100
AcDbLine
 10
1.679211
 20
4.151443
 30
0.0
 11
1.629875
 21
4.167022
 31
0.0
0
LINE
  5
165
100
AcDbEntity
  8
0
100
AcDbLine
 10
1.629875
 20
4.167022
 30
0.0
 11
1.580374
 21
4.181715
 31
0.0
0
LINE
  5
166
100
AcDbEntity
  8
0
100
AcDbLine
 10
1.580374
 20
4.181715
 30
0.0
 11
1.530734
 21
4.195518
 31
0.0
0
LINE
  5
167
100
AcDbEntity
  8
0
100
AcDbLine
 10
1.530734
 20
4.195518
 30
0.0
 11
1.480977
 21
4.208431
 31
0.0
0
LINE
  5
168
100
AcDbEntity
  8
0
100
AcDbLine
 10
1.480977
 20
4.208431
 30
0.0
 11
1.431127
 21
4.220452
 31
0.0
0
LINE
  5
169
100
AcDbEntity
  8
0
100
AcDbLine
 10
1.431127
 20
4.220452
 30
0.0
 11
1.381208
 21
4.231583
 31
0.0
0
LINE
  5
170
100
AcDbEntity
  8
0
100
AcDbLine
 10
1.381208
 20
4.231583
 30
0.0
 11
1.331243
 21
4.241823
 31
0.0
0
LINE
  5
171
100
AcDbEntity
  8
0
100
AcDbLine
 10
1.331243
 20
4.241823
 30
0.0
 11
1.281256
 21
4.251174
 31
0.0
0
LINE
  5
172
100
AcDbEntity
  8
0
100
AcDbLine
 10
1.281256
 20
4.251174
 30
0.0
 11
1.231272
 21
4.259640
 31
0.0
0
LINE
  5
173
100
AcDbEntity
  8
0
100
AcDbLine
 10
1.231272
 20
4.259640
 30
0.0
 11
1.181312
 21
4.267222
 31
0.0
0
LINE
  5
174
100
AcDbEntity
  8
0
100
AcDbLine
 10
1.181312
 20
4.267222
 30
0.0
 11
1.131400
 21
4.273925
 31
0.0
0
LINE
  5
175
100
AcDbEntity
  8
0
100
AcDbLine
 10
1.131400
 20
4.273925
 30
0.0
 11
1.081559
 21
4.279754
 31
0.0
0
LINE
  5
176
100
AcDbEntity
  8
0
100
AcDbLine
 10
1.081559
 20
4.279754
 30
0.0
 11
1.031813
 21
4.284714
 31
0.0
0
LINE
  5
177
100
AcDbEntity
  8
0
100
AcDbLine
 10
1.031813
 20
4.284714
 30
0.0
 11
0.982184
 21
4.288811
 31
0.0
0
LINE
  5
178
100
AcDbEntity
  8
0
100
AcDbLine
 10
0.982184
 20
4.288811
 30
0.0
 11
0.932693
 21
4.292052
 31
0.0
0
LINE
  5
179
100
AcDbEntity
  8
0
100
AcDbLine
 10
0.932693
 20
4.292052
 30
0.0
 11
0.883364
 21
4.294444
 31
0.0
0
LINE
  5
180
100
AcDbEntity
  8
0
100
AcDbLine
 10
0.883364
 20
4.294444
 30
0.0
 11
0.834218
 21
4.295996
 31
0.0
0
LINE
  5
181
100
AcDbEntity
  8
0
100
AcDbLine
 10
0.834218
 20
4.295996
 30
0.0
 11
0.785276
 21
4.296716
 31
0.0
0
LINE
  5
182
100
AcDbEntity
  8
0
100
AcDbLine
 10
0.785276
 20
4.296716
 30
0.0
 11
0.736560
 21
4.296615
 31
0.0
0
LINE
  5
183
100
AcDbEntity
  8
0
100
AcDbLine
 10
0.736560
 20
4.296615
 30
0.0
 11
0.688091
 21
4.295702
 31
0.0
0
LINE
  5
184
100
AcDbEntity
  8
0
100
AcDbLine
 10
0.688091
 20
4.295702
 30
0.0
 11
0.639889
 21
4.293988
 31
0.0
0
LINE
  5
185
100
AcDbEntity
  8
0
100
AcDbLine
 10
0.639889
 20
4.293988
 30
0.0
 11
0.591973
 21
4.291486
 31
0.0
0
LINE
  5
186
100
AcDbEntity
  8
0
100
AcDbLine
 10
0.591973
 20
4.291486
 30
0.0
 11
0.544365
 21
4.288206
 31
0.0
0
LINE
  5
187
100
AcDbEntity
  8
0
100
AcDbLine
 10
0.544365
 20
4.288206
 30
0.0
 11
0.497081
 21
4.284163
 31
0.0
0
LINE
  5
188
100
AcDbEntity
  8
0
100
AcDbLine
 10
0.497081
 20
4.284163
 30
0.0
 11
0.450143
 21
4.279369
 31
0.0
0
LINE
  5
189
100
AcDbEntity
  8
0
100
AcDbLine
 10
0.450143
 20
4.279369
 30
0.0
 11
0.403566
 21
4.273838
 31
0.0
0
LINE
  5
190
100
AcDbEntity
  8
0
100
AcDbLine
 10
0.403566
 20
4.273838
 30
0.0
 11
0.357370
 21
4.267585
 31
0.0
0
LINE
  5
191
100
AcDbEntity
  8
0
100
AcDbLine
 10
0.357370
 20
4.267585
 30
0.0
 11
0.311570
 21
4.260625
 31
0.0
0
LINE
  5
192
100
AcDbEntity
  8
0
100
AcDbLine
 10
0.311570
 20
4.260625
 30
0.0
 11
0.266185
 21
4.252973
 31
0.0
0
LINE
  5
193
100
AcDbEntity
  8
0
100
AcDbLine
 10
0.266185
 20
4.252973
 30
0.0
 11
0.221229
 21
4.244646
 31
0.0
0
LINE
  5
194
100
AcDbEntity
  8
0
100
AcDbLine
 10
0.221229
 20
4.244646
 30
0.0
 11
0.176719
 21
4.235660
 31
0.0
0
LINE
  5
195
100
AcDbEntity
  8
0
100
AcDbLine
 10
0.176719
 20
4.235660
 30
0.0
 11
0.132668
 21
4.226032
 31
0.0
0
LINE
  5
196
100
AcDbEntity
  8
0
100
AcDbLine
 10
0.132668
 20
4.226032
 30
0.0
 11
0.089092
 21
4.215779
 31
0.0
0
LINE
  5
197
100
AcDbEntity
  8
0
100
AcDbLine
 10
0.089092
 20
4.215779
 30
0.0
 11
0.046004
 21
4.204920
 31
0.0
0
LINE
  5
198
100
AcDbEntity
  8
0
100
AcDbLine
 10
0.046004
 20
4.204920
 30
0.0
 11
0.003416
 21
4.193473
 31
0.0
0
LINE
  5
199
100
AcDbEntity
  8
0
100
AcDbLine
 10
0.003416
 20
4.193473
 30
0.0
 11
-0.038659
 21
4.181456
 31
0.0
0
LINE
  5
200
100
AcDbEntity
  8
0
100
AcDbLine
 10
-0.038659
 20
4.181456
 30
0.0
 11
-0.080209
 21
4.168888
 31
0.0
0
LINE
  5
201
100
AcDbEntity
  8
0
100
AcDbLine
 10
-0.080209
 20
4.168888
 30
0.0
 11
-0.121223
 21
4.155789
 31
0.0
0
LINE
  5
202
100
AcDbEntity
  8
0
100
AcDbLine
 10
-0.121223
 20
4.155789
 30
0.0
 11
-0.161692
 21
4.142178
 31
0.0
0
LINE
  5
203
100
AcDbEntity
  8
0
100
AcDbLine
 10
-0.161692
 20
4.142178
 30
0.0
 11
-0.201605
 21
4.128075
 31
0.0
0
LINE
  5
204
100
AcDbEntity
  8
0
100
AcDbLine
 10
-0.201605
 20
4.128075
 30
0.0
 11
-0.240954
 21
4.113500
 31
0.0
0
LINE
  5
205
100
AcDbEntity
  8
0
100
AcDbLine
 10
-0.240954
 20
4.113500
 30
0.0
 11
-0.279730
 21
4.098474
 31
0.0
0
LINE
  5
206
100
AcDbEntity
  8
0
100
AcDbLine
 10
-0.279730
 20
4.098474
 30
0.0
 11
-0.317926
 21
4.083017
 31
0.0
0
LINE
  5
207
100
AcDbEntity
  8
0
100
AcDbLine
 10
-0.317926
 20
4.083017
 30
0.0
 11
-0.355536
 21
4.067150
 31
0.0
0
LINE
  5
208
100
AcDbEntity
  8
0
100
AcDbLine
 10
-0.355536
 20
4.067150
 30
0.0
 11
-0.392553
 21
4.050894
 31
0.0
0
LINE
  5
209
100
AcDbEntity
  8
0
100
AcDbLine
 10
-0.392553
 20
4.050894
 30
0.0
 11
-0.428972
 21
4.034269
 31
0.0
0
LINE
  5
210
100
AcDbEntity
  8
0
100
AcDbLine
 10
-0.428972
 20
4.034269
 30
0.0
 11
-0.464789
 21
4.017297
 31
0.0
0
LINE
  5
211
100
AcDbEntity
  8
0
100
AcDbLine
 10
-0.464789
 20
4.017297
 30
0.0
 11
-0.500000
 21
4.000000
 31
0.0
0
LINE
  5
212
100
AcDbEntity
  8
0
100
AcDbLine
 10
-0.500000
 20
4.000000
 30
0.0
 11
-0.534602
 21
3.982398
 31
0.0
0
LINE
  5
213
100
AcDbEntity
  8
0
100
AcDbLine
 10
-0.534602
 20
3.982398
 30
0.0
 11
-0.568592
 21
3.964513
 31
0.0
0
LINE
  5
214
100
AcDbEntity
  8
0
100
AcDbLine
 10
-0.568592
 20
3.964513
 30
0.0
 11
-0.601969
 21
3.946365
 31
0.0
0
LINE
  5
215
100
AcDbEntity
  8
0
100
AcDbLine
 10
-0.601969
 20
3.946365
 30
0.0
 11
-0.634732
 21
3.927977
 31
0.0
0
LINE
  5
216
100
AcDbEntity
  8
0
100
AcDbLine
 10
-0.634732
 20
3.927977
 30
0.0
 11
-0.666881
 21
3.909369
 31
0.0
0
LINE
  5
217
100
AcDbEntity
  8
0
100
AcDbLine
 10
-0.666881
 20
3.909369
 30
0.0
 11
-0.698418
 21
3.890562
 31
0.0
0
LINE
  5
218
100
AcDbEntity
  8
0
100
AcDbLine
 10
-0.698418
 20
3.890562
 30
0.0
 11
-0.729342
 21
3.871578
 31
0.0
0
LINE
  5
219
100
AcDbEntity
  8
0
100
AcDbLine
 10
-0.729342
 20
3.871578
 30
0.0
 11
-0.759657
 21
3.852438
 31
0.0
0
LINE
  5
220
100
AcDbEntity
  8
0
100
AcDbLine
 10
-0.759657
 20
3.852438
 30
0.0
 11
-0.789365
 21
3.833161
 31
0.0
0
LINE
  5
221
100
AcDbEntity
  8
0
100
AcDbLine
 10
-0.789365
 20
3.833161
 30
0.0
 11
-0.818469
 21
3.813769
 31
0.0
0
LINE
  5
222
100
AcDbEntity
  8
0
100
AcDbLine
 10
-0.818469
 20
3.813769
 30
0.0
 11
-0.846975
 21
3.794281
 31
0.0
0
LINE
  5
223
100
AcDbEntity
  8
0
100
AcDbLine
 10
-0.846975
 20
3.794281
 30
0.0
 11
-0.874887
 21
3.774719
 31
0.0
0
LINE
  5
224
100
AcDbEntity
  8
0
100
AcDbLine
 10
-0.874887
 20
3.774719
 30
0.0
 11
-0.902210
 21
3.755102
 31
0.0
0
LINE
  5
225
100
AcDbEntity
  8
0
100
AcDbLine
 10
-0.902210
 20
3.755102
 30
0.0
 11
-0.928951
 21
3.735449
 31
0.0
0
LINE
  5
226
100
AcDbEntity
  8
0
100
AcDbLine
 10
-0.928951
 20
3.735449
 30
0.0
 11
-0.955117
 21
3.715779
 31
0.0
0
LINE
  5
227
100
AcDbEntity
  8
0
100
AcDbLine
 10
-0.955117
 20
3.715779
 30
0.0
 11
-0.980716
 21
3.696113
 31
0.0
0
LINE
  5
228
100
AcDbEntity
  8
0
100
AcDbLine
 10
-0.980716
 20
3.696113
 30
0.0
 11
-1.005756
 21
3.676467
 31
0.0
0
LINE
  5
229
100
AcDbEntity
  8
0
100
AcDbLine
 10
-1.005756
 20
3.676467
 30
0.0
 11
-1.030246
 21
3.656861
 31
0.0
0
LINE
  5
230
100
AcDbEntity
  8
0
100
AcDbLine
 10
-1.030246
 20
3.656861
 30
0.0
 11
-1.054196
 21
3.637312
 31
0.0
0
LINE
  5
231
100
AcDbEntity
  8
0
100
AcDbLine
 10
-1.054196
 20
3.637312
 30
0.0
 11
-1.077615
 21
3.617837
 31
0.0
0
LINE
  5
232
100
AcDbEntity
  8
0
100
AcDbLine
 10
-1.077615
 20
3.617837
 30
0.0
 11
-1.100515
 21
3.598454
 31
0.0
0
LINE
  5
233
100
AcDbEntity
  8
0
100
AcDbLine
 10
-1.100515
 20
3.598454
 30
0.0
 11
-1.122906
 21
3.579180
 31
0.0
0
LINE
  5
234
100
AcDbEntity
  8
0
100
AcDbLine
 10
-1.122906
 20
3.579180
 30
0.0
 11
-1.144801
 21
3.560029
 31
0.0
0
LINE
  5
235
100
AcDbEntity
  8
0
100
AcDbLine
 10
-1.144801
 20
3.560029
 30
0.0
 11
-1.166212
 21
3.541018
 31
0.0
0
LINE
  5
236
100
AcDbEntity
  8
0
100
AcDbLine
 10
-1.166212
 20
3.541018
 30
0.0
 11
-1.187152
 21
3.522162
 31
0.0
0
LINE
  5
237
100
AcDbEntity
  8
0
100
AcDbLine
 10
-1.187152
 20
3.522162
 30
0.0
 11
-1.207635
 21
3.503475
 31
0.0
0
LINE
  5
238
100
AcDbEntity
  8
0
100
AcDbLine
 10
-1.207635
 20
3.503475
 30
0.0
 11
-1.227674
 21
3.484971
 31
0.0
0
LINE
  5
239
100
AcDbEntity
  8
0
100
AcDbLine
 10
-1.227674
 20
3.484971
 30
0.0
 11
-1.247284
 21
3.466664
 31
0.0
0
LINE
  5
240
100
AcDbEntity
  8
0
100
AcDbLine
 10
-1.247284
 20
3.466664
 30
0.0
 11
-1.266480
 21
3.448567
 31
0.0
0
LINE
  5
241
100
AcDbEntity
  8
0
100
AcDbLine
 10
-1.266480
 20
3.448567
 30
0.0
 11
-1.285276
 21
3.430691
 31
0.0
0
LINE
  5
242
100
AcDbEntity
  8
0
100
AcDbLine
 10
-1.285276
 20
3.430691
 30
0.0
 11
-1.303689
 21
3.413048
 31
0.0
0
LINE
  5
243
100
AcDbEntity
  8
0
100
AcDbLine
 10
-1.303689
 20
3.413048
 30
0.0
 11
-1.321735
 21
3.395650
 31
0.0
0
LINE
  5
244
100
AcDbEntity
  8
0
100
AcDbLine
 10
-1.321735
 20
3.395650
 30
0.0
 11
-1.339430
 21
3.378506
 31
0.0
0
LINE
  5
245
100
AcDbEntity
  8
0
100
AcDbLine
 10
-1.339430
 20
3.378506
 30
0.0
 11
-1.356790
 21
3.361627
 31
0.0
0
LINE
  5
246
100
AcDbEntity
  8
0
100
AcDbLine
 10
-1.356790
 20
3.361627
 30
0.0
 11
-1.373833
 21
3.345021
 31
0.0
0
LINE
  5
247
100
AcDbEntity
  8
0
100
AcDbLine
 10
-1.373833
 20
3.345021
 30
0.0
 11
-1.390576
 21
3.328698
 31
0.0
0
LINE
  5
248
100
AcDbEntity
  8
0
100
AcDbLine
 10
-1.390576
 20
3.328698
 30
0.0
 11
-1.407037
 21
3.312664
 31
0.0
0
LINE
  5
249
100
AcDbEntity
  8
0
100
AcDbLine
 10
-1.407037
 20
3.312664
 30
0.0
 11
-1.423234
 21
3.296926
 31
0.0
0
LINE
  5
250
100
AcDbEntity
  8
0
100
AcDbLine
 10
-1.423234
 20
3.296926
 30
0.0
 11
-1.439183
 21
3.281492
 31
0.0
0
LINE
  5
251
100
AcDbEntity
  8
0
100
AcDbLine
 10
-1.439183
 20
3.281492
 30
0.0
 11
-1.454905
 21
3.266367
 31
0.0
0
LINE
  5
252
100
AcDbEntity
  8
0
100
AcDbLine
 10
-1.454905
 20
3.266367
 30
0.0
 11
-1.470416
 21
3.251555
 31
0.0
0
LINE
  5
253
100
AcDbEntity
  8
0
100
AcDbLine
 10
-1.470416
 20
3.251555
 30
0.0
 11
-1.485736
 21
3.237061
 31
0.0
0
LINE
  5
254
100
AcDbEntity
  8
0
100
AcDbLine
 10
-1.485736
 20
3.237061
 30
0.0
 11
-1.500883
 21
3.222888
 31
0.0
0
LINE
  5
255
100
AcDbEntity
  8
0
100
AcDbLine
 10
-1.500883
 20
3.222888
 30
0.0
 11
-1.515876
 21
3.209040
 31
0.0
0
LINE
  5
256
100
AcDbEntity
  8
0
100
AcDbLine
 10
-1.515876
 20
3.209040
 30
0.0
 11
-1.530734
 21
3.195518
 31
0.0
0
LINE
  5
257
100
AcDbEntity
  8
0
100
AcDbLine
 10
-1.530734
 20
3.195518
 30
0.0
 11
-1.545475
 21
3.182324
 31
0.0
0
LINE
  5
258
100
AcDbEntity
  8
0
100
AcDbLine
 10
-1.545475
 20
3.182324
 30
0.0
 11
-1.560118
 21
3.169458
 31
0.0
0
LINE
  5
259
100
AcDbEntity
  8
0
100
AcDbLine
 10
-1.560118
 20
3.169458
 30
0.0
 11
-1.574682
 21
3.156921
 31
0.0
0
LINE
  5
260
100
AcDbEntity
  8
0
100
AcDbLine
 10
-1.574682
 20
3.156921
 30
0.0
 11
-1.589186
 21
3.144711
 31
0.0
0
LINE
  5
261
100
AcDbEntity
  8
0
100
AcDbLine
 10
-1.589186
 20
3.144711
 30
0.0
 11
-1.603649
 21
3.132827
 31
0.0
0
LINE
  5
262
100
AcDbEntity
  8
0
100
AcDbLine
 10
-1.603649
 20
3.132827
 30
0.0
 11
-1.618089
 21
3.121267
 31
0.0
0
LINE
  5
263
100
AcDbEntity
  8
0
100
AcDbLine
 10
-1.618089
 20
3.121267
 30
0.0
 11
-1.632524
 21
3.110028
 31
0.0
0
LINE
  5
264
100
AcDbEntity
  8
0
100
AcDbLine
 10
-1.632524
 20
3.110028
 30
0.0
 11
-1.646973
 21
3.099107
 31
0.0
0
LINE
  5
265
100
AcDbEntity
  8
0
100
AcDbLine
 10
-1.646973
 20
3.099107
 30
0.0
 11
-1.661454
 21
3.088498
 31
0.0
0
LINE
  5
266
100
AcDbEntity
  8
0
100
AcDbLine
 10
-1.661454
 20
3.088498
 30
0.0
 11
-1.675984
 21
3.078197
 31
0.0
0
LINE
  5
267
100
AcDbEntity
  8
0
100
AcDbLine
 10
-1.675984
 20
3.078197
 30
0.0
 11
-1.690583
 21
3.068198
 31
0.0
0
LINE
  5
268
100
AcDbEntity
  8
0
100
AcDbLine
 10
-1.690583
 20
3.068198
 30
0.0
 11
-1.705267
 21
3.058496
 31
0.0
0
LINE
  5
269
100
AcDbEntity
  8
0
100
AcDbLine
 10
-1.705267
 20
3.058496
 30
0.0
 11
-1.720053
 21
3.049082
 31
0.0
0
LINE
  5
270
100
AcDbEntity
  8
0
100
AcDbLine
 10
-1.720053
 20
3.049082
 30
0.0
 11
-1.734958
 21
3.039949
 31
0.0
0
LINE
  5
271
100
AcDbEntity
  8
0
100
AcDbLine
 10
-1.734958
 20
3.039949
 30
0.0
 11
-1.750000
 21
3.031089
 31
0.0
0
LINE
  5
272
100
AcDbEntity
  8
0
100
AcDbLine
 10
-1.750000
 20
3.031089
 30
0.0
 11
-1.765194
 21
3.022493
 31
0.0
0
LINE
  5
273
100
AcDbEntity
  8
0
100
AcDbLine
 10
-1.765194
 20
3.022493
 30
0.0
 11
-1.780556
 21
3.014150
 31
0.0
0
LINE
  5
274
100
AcDbEntity
  8
0
100
AcDbLine
 10
-1.780556
 20
3.014150
 30
0.0
 11
-1.796102
 21
3.006052
 31
0.0
0
LINE
  5
275
100
AcDbEntity
  8
0
100
AcDbLine
 10
-1.796102
 20
3.006052
 30
0.0
 11
-1.811846
 21
2.998187
 31
0.0
0
LINE
  5
276
100
AcDbEntity
  8
0
100
AcDbLine
 10
-1.811846
 20
2.998187
 30
0.0
 11
-1.827805
 21
2.990544
 31
0.0
0
LINE
  5
277
100
AcDbEntity
  8
0
100
AcDbLine
 10
-1.827805
 20
2.990544
 30
0.0
 11
-1.843991
 21
2.983110
 31
0.0
0
LINE
  5
278
100
AcDbEntity
  8
0
100
AcDbLine
 10
-1.843991
 20
2.983110
 30
0.0
 11
-1.860419
 21
2.975873
 31
0.0
0
LINE
  5
279
100
AcDbEntity
  8
0
100
AcDbLine
 10
-1.860419
 20
2.975873
 30
0.0
 11
-1.877102
 21
2.968821
 31
0.0
0
LINE
  5
280
100
AcDbEntity
  8
0
100
AcDbLine
 10
-1.877102
 20
2.968821
 30
0.0
 11
-1.894053
 21
2.961939
 31
0.0
0
LINE
  5
281
100
AcDbEntity
  8
0
100
AcDbLine
 10
-1.894053
 20
2.961939
 30
0.0
 11
-1.911284
 21
2.955214
 31
0.0
0
LINE
  5
282
100
AcDbEntity
  8
0
100
AcDbLine
 10
-1.911284
 20
2.955214
 30
0.0
 11
-1.928806
 21
2.948631
 31
0.0
0
LINE
  5
283
100
AcDbEntity
  8
0
100
AcDbLine
 10
-1.928806
 20
2.948631
 30
0.0
 11
-1.946633
 21
2.942175
 31
0.0
0
LINE
  5
284
100
AcDbEntity
  8
0
100
AcDbLine
 10
-1.946633
 20
2.942175
 30
0.0
 11
-1.964772
 21
2.935831
 31
0.0
0
LINE
  5
285
100
AcDbEntity
  8
0
100
AcDbLine
 10
-1.964772
 20
2.935831
 30
0.0
 11
-1.983236
 21
2.929582
 31
0.0
0
LINE
  5
286
100
AcDbEntity
  8
0
100
AcDbLine
 10
-1.983236
 20
2.929582
 30
0.0
 11
-2.002033
 21
2.923413
 31
0.0
0
LINE
  5
287
100
AcDbEntity
  8
0
100
AcDbLine
 10
-2.002033
 20
2.923413
 30
0.0
 11
-2.021172
 21
2.917307
 31
0.0
0
LINE
  5
288
100
AcDbEntity
  8
0
100
AcDbLine
 10
-2.021172
 20
2.917307
 30
0.0
 11
-2.040662
 21
2.911247
 31
0.0
0
LINE
  5
289
100
AcDbEntity
  8
0
100
AcDbLine
 10
-2.040662
 20
2.911247
 30
0.0
 11
-2.060509
 21
2.905216
 31
0.0
0
LINE
  5
290
100
AcDbEntity
  8
0
100
AcDbLine
 10
-2.060509
 20
2.905216
 30
0.0
 11
-2.080721
 21
2.899195
 31
0.0
0
LINE
  5
291
100
AcDbEntity
  8
0
100
AcDbLine
 10
-2.080721
 20
2.899195
 30
0.0
 11
-2.101304
 21
2.893168
 31
0.0
0
LINE
  5
292
100
AcDbEntity
  8
0
100
AcDbLine
 10
-2.101304
 20
2.893168
 30
0.0
 11
-2.122264
 21
2.887115
 31
0.0
0
LINE
  5
293
100
AcDbEntity
  8
0
100
AcDbLine
 10
-2.122264
 20
2.887115
 30
0.0
 11
-2.143605
 21
2.881020
 31
0.0
0
LINE
  5
294
100
AcDbEntity
  8
0
100
AcDbLine
 10
-2.143605
 20
2.881020
 30
0.0
 11
-2.165332
 21
2.874862
 31
0.0
0
LINE
  5
295
100
AcDbEntity
  8
0
100
AcDbLine
 10
-2.165332
 20
2.874862
 30
0.0
 11
-2.187449
 21
2.868623
 31
0.0
0
LINE
  5
296
100
AcDbEntity
  8
0
100
AcDbLine
 10
-2.187449
 20
2.868623
 30
0.0
 11
-2.209957
 21
2.862285
 31
0.0
0
LINE
  5
297
100
AcDbEntity
  8
0
100
AcDbLine
 10
-2.209957
 20
2.862285
 30
0.0
 11
-2.232859
 21
2.855828
 31
0.0
0
LINE
  5
298
100
AcDbEntity
  8
0
100
AcDbLine
 10
-2.232859
 20
2.855828
 30
0.0
 11
-2.256157
 21
2.849233
 31
0.0
0
LINE
  5
299
100
AcDbEntity
  8
0
100
AcDbLine
 10
-2.256157
 20
2.849233
 30
0.0
 11
-2.279851
 21
2.842481
 31
0.0
0
LINE
  5
300
100
AcDbEntity
  8
0
100
AcDbLine
 10
-2.279851
 20
2.842481
 30
0.0
 11
-2.303942
 21
2.835552
 31
0.0
0
LINE
  5
301
100
AcDbEntity
  8
0
100
AcDbLine
 10
-2.303942
 20
2.835552
 30
0.0
 11
-2.328427
 21
2.828427
 31
0.0
0
LINE
  5
302
100
AcDbEntity
  8
0
100
AcDbLine
 10
-2.328427
 20
2.828427
 30
0.0
 11
-2.353306
 21
2.821087
 31
0.0
0
LINE
  5
303
100
AcDbEntity
  8
0
100
AcDbLine
 10
-2.353306
 20
2.821087
 30
0.0
 11
-2.378577
 21
2.813512
 31
0.0
0
LINE
  5
304
100
AcDbEntity
  8
0
100
AcDbLine
 10
-2.378577
 20
2.813512
 30
0.0
 11
-2.404237
 21
2.805683
 31
0.0
0
LINE
  5
305
100
AcDbEntity
  8
0
100
AcDbLine
 10
-2.404237
 20
2.805683
 30
0.0
 11
-2.430281
 21
2.797580
 31
0.0
0
LINE
  5
306
100
AcDbEntity
  8
0
100
AcDbLine
 10
-2.430281
 20
2.797580
 30
0.0
 11
-2.456705
 21
2.789185
 31
0.0
0
LINE
  5
307
100
AcDbEntity
  8
0
100
AcDbLine
 10
-2.456705
 20
2.789185
 30
0.0
 11
-2.483506
 21
2.780478
 31
0.0
0
LINE
  5
308
100
AcDbEntity
  8
0
100
AcDbLine
 10
-2.483506
 20
2.780478
 30
0.0
 11
-2.510675
 21
2.771441
 31
0.0
0
LINE
  5
309
100
AcDbEntity
  8
0
100
AcDbLine
 10
-2.510675
 20
2.771441
 30
0.0
 11
-2.538207
 21
2.762055
 31
0.0
0
LINE
  5
310
100
AcDbEntity
  8
0
100
AcDbLine
 10
-2.538207
 20
2.762055
 30
0.0
 11
-2.566096
 21
2.752301
 31
0.0
0
LINE
  5
311
100
AcDbEntity
  8
0
100
AcDbLine
 10
-2.566096
 20
2.752301
 30
0.0
 11
-2.594331
 21
2.742161
 31
0.0
0
LINE
  5
312
100
AcDbEntity
  8
0
100
AcDbLine
 10
-2.594331
 20
2.742161
 30
0.0
 11
-2.622906
 21
2.731616
 31
0.0
0
LINE
  5
313
100
AcDbEntity
  8
0
100
AcDbLine
 10
-2.622906
 20
2.731616
 30
0.0
 11
-2.651811
 21
2.720650
 31
0.0
0
LINE
  5
314
100
AcDbEntity
  8
0
100
AcDbLine
 10
-2.651811
 20
2.720650
 30
0.0
 11
-2.681036
 21
2.709244
 31
0.0
0
LINE
  5
315
100
AcDbEntity
  8
0
100
AcDbLine
 10
-2.681036
 20
2.709244
 30
0.0
 11
-2.710569
 21
2.697382
 31
0.0
0
LINE
  5
316
100
AcDbEntity
  8
0
100
AcDbLine
 10
-2.710569
 20
2.697382
 30
0.0
 11
-2.740401
 21
2.685046
 31
0.0
0
LINE
  5
317
100
AcDbEntity
  8
0
100
AcDbLine
 10
-2.740401
 20
2.685046
 30
0.0
 11
-2.770518
 21
2.672220
 31
0.0
0
LINE
  5
318
100
AcDbEntity
  8
0
100
AcDbLine
 10
-2.770518
 20
2.672220
 30
0.0
 11
-2.800909
 21
2.658888
 31
0.0
0
LINE
  5
319
100
AcDbEntity
  8
0
100
AcDbLine
 10
-2.800909
 20
2.658888
 30
0.0
 11
-2.831559
 21
2.645034
 31
0.0
0
LINE
  5
320
100
AcDbEntity
  8
0
100
AcDbLine
 10
-2.831559
 20
2.645034
 30
0.0
 11
-2.862457
 21
2.630643
 31
0.0
0
LINE
  5
321
100
AcDbEntity
  8
0
100
AcDbLine
 10
-2.862457
 20
2.630643
 30
0.0
 11
-2.893586
 21
2.615700
 31
0.0
0
LINE
  5
322
100
AcDbEntity
  8
0
100
AcDbLine
 10
-2.893586
 20
2.615700
 30
0.0
 11
-2.924932
 21
2.600190
 31
0.0
0
LINE
  5
323
100
AcDbEntity
  8
0
100
AcDbLine
 10
-2.924932
 20
2.600190
 30
0.0
 11
-2.956480
 21
2.584101
 31
0.0
0
LINE
  5
324
100
AcDbEntity
  8
0
100
AcDbLine
 10
-2.956480
 20
2.584101
 30
0.0
 11
-2.988214
 21
2.567418
 31
0.0
0
LINE
  5
325
100
AcDbEntity
  8
0
100
AcDbLine
 10
-2.988214
 20
2.567418
 30
0.0
 11
-3.020117
 21
2.550129
 31
0.0
0
LINE
  5
326
100
AcDbEntity
  8
0
100
AcDbLine
 10
-3.020117
 20
2.550129
 30
0.0
 11
-3.052172
 21
2.532221
 31
0.0
0
LINE
  5
327
100
AcDbEntity
  8
0
100
AcDbLine
 10
-3.052172
 20
2.532221
 30
0.0
 11
-3.084362
 21
2.513682
 31
0.0
0
LINE
  5
328
100
AcDbEntity
  8
0
100
AcDbLine
 10
-3.084362
 20
2.513682
 30
0.0
 11
-3.116668
 21
2.494503
 31
0.0
0
LINE
  5
329
100
AcDbEntity
  8
0
100
AcDbLine
 10
-3.116668
 20
2.494503
 30
0.0
 11
-3.149073
 21
2.474671
 31
0.0
0
LINE
  5
330
100
AcDbEntity
  8
0
100
AcDbLine
 10
-3.149073
 20
2.474671
 30
0.0
 11
-3.181557
 21
2.454177
 31
0.0
0
LINE
  5
331
100
AcDbEntity
  8
0
100
AcDbLine
 10
-3.181557
 20
2.454177
 30
0.0
 11
-3.214102
 21
2.433013
 31
0.0
0
LINE
  5
332
100
AcDbEntity
  8
0
100
AcDbLine
 10
-3.214102
 20
2.433013
 30
0.0
 11
-3.246687
 21
2.411168
 31
0.0
0
LINE
  5
333
100
AcDbEntity
  8
0
100
AcDbLine
 10
-3.246687
 20
2.411168
 30
0.0
 11
-3.279293
 21
2.388636
 31
0.0
0
LINE
  5
334
100
AcDbEntity
  8
0
100
AcDbLine
 10
-3.279293
 20
2.388636
 30
0.0
 11
-3.311900
 21
2.365408
 31
0.0
0
LINE
  5
335
100
AcDbEntity
  8
0
100
AcDbLine
 10
-3.311900
 20
2.365408
 30
0.0
 11
-3.344487
 21
2.341478
 31
0.0
0
LINE
  5
336
100
AcDbEntity
  8
0
100
AcDbLine
 10
-3.344487
 20
2.341478
 30
0.0
 11
-3.377033
 21
2.316841
 31
0.0
0
LINE
  5
337
100
AcDbEntity
  8
0
100
AcDbLine
 10
-3.377033
 20
2.316841
 30
0.0
 11
-3.409518
 21
2.291490
 31
0.0
0
LINE
  5
338
100
AcDbEntity
  8
0
100
AcDbLine
 10
-3.409518
 20
2.291490
 30
0.0
 11
-3.441919
 21
2.265422
 31
0.0
0
LINE
  5
339
100
AcDbEntity
  8
0
100
AcDbLine
 10
-3.441919
 20
2.265422
 30
0.0
 11
-3.474215
 21
2.238632
 31
0.0
0
LINE
  5
340
100
AcDbEntity
  8
0
100
AcDbLine
 10
-3.474215
 20
2.238632
 30
0.0
 11
-3.506385
 21
2.211118
 31
0.0
0
LINE
  5
341
100
AcDbEntity
  8
0
100
AcDbLine
 10
-3.506385
 20
2.211118
 30
0.0
 11
-3.538407
 21
2.182877
 31
0.0
0
LINE
  5
342
100
AcDbEntity
  8
0
100
AcDbLine
 10
-3.538407
 20
2.182877
 30
0.0
 11
-3.570259
 21
2.153907
 31
0.0
0
LINE
  5
343
100
AcDbEntity
  8
0
100
AcDbLine
 10
-3.570259
 20
2.153907
 30
0.0
 11
-3.601918
 21
2.124208
 31
0.0
0
LINE
  5
344
100
AcDbEntity
  8
0
100
AcDbLine
 10
-3.601918
 20
2.124208
 30
0.0
 11
-3.633362
 21
2.093778
 31
0.0
0
LINE
  5
345
100
AcDbEntity
  8
0
100
AcDbLine
 10
-3.633362
 20
2.093778
 30
0.0
 11
-3.664570
 21
2.062620
 31
0.0
0
LINE
  5
346
100
AcDbEntity
  8
0
100
AcDbLine
 10
-3.664570
 20
2.062620
 30
0.0
 11
-3.695518
 21
2.030734
 31
0.0
0
LINE
  5
347
100
AcDbEntity
  8
0
100
AcDbLine
 10
-3.695518
 20
2.030734
 30
0.0
 11
-3.726185
 21
1.998122
 31
0.0
0
LINE
  5
348
100
AcDbEntity
  8
0
100
AcDbLine
 10
-3.726185
 20
1.998122
 30
0.0
 11
-3.756549
 21
1.964787
 31
0.0
0
LINE
  5
349
100
AcDbEntity
  8
0
100
AcDbLine
 10
-3.756549
 20
1.964787
 30
0.0
 11
-3.786586
 21
1.930733
 31
0.0
0
LINE
  5
350
100
AcDbEntity
  8
0
100
AcDbLine
 10
-3.786586
 20
1.930733
 30
0.0
 11
-3.816275
 21
1.895964
 31
0.0
0
LINE
  5
351
100
AcDbEntity
  8
0
100
AcDbLine
 10
-3.816275
 20
1.895964
 30
0.0
 11
-3.845595
 21
1.860484
 31
0.0
0
LINE
  5
352
100
AcDbEntity
  8
0
100
AcDbLine
 10
-3.845595
 20
1.860484
 30
0.0
 11
-3.874522
 21
1.824301
 31
0.0
0
LINE
  5
353
100
AcDbEntity
  8
0
100
AcDbLine
 10
-3.874522
 20
1.824301
 30
0.0
 11
-3.903035
 21
1.787420
 31
0.0
0
LINE
  5
354
100
AcDbEntity
  8
0
100
AcDbLine
 10
-3.903035
 20
1.787420
 30
0.0
 11
-3.931113
 21
1.749849
 31
0.0
0
LINE
  5
355
100
AcDbEntity
  8
0
100
AcDbLine
 10
-3.931113
 20
1.749849
 30
0.0
 11
-3.958735
 21
1.711596
 31
0.0
0
LINE
  5
356
100
AcDbEntity
  8
0
100
AcDbLine
 10
-3.958735
 20
1.711596
 30
0.0
 11
-3.985878
 21
1.672670
 31
0.0
0
LINE
  5
357
100
AcDbEntity
  8
0
100
AcDbLine
 10
-3.985878
 20
1.672670
 30
0.0
 11
-4.012522
 21
1.633079
 31
0.0
0
LINE
  5
358
100
AcDbEntity
  8
0
100
AcDbLine
 10
-4.012522
 20
1.633079
 30
0.0
 11
-4.038647
 21
1.592834
 31
0.0
0
LINE
  5
359
100
AcDbEntity
  8
0
100
AcDbLine
 10
-4.038647
 20
1.592834
 30
0.0
 11
-4.064232
 21
1.551946
 31
0.0
0
LINE
  5
360
100
AcDbEntity
  8
0
100
AcDbLine
 10
-4.064232
 20
1.551946
 30
0.0
 11
-4.089258
 21
1.510427
 31
0.0
0
LINE
  5
361
100
AcDbEntity
  8
0
100
AcDbLine
 10
-4.089258
 20
1.510427
 30
0.0
 11
-4.113703
 21
1.468289
 31
0.0
0
LINE
  5
362
100
AcDbEntity
  8
0
100
AcDbLine
 10
-4.113703
 20
1.468289
 30
0.0
 11
-4.137550
 21
1.425544
 31
0.0
0
LINE
  5
363
100
AcDbEntity
  8
0
100
AcDbLine
 10
-4.137550
 20
1.425544
 30
0.0
 11
-4.160779
 21
1.382206
 31
0.0
0
LINE
  5
364
100
AcDbEntity
  8
0
100
AcDbLine
 10
-4.160779
 20
1.382206
 30
0.0
 11
-4.183372
 21
1.338290
 31
0.0
0
LINE
  5
365
100
AcDbEntity
  8
0
100
AcDbLine
 10
-4.183372
 20
1.338290
 30
0.0
 11
-4.205311
 21
1.293810
 31
0.0
0
LINE
  5
366
100
AcDbEntity
  8
0
100
AcDbLine
 10
-4.205311
 20
1.293810
 30
0.0
 11
-4.226578
 21
1.248781
 31
0.0
0
LINE
  5
367
100
AcDbEntity
  8
0
100
AcDbLine
 10
-4.226578
 20
1.248781
 30
0.0
 11
-4.247156
 21
1.203219
 31
0.0
0
LINE
  5
368
100
AcDbEntity
  8
0
100
AcDbLine
 10
-4.247156
 20
1.203219
 30
0.0
 11
-4.267028
 21
1.157142
 31
0.0
0
LINE
  5
369
100
AcDbEntity
  8
0
100
AcDbLine
 10
-4.267028
 20
1.157142
 30
0.0
 11
-4.286179
 21
1.110565
 31
0.0
0
LINE
  5
370
100
AcDbEntity
  8
0
100
AcDbLine
 10
-4.286179
 20
1.110565
 30
0.0
 11
-4.304592
 21
1.063507
 31
0.0
0
LINE
  5
371
100
AcDbEntity
  8
0
100
AcDbLine
 10
-4.304592
 20
1.063507
 30
0.0
 11
-4.322253
 21
1.015987
 31
0.0
0
LINE
  5
372
100
AcDbEntity
  8
0
100
AcDbLine
 10
-4.322253
 20
1.015987
 30
0.0
 11
-4.339148
 21
0.968021
 31
0.0
0
LINE
  5
373
100
AcDbEntity
  8
0
100
AcDbLine
 10
-4.339148
 20
0.968021
 30
0.0
 11
-4.355262
 21
0.919630
 31
0.0
0
LINE
  5
374
100
AcDbEntity
  8
0
100
AcDbLine
 10
-4.355262
 20
0.919630
 30
0.0
 11
-4.370582
 21
0.870834
 31
0.0
0
LINE
  5
375
100
AcDbEntity
  8
0
100
AcDbLine
 10
-4.370582
 20
0.870834
 30
0.0
 11
-4.385096
 21
0.821652
 31
0.0
0
LINE
  5
376
100
AcDbEntity
  8
0
100
AcDbLine
 10
-4.385096
 20
0.821652
 30
0.0
 11
-4.398792
 21
0.772105
 31
0.0
0
LINE
  5
377
100
AcDbEntity
  8
0
100
AcDbLine
 10
-4.398792
 20
0.772105
 30
0.0
 11
-4.411658
 21
0.722213
 31
0.0
0
LINE
  5
378
100
AcDbEntity
  8
0
100
AcDbLine
 10
-4.411658
 20
0.722213
 30
0.0
 11
-4.423684
 21
0.671998
 31
0.0
0
LINE
  5
379
100
AcDbEntity
  8
0
100
AcDbLine
 10
-4.423684
 20
0.671998
 30
0.0
 11
-4.434860
 21
0.621482
 31
0.0
0
LINE
  5
380
100
AcDbEntity
  8
0
100
AcDbLine
 10
-4.434860
 20
0.621482
 30
0.0
 11
-4.445177
 21
0.570686
 31
0.0
0
LINE
  5
381
100
AcDbEntity
  8
0
100
AcDbLine
 10
-4.445177
 20
0.570686
 30
0.0
 11
-4.454625
 21
0.519633
 31
0.0
0
LINE
  5
382
100
AcDbEntity
  8
0
100
AcDbLine
 10
-4.454625
 20
0.519633
 30
0.0
 11
-4.463198
 21
0.468345
 31
0.0
0
LINE
  5
383
100
AcDbEntity
  8
0
100
AcDbLine
 10
-4.463198
 20
0.468345
 30
0.0
 11
-4.470887
 21
0.416845
 31
0.0
0
LINE
  5
384
100
AcDbEntity
  8
0
100
AcDbLine
 10
-4.470887
 20
0.416845
 30
0.0
 11
-4.477687
 21
0.365155
 31
0.0
0
LINE
  5
385
100
AcDbEntity
  8
0
100
AcDbLine
 10
-4.477687
 20
0.365155
 30
0.0
 11
-4.483592
 21
0.313300
 31
0.0
0
LINE
  5
386
100
AcDbEntity
  8
0
100
AcDbLine
 10
-4.483592
 20
0.313300
 30
0.0
 11
-4.488597
 21
0.261302
 31
0.0
0
LINE
  5
387
100
AcDbEntity
  8
0
100
AcDbLine
 10
-4.488597
 20
0.261302
 30
0.0
 11
-4.492697
 21
0.209185
 31
0.0
0
LINE
  5
388
100
AcDbEntity
  8
0
100
AcDbLine
 10
-4.492697
 20
0.209185
 30
0.0
 11
-4.495890
 21
0.156972
 31
0.0
0
LINE
  5
389
100
AcDbEntity
  8
0
100
AcDbLine
 10
-4.495890
 20
0.156972
 30
0.0
 11
-4.498173
 21
0.104688
 31
0.0
0
LINE
  5
390
100
AcDbEntity
  8
0
100
AcDbLine
 10
-4.498173
 20
0.104688
 30
0.0
 11
-4.499543
 21
0.052356
 31
0.0
0
LINE
  5
391
100
AcDbEntity
  8
0
100
AcDbLine
 10
-4.499543
 20
0.052356
 30
0.0
 11
-4.500000
 21
0.000000
 31
0.0
0
LINE
  5
392
100
AcDbEntity
  8
0
100
AcDbLine
 10
-4.500000
 20
0.000000
 30
0.0
 11
-4.499543
 21
-0.052356
 31
0.0
0
LINE
  5
393
100
AcDbEntity
  8
0
100
AcDbLine
 10
-4.499543
 20
-0.052356
 30
0.0
 11
-4.498173
 21
-0.104688
 31
0.0
0
LINE
  5
394
100
AcDbEntity
  8
0
100
AcDbLine
 10
-4.498173
 20
-0.104688
 30
0.0
 11
-4.495890
 21
-0.156972
 31
0.0
0
LINE
  5
395
100
AcDbEntity
  8
0
100
AcDbLine
 10
-4.495890
 20
-0.156972
 30
0.0
 11
-4.492697
 21
-0.209185
 31
0.0
0
LINE
  5
396
100
AcDbEntity
  8
0
100
AcDbLine
 10
-4.492697
 20
-0.209185
 30
0.0
 11
-4.488597
 21
-0.261302
 31
0.0
0
LINE
  5
397
100
AcDbEntity
  8
0
100
AcDbLine
 10
-4.488597
 20
-0.261302
 30
0.0
 11
-4.483592
 21
-0.313300
 31
0.0
0
LINE
  5
398
100
AcDbEntity
  8
0
100
AcDbLine
 10
-4.483592
 20
-0.313300
 30
0.0
 11
-4.477687
 21
-0.365155
 31
0.0
0
LINE
  5
399
100
AcDbEntity
  8
0
100
AcDbLine
 10
-4.477687
 20
-0.365155
 30
0.0
 11
-4.470887
 21
-0.416845
 31
0.0
0
LINE
  5
400
100
AcDbEntity
  8
0
100
AcDbLine
 10
-4.470887
 20
-0.416845
 30
0.0
 11
-4.463198
 21
-0.468345
 31
0.0
0
LINE
  5
401
100
AcDbEntity
  8
0
100
AcDbLine
 10
-4.463198
 20
-0.468345
 30
0.0
 11
-4.454625
 21
-0.519633
 31
0.0
0
LINE
  5
402
100
AcDbEntity
  8
0
100
AcDbLine
 10
-4.454625
 20
-0.519633
 30
0.0
 11
-4.445177
 21
-0.570686
 31
0.0
0
LINE
  5
403
100
AcDbEntity
  8
0
100
AcDbLine
 10
-4.445177
 20
-0.570686
 30
0.0
 11
-4.434860
 21
-0.621482
 31
0.0
0
LINE
  5
404
100
AcDbEntity
  8
0
100
AcDbLine
 10
-4.434860
 20
-0.621482
 30
0.0
 11
-4.423684
 21
-0.671998
 31
0.0
0
LINE
  5
405
100
AcDbEntity
  8
0
100
AcDbLine
 10
-4.423684
 20
-0.671998
 30
0.0
 11
-4.411658
 21
-0.722213
 31
0.0
0
LINE
  5
406
100
AcDbEntity
  8
0
100
AcDbLine
 10
-4.411658
 20
-0.722213
 30
0.0
 11
-4.398792
 21
-0.772105
 31
0.0
0
LINE
  5
407
100
AcDbEntity
  8
0
100
AcDbLine
 10
-4.398792
 20
-0.772105
 30
0.0
 11
-4.385096
 21
-0.821652
 31
0.0
0
LINE
  5
408
100
AcDbEntity
  8
0
100
AcDbLine
 10
-4.385096
 20
-0.821652
 30
0.0
 11
-4.370582
 21
-0.870834
 31
0.0
0
LINE
  5
409
100
AcDbEntity
  8
0
100
AcDbLine
 10
-4.370582
 20
-0.870834
 30
0.0
 11
-4.355262
 21
-0.919630
 31
0.0
0
LINE
  5
410
100
AcDbEntity
  8
0
100
AcDbLine
 10
-4.355262
 20
-0.919630
 30
0.0
 11
-4.339148
 21
-0.968021
 31
0.0
0
LINE
  5
411
100
AcDbEntity
  8
0
100
AcDbLine
 10
-4.339148
 20
-0.968021
 30
0.0
 11
-4.322253
 21
-1.015987
 31
0.0
0
LINE
  5
412
100
AcDbEntity
  8
0
100
AcDbLine
 10
-4.322253
 20
-1.015987
 30
0.0
 11
-4.304592
 21
-1.063507
 31
0.0
0
LINE
  5
413
100
AcDbEntity
  8
0
100
AcDbLine
 10
-4.304592
 20
-1.063507
 30
0.0
 11
-4.286179
 21
-1.110565
 31
0.0
0
LINE
  5
414
100
AcDbEntity
  8
0
100
AcDbLine
 10
-4.286179
 20
-1.110565
 30
0.0
 11
-4.267028
 21
-1.157142
 31
0.0
0
LINE
  5
415
100
AcDbEntity
  8
0
100
AcDbLine
 10
-4.267028
 20
-1.157142
 30
0.0
 11
-4.247156
 21
-1.203219
 31
0.0
0
LINE
  5
416
100
AcDbEntity
  8
0
100
AcDbLine
 10
-4.247156
 20
-1.203219
 30
0.0
 11
-4.226578
 21
-1.248781
 31
0.0
0
LINE
  5
417
100
AcDbEntity
  8
0
100
AcDbLine
 10
-4.226578
 20
-1.248781
 30
0.0
 11
-4.205311
 21
-1.293810
 31
0.0
0
LINE
  5
418
100
AcDbEntity
  8
0
100
AcDbLine
 10
-4.205311
 20
-1.293810
 30
0.0
 11
-4.183372
 21
-1.338290
 31
0.0
0
LINE
  5
419
100
AcDbEntity
  8
0
100
AcDbLine
 10
-4.183372
 20
-1.338290
 30
0.0
 11
-4.160779
 21
-1.382206
 31
0.0
0
LINE
  5
420
100
AcDbEntity
  8
0
100
AcDbLine
 10
-4.160779
 20
-1.382206
 30
0.0
 11
-4.137550
 21
-1.425544
 31
0.0
0
LINE
  5
421
100
AcDbEntity
  8
0
100
AcDbLine
 10
-4.137550
 20
-1.425544
 30
0.0
 11
-4.113703
 21
-1.468289
 31
0.0
0
LINE
  5
422
100
AcDbEntity
  8
0
100
AcDbLine
 10
-4.113703
 20
-1.468289
 30
0.0
 11
-4.089258
 21
-1.510427
 31
0.0
0
LINE
  5
423
100
AcDbEntity
  8
0
100
AcDbLine
 10
-4.089258
 20
-1.510427
 30
0.0
 11
-4.064232
 21
-1.551946
 31
0.0
0
LINE
  5
424
100
AcDbEntity
  8
0
100
AcDbLine
 10
-4.064232
 20
-1.551946
 30
0.0
 11
-4.038647
 21
-1.592834
 31
0.0
0
LINE
  5
425
100
AcDbEntity
  8
0
100
AcDbLine
 10
-4.038647
 20
-1.592834
 30
0.0
 11
-4.012522
 21
-1.633079
 31
0.0
0
LINE
  5
426
100
AcDbEntity
  8
0
100
AcDbLine
 10
-4.012522
 20
-1.633079
 30
0.0
 11
-3.985878
 21
-1.672670
 31
0.0
0
LINE
  5
427
100
AcDbEntity
  8
0
100
AcDbLine
 10
-3.985878
 20
-1.672670
 30
0.0
 11
-3.958735
 21
-1.711596
 31
0.0
0
LINE
  5
428
100
AcDbEntity
  8
0
100
AcDbLine
 10
-3.958735
 20
-1.711596
 30
0.0
 11
-3.931113
 21
-1.749849
 31
0.0
0
LINE
  5
429
100
AcDbEntity
  8
0
100
AcDbLine
 10
-3.931113
 20
-1.749849
 30
0.0
 11
-3.903035
 21
-1.787420
 31
0.0
0
LINE
  5
430
100
AcDbEntity
  8
0
100
AcDbLine
 10
-3.903035
 20
-1.787420
 30
0.0
 11
-3.874522
 21
-1.824301
 31
0.0
0
LINE
  5
431
100
AcDbEntity
  8
0
100
AcDbLine
 10
-3.874522
 20
-1.824301
 30
0.0
 11
-3.845595
 21
-1.860484
 31
0.0
0
LINE
  5
432
100
AcDbEntity
  8
0
100
AcDbLine
 10
-3.845595
 20
-1.860484
 30
0.0
 11
-3.816275
 21
-1.895964
 31
0.0
0
LINE
  5
433
100
AcDbEntity
  8
0
100
AcDbLine
 10
-3.816275
 20
-1.895964
 30
0.0
 11
-3.786586
 21
-1.930733
 31
0.0
0
LINE
  5
434
100
AcDbEntity
  8
0
100
AcDbLine
 10
-3.786586
 20
-1.930733
 30
0.0
 11
-3.756549
 21
-1.964787
 31
0.0
0
LINE
  5
435
100
AcDbEntity
  8
0
100
AcDbLine
 10
-3.756549
 20
-1.964787
 30
0.0
 11
-3.726185
 21
-1.998122
 31
0.0
0
LINE
  5
436
100
AcDbEntity
  8
0
100
AcDbLine
 10
-3.726185
 20
-1.998122
 30
0.0
 11
-3.695518
 21
-2.030734
 31
0.0
0
LINE
  5
437
100
AcDbEntity
  8
0
100
AcDbLine
 10
-3.695518
 20
-2.030734
 30
0.0
 11
-3.664570
 21
-2.062620
 31
0.0
0
LINE
  5
438
100
AcDbEntity
  8
0
100
AcDbLine
 10
-3.664570
 20
-2.062620
 30
0.0
 11
-3.633362
 21
-2.093778
 31
0.0
0
LINE
  5
439
100
AcDbEntity
  8
0
100
AcDbLine
 10
-3.633362
 20
-2.093778
 30
0.0
 11
-3.601918
 21
-2.124208
 31
0.0
0
LINE
  5
440
100
AcDbEntity
  8
0
100
AcDbLine
 10
-3.601918
 20
-2.124208
 30
0.0
 11
-3.570259
 21
-2.153907
 31
0.0
0
LINE
  5
441
100
AcDbEntity
  8
0
100
AcDbLine
 10
-3.570259
 20
-2.153907
 30
0.0
 11
-3.538407
 21
-2.182877
 31
0.0
0
LINE
  5
442
100
AcDbEntity
  8
0
100
AcDbLine
 10
-3.538407
 20
-2.182877
 30
0.0
 11
-3.506385
 21
-2.211118
 31
0.0
0
LINE
  5
443
100
AcDbEntity
  8
0
100
AcDbLine
 10
-3.506385
 20
-2.211118
 30
0.0
 11
-3.474215
 21
-2.238632
 31
0.0
0
LINE
  5
444
100
AcDbEntity
  8
0
100
AcDbLine
 10
-3.474215
 20
-2.238632
 30
0.0
 11
-3.441919
 21
-2.265422
 31
0.0
0
LINE
  5
445
100
AcDbEntity
  8
0
100
AcDbLine
 10
-3.441919
 20
-2.265422
 30
0.0
 11
-3.409518
 21
-2.291490
 31
0.0
0
LINE
  5
446
100
AcDbEntity
  8
0
100
AcDbLine
 10
-3.409518
 20
-2.291490
 30
0.0
 11
-3.377033
 21
-2.316841
 31
0.0
0
LINE
  5
447
100
AcDbEntity
  8
0
100
AcDbLine
 10
-3.377033
 20
-2.316841
 30
0.0
 11
-3.344487
 21
-2.341478
 31
0.0
0
LINE
  5
448
100
AcDbEntity
  8
0
100
AcDbLine
 10
-3.344487
 20
-2.341478
 30
0.0
 11
-3.311900
 21
-2.365408
 31
0.0
0
LINE
  5
449
100
AcDbEntity
  8
0
100
AcDbLine
 10
-3.311900
 20
-2.365408
 30
0.0
 11
-3.279293
 21
-2.388636
 31
0.0
0
LINE
  5
450
100
AcDbEntity
  8
0
100
AcDbLine
 10
-3.279293
 20
-2.388636
 30
0.0
 11
-3.246687
 21
-2.411168
 31
0.0
0
LINE
  5
451
100
AcDbEntity
  8
0
100
AcDbLine
 10
-3.246687
 20
-2.411168
 30
0.0
 11
-3.214102
 21
-2.433013
 31
0.0
0
LINE
  5
452
100
AcDbEntity
  8
0
100
AcDbLine
 10
-3.214102
 20
-2.433013
 30
0.0
 11
-3.181557
 21
-2.454177
 31
0.0
0
LINE
  5
453
100
AcDbEntity
  8
0
100
AcDbLine
 10
-3.181557
 20
-2.454177
 30
0.0
 11
-3.149073
 21
-2.474671
 31
0.0
0
LINE
  5
454
100
AcDbEntity
  8
0
100
AcDbLine
 10
-3.149073
 20
-2.474671
 30
0.0
 11
-3.116668
 21
-2.494503
 31
0.0
0
LINE
  5
455
100
AcDbEntity
  8
0
100
AcDbLine
 10
-3.116668
 20
-2.494503
 30
0.0
 11
-3.084362
 21
-2.513682
 31
0.0
0
LINE
  5
456
100
AcDbEntity
  8
0
100
AcDbLine
 10
-3.084362
 20
-2.513682
 30
0.0
 11
-3.052172
 21
-2.532221
 31
0.0
0
LINE
  5
457
100
AcDbEntity
  8
0
100
AcDbLine
 10
-3.052172
 20
-2.532221
 30
0.0
 11
-3.020117
 21
-2.550129
 31
0.0
0
LINE
  5
458
100
AcDbEntity
  8
0
100
AcDbLine
 10
-3.020117
 20
-2.550129
 30
0.0
 11
-2.988214
 21
-2.567418
 31
0.0
0
LINE
  5
459
100
AcDbEntity
  8
0
100
AcDbLine
 10
-2.988214
 20
-2.567418
 30
0.0
 11
-2.956480
 21
-2.584101
 31
0.0
0
LINE
  5
460
100
AcDbEntity
  8
0
100
AcDbLine
 10
-2.956480
 20
-2.584101
 30
0.0
 11
-2.924932
 21
-2.600190
 31
0.0
0
LINE
  5
461
100
AcDbEntity
  8
0
100
AcDbLine
 10
-2.924932
 20
-2.600190
 30
0.0
 11
-2.893586
 21
-2.615700
 31
0.0
0
LINE
  5
462
100
AcDbEntity
  8
0
100
AcDbLine
 10
-2.893586
 20
-2.615700
 30
0.0
 11
-2.862457
 21
-2.630643
 31
0.0
0
LINE
  5
463
100
AcDbEntity
  8
0
100
AcDbLine
 10
-2.862457
 20
-2.630643
 30
0.0
 11
-2.831559
 21
-2.645034
 31
0.0
0
LINE
  5
464
100
AcDbEntity
  8
0
100
AcDbLine
 10
-2.831559
 20
-2.645034
 30
0.0
 11
-2.800909
 21
-2.658888
 31
0.0
0
LINE
  5
465
100
AcDbEntity
  8
0
100
AcDbLine
 10
-2.800909
 20
-2.658888
 30
0.0
 11
-2.770518
 21
-2.672220
 31
0.0
0
LINE
  5
466
100
AcDbEntity
  8
0
100
AcDbLine
 10
-2.770518
 20
-2.672220
 30
0.0
 11
-2.740401
 21
-2.685046
 31
0.0
0
LINE
  5
467
100
AcDbEntity
  8
0
100
AcDbLine
 10
-2.740401
 20
-2.685046
 30
0.0
 11
-2.710569
 21
-2.697382
 31
0.0
0
LINE
  5
468
100
AcDbEntity
  8
0
100
AcDbLine
 10
-2.710569
 20
-2.697382
 30
0.0
 11
-2.681036
 21
-2.709244
 31
0.0
0
LINE
  5
469
100
AcDbEntity
  8
0
100
AcDbLine
 10
-2.681036
 20
-2.709244
 30
0.0
 11
-2.651811
 21
-2.720650
 31
0.0
0
LINE
  5
470
100
AcDbEntity
  8
0
100
AcDbLine
 10
-2.651811
 20
-2.720650
 30
0.0
 11
-2.622906
 21
-2.731616
 31
0.0
0
LINE
  5
471
100
AcDbEntity
  8
0
100
AcDbLine
 10
-2.622906
 20
-2.731616
 30
0.0
 11
-2.594331
 21
-2.742161
 31
0.0
0
LINE
  5
472
100
AcDbEntity
  8
0
100
AcDbLine
 10
-2.594331
 20
-2.742161
 30
0.0
 11
-2.566096
 21
-2.752301
 31
0.0
0
LINE
  5
473
100
AcDbEntity
  8
0
100
AcDbLine
 10
-2.566096
 20
-2.752301
 30
0.0
 11
-2.538207
 21
-2.762055
 31
0.0
0
LINE
  5
474
100
AcDbEntity
  8
0
100
AcDbLine
 10
-2.538207
 20
-2.762055
 30
0.0
 11
-2.510675
 21
-2.771441
 31
0.0
0
LINE
  5
475
100
AcDbEntity
  8
0
100
AcDbLine
 10
-2.510675
 20
-2.771441
 30
0.0
 11
-2.483506
 21
-2.780478
 31
0.0
0
LINE
  5
476
100
AcDbEntity
  8
0
100
AcDbLine
 10
-2.483506
 20
-2.780478
 30
0.0
 11
-2.456705
 21
-2.789185
 31
0.0
0
LINE
  5
477
100
AcDbEntity
  8
0
100
AcDbLine
 10
-2.456705
 20
-2.789185
 30
0.0
 11
-2.430281
 21
-2.797580
 31
0.0
0
LINE
  5
478
100
AcDbEntity
  8
0
100
AcDbLine
 10
-2.430281
 20
-2.797580
 30
0.0
 11
-2.404237
 21
-2.805683
 31
0.0
0
LINE
  5
479
100
AcDbEntity
  8
0
100
AcDbLine
 10
-2.404237
 20
-2.805683
 30
0.0
 11
-2.378577
 21
-2.813512
 31
0.0
0
LINE
  5
480
100
AcDbEntity
  8
0
100
AcDbLine
 10
-2.378577
 20
-2.813512
 30
0.0
 11
-2.353306
 21
-2.821087
 31
0.0
0
LINE
  5
481
100
AcDbEntity
  8
0
100
AcDbLine
 10
-2.353306
 20
-2.821087
 30
0.0
 11
-2.328427
 21
-2.828427
 31
0.0
0
LINE
  5
482
100
AcDbEntity
  8
0
100
AcDbLine
 10
-2.328427
 20
-2.828427
 30
0.0
 11
-2.303942
 21
-2.835552
 31
0.0
0
LINE
  5
483
100
AcDbEntity
  8
0
100
AcDbLine
 10
-2.303942
 20
-2.835552
 30
0.0
 11
-2.279851
 21
-2.842481
 31
0.0
0
LINE
  5
484
100
AcDbEntity
  8
0
100
AcDbLine
 10
-2.279851
 20
-2.842481
 30
0.0
 11
-2.256157
 21
-2.849233
 31
0.0
0
LINE
  5
485
100
AcDbEntity
  8
0
100
AcDbLine
 10
-2.256157
 20
-2.849233
 30
0.0
 11
-2.232859
 21
-2.855828
 31
0.0
0
LINE
  5
486
100
AcDbEntity
  8
0
100
AcDbLine
 10
-2.232859
 20
-2.855828
 30
0.0
 11
-2.209957
 21
-2.862285
 31
0.0
0
LINE
  5
487
100
AcDbEntity
  8
0
100
AcDbLine
 10
-2.209957
 20
-2.862285
 30
0.0
 11
-2.187449
 21
-2.868623
 31
0.0
0
LINE
  5
488
100
AcDbEntity
  8
0
100
AcDbLine
 10
-2.187449
 20
-2.868623
 30
0.0
 11
-2.165332
 21
-2.874862
 31
0.0
0
LINE
  5
489
100
AcDbEntity
  8
0
100
AcDbLine
 10
-2.165332
 20
-2.874862
 30
0.0
 11
-2.143605
 21
-2.881020
 31
0.0
0
LINE
  5
490
100
AcDbEntity
  8
0
100
AcDbLine
 10
-2.143605
 20
-2.881020
 30
0.0
 11
-2.122264
 21
-2.887115
 31
0.0
0
LINE
  5
491
100
AcDbEntity
  8
0
100
AcDbLine
 10
-2.122264
 20
-2.887115
 30
0.0
 11
-2.101304
 21
-2.893168
 31
0.0
0
LINE
  5
492
100
AcDbEntity
  8
0
100
AcDbLine
 10
-2.101304
 20
-2.893168
 30
0.0
 11
-2.080721
 21
-2.899195
 31
0.0
0
LINE
  5
493
100
AcDbEntity
  8
0
100
AcDbLine
 10
-2.080721
 20
-2.899195
 30
0.0
 11
-2.060509
 21
-2.905216
 31
0.0
0
LINE
  5
494
100
AcDbEntity
  8
0
100
AcDbLine
 10
-2.060509
 20
-2.905216
 30
0.0
 11
-2.040662
 21
-2.911247
 31
0.0
0
LINE
  5
495
100
AcDbEntity
  8
0
100
AcDbLine
 10
-2.040662
 20
-2.911247
 30
0.0
 11
-2.021172
 21
-2.917307
 31
0.0
0
LINE
  5
496
100
AcDbEntity
  8
0
100
AcDbLine
 10
-2.021172
 20
-2.917307
 30
0.0
 11
-2.002033
 21
-2.923413
 31
0.0
0
LINE
  5
497
100
AcDbEntity
  8
0
100
AcDbLine
 10
-2.002033
 20
-2.923413
 30
0.0
 11
-1.983236
 21
-2.929582
 31
0.0
0
LINE
  5
498
100
AcDbEntity
  8
0
100
AcDbLine
 10
-1.983236
 20
-2.929582
 30
0.0
 11
-1.964772
 21
-2.935831
 31
0.0
0
LINE
  5
499
100
AcDbEntity
  8
0
100
AcDbLine
 10
-1.964772
 20
-2.935831
 30
0.0
 11
-1.946633
 21
-2.942175
 31
0.0
0
LINE
  5
500
100
AcDbEntity
  8
0
100
AcDbLine
 10
-1.946633
 20
-2.942175
 30
0.0
 11
-1.928806
 21
-2.948631
 31
0.0
0
LINE
  5
501
100
AcDbEntity
  8
0
100
AcDbLine
 10
-1.928806
 20
-2.948631
 30
0.0
 11
-1.911284
 21
-2.955214
 31
0.0
0
LINE
  5
502
100
AcDbEntity
  8
0
100
AcDbLine
 10
-1.911284
 20
-2.955214
 30
0.0
 11
-1.894053
 21
-2.961939
 31
0.0
0
LINE
  5
503
100
AcDbEntity
  8
0
100
AcDbLine
 10
-1.894053
 20
-2.961939
 30
0.0
 11
-1.877102
 21
-2.968821
 31
0.0
0
LINE
  5
504
100
AcDbEntity
  8
0
100
AcDbLine
 10
-1.877102
 20
-2.968821
 30
0.0
 11
-1.860419
 21
-2.975873
 31
0.0
0
LINE
  5
505
100
AcDbEntity
  8
0
100
AcDbLine
 10
-1.860419
 20
-2.975873
 30
0.0
 11
-1.843991
 21
-2.983110
 31
0.0
0
LINE
  5
506
100
AcDbEntity
  8
0
100
AcDbLine
 10
-1.843991
 20
-2.983110
 30
0.0
 11
-1.827805
 21
-2.990544
 31
0.0
0
LINE
  5
507
100
AcDbEntity
  8
0
100
AcDbLine
 10
-1.827805
 20
-2.990544
 30
0.0
 11
-1.811846
 21
-2.998187
 31
0.0
0
LINE
  5
508
100
AcDbEntity
  8
0
100
AcDbLine
 10
-1.811846
 20
-2.998187
 30
0.0
 11
-1.796102
 21
-3.006052
 31
0.0
0
LINE
  5
509
100
AcDbEntity
  8
0
100
AcDbLine
 10
-1.796102
 20
-3.006052
 30
0.0
 11
-1.780556
 21
-3.014150
 31
0.0
0
LINE
  5
510
100
AcDbEntity
  8
0
100
AcDbLine
 10
-1.780556
 20
-3.014150
 30
0.0
 11
-1.765194
 21
-3.022493
 31
0.0
0
LINE
  5
511
100
AcDbEntity
  8
0
100
AcDbLine
 10
-1.765194
 20
-3.022493
 30
0.0
 11
-1.750000
 21
-3.031089
 31
0.0
0
LINE
  5
512
100
AcDbEntity
  8
0
100
AcDbLine
 10
-1.750000
 20
-3.031089
 30
0.0
 11
-1.734958
 21
-3.039949
 31
0.0
0
LINE
  5
513
100
AcDbEntity
  8
0
100
AcDbLine
 10
-1.734958
 20
-3.039949
 30
0.0
 11
-1.720053
 21
-3.049082
 31
0.0
0
LINE
  5
514
100
AcDbEntity
  8
0
100
AcDbLine
 10
-1.720053
 20
-3.049082
 30
0.0
 11
-1.705267
 21
-3.058496
 31
0.0
0
LINE
  5
515
100
AcDbEntity
  8
0
100
AcDbLine
 10
-1.705267
 20
-3.058496
 30
0.0
 11
-1.690583
 21
-3.068198
 31
0.0
0
LINE
  5
516
100
AcDbEntity
  8
0
100
AcDbLine
 10
-1.690583
 20
-3.068198
 30
0.0
 11
-1.675984
 21
-3.078197
 31
0.0
0
LINE
  5
517
100
AcDbEntity
  8
0
100
AcDbLine
 10
-1.675984
 20
-3.078197
 30
0.0
 11
-1.661454
 21
-3.088498
 31
0.0
0
LINE
  5
518
100
AcDbEntity
  8
0
100
AcDbLine
 10
-1.661454
 20
-3.088498
 30
0.0
 11
-1.646973
 21
-3.099107
 31
0.0
0
LINE
  5
519
100
AcDbEntity
  8
0
100
AcDbLine
 10
-1.646973
 20
-3.099107
 30
0.0
 11
-1.632524
 21
-3.110028
 31
0.0
0
LINE
  5
520
100
AcDbEntity
  8
0
100
AcDbLine
 10
-1.632524
 20
-3.110028
 30
0.0
 11
-1.618089
 21
-3.121267
 31
0.0
0
LINE
  5
521
100
AcDbEntity
  8
0
100
AcDbLine
 10
-1.618089
 20
-3.121267
 30
0.0
 11
-1.603649
 21
-3.132827
 31
0.0
0
LINE
  5
522
100
AcDbEntity
  8
0
100
AcDbLine
 10
-1.603649
 20
-3.132827
 30
0.0
 11
-1.589186
 21
-3.144711
 31
0.0
0
LINE
  5
523
100
AcDbEntity
  8
0
100
AcDbLine
 10
-1.589186
 20
-3.144711
 30
0.0
 11
-1.574682
 21
-3.156921
 31
0.0
0
LINE
  5
524
100
AcDbEntity
  8
0
100
AcDbLine
 10
-1.574682
 20
-3.156921
 30
0.0
 11
-1.560118
 21
-3.169458
 31
0.0
0
LINE
  5
525
100
AcDbEntity
  8
0
100
AcDbLine
 10
-1.560118
 20
-3.169458
 30
0.0
 11
-1.545475
 21
-3.182324
 31
0.0
0
LINE
  5
526
100
AcDbEntity
  8
0
100
AcDbLine
 10
-1.545475
 20
-3.182324
 30
0.0
 11
-1.530734
 21
-3.195518
 31
0.0
0
LINE
  5
527
100
AcDbEntity
  8
0
100
AcDbLine
 10
-1.530734
 20
-3.195518
 30
0.0
 11
-1.515876
 21
-3.209040
 31
0.0
0
LINE
  5
528
100
AcDbEntity
  8
0
100
AcDbLine
 10
-1.515876
 20
-3.209040
 30
0.0
 11
-1.500883
 21
-3.222888
 31
0.0
0
LINE
  5
529
100
AcDbEntity
  8
0
100
AcDbLine
 10
-1.500883
 20
-3.222888
 30
0.0
 11
-1.485736
 21
-3.237061
 31
0.0
0
LINE
  5
530
100
AcDbEntity
  8
0
100
AcDbLine
 10
-1.485736
 20
-3.237061
 30
0.0
 11
-1.470416
 21
-3.251555
 31
0.0
0
LINE
  5
531
100
AcDbEntity
  8
0
100
AcDbLine
 10
-1.470416
 20
-3.251555
 30
0.0
 11
-1.454905
 21
-3.266367
 31
0.0
0
LINE
  5
532
100
AcDbEntity
  8
0
100
AcDbLine
 10
-1.454905
 20
-3.266367
 30
0.0
 11
-1.439183
 21
-3.281492
 31
0.0
0
LINE
  5
533
100
AcDbEntity
  8
0
100
AcDbLine
 10
-1.439183
 20
-3.281492
 30
0.0
 11
-1.423234
 21
-3.296926
 31
0.0
0
LINE
  5
534
100
AcDbEntity
  8
0
100
AcDbLine
 10
-1.423234
 20
-3.296926
 30
0.0
 11
-1.407037
 21
-3.312664
 31
0.0
0
LINE
  5
535
100
AcDbEntity
  8
0
100
AcDbLine
 10
-1.407037
 20
-3.312664
 30
0.0
 11
-1.390576
 21
-3.328698
 31
0.0
0
LINE
  5
536
100
AcDbEntity
  8
0
100
AcDbLine
 10
-1.390576
 20
-3.328698
 30
0.0
 11
-1.373833
 21
-3.345021
 31
0.0
0
LINE
  5
537
100
AcDbEntity
  8
0
100
AcDbLine
 10
-1.373833
 20
-3.345021
 30
0.0
 11
-1.356790
 21
-3.361627
 31
0.0
0
LINE
  5
538
100
AcDbEntity
  8
0
100
AcDbLine
 10
-1.356790
 20
-3.361627
 30
0.0
 11
-1.339430
 21
-3.378506
 31
0.0
0
LINE
  5
539
100
AcDbEntity
  8
0
100
AcDbLine
 10
-1.339430
 20
-3.378506
 30
0.0
 11
-1.321735
 21
-3.395650
 31
0.0
0
LINE
  5
540
100
AcDbEntity
  8
0
100
AcDbLine
 10
-1.321735
 20
-3.395650
 30
0.0
 11
-1.303689
 21
-3.413048
 31
0.0
0
LINE
  5
541
100
AcDbEntity
  8
0
100
AcDbLine
 10
-1.303689
 20
-3.413048
 30
0.0
 11
-1.285276
 21
-3.430691
 31
0.0
0
LINE
  5
542
100
AcDbEntity
  8
0
100
AcDbLine
 10
-1.285276
 20
-3.430691
 30
0.0
 11
-1.266480
 21
-3.448567
 31
0.0
0
LINE
  5
543
100
AcDbEntity
  8
0
100
AcDbLine
 10
-1.266480
 20
-3.448567
 30
0.0
 11
-1.247284
 21
-3.466664
 31
0.0
0
LINE
  5
544
100
AcDbEntity
  8
0
100
AcDbLine
 10
-1.247284
 20
-3.466664
 30
0.0
 11
-1.227674
 21
-3.484971
 31
0.0
0
LINE
  5
545
100
AcDbEntity
  8
0
100
AcDbLine
 10
-1.227674
 20
-3.484971
 30
0.0
 11
-1.207635
 21
-3.503475
 31
0.0
0
LINE
  5
546
100
AcDbEntity
  8
0
100
AcDbLine
 10
-1.207635
 20
-3.503475
 30
0.0
 11
-1.187152
 21
-3.522162
 31
0.0
0
LINE
  5
547
100
AcDbEntity
  8
0
100
AcDbLine
 10
-1.187152
 20
-3.522162
 30
0.0
 11
-1.166212
 21
-3.541018
 31
0.0
0
LINE
  5
548
100
AcDbEntity
  8
0
100
AcDbLine
 10
-1.166212
 20
-3.541018
 30
0.0
 11
-1.144801
 21
-3.560029
 31
0.0
0
LINE
  5
549
100
AcDbEntity
  8
0
100
AcDbLine
 10
-1.144801
 20
-3.560029
 30
0.0
 11
-1.122906
 21
-3.579180
 31
0.0
0
LINE
  5
550
100
AcDbEntity
  8
0
100
AcDbLine
 10
-1.122906
 20
-3.579180
 30
0.0
 11
-1.100515
 21
-3.598454
 31
0.0
0
LINE
  5
551
100
AcDbEntity
  8
0
100
AcDbLine
 10
-1.100515
 20
-3.598454
 30
0.0
 11
-1.077615
 21
-3.617837
 31
0.0
0
LINE
  5
552
100
AcDbEntity
  8
0
100
AcDbLine
 10
-1.077615
 20
-3.617837
 30
0.0
 11
-1.054196
 21
-3.637312
 31
0.0
0
LINE
  5
553
100
AcDbEntity
  8
0
100
AcDbLine
 10
-1.054196
 20
-3.637312
 30
0.0
 11
-1.030246
 21
-3.656861
 31
0.0
0
LINE
  5
554
100
AcDbEntity
  8
0
100
AcDbLine
 10
-1.030246
 20
-3.656861
 30
0.0
 11
-1.005756
 21
-3.676467
 31
0.0
0
LINE
  5
555
100
AcDbEntity
  8
0
100
AcDbLine
 10
-1.005756
 20
-3.676467
 30
0.0
 11
-0.980716
 21
-3.696113
 31
0.0
0
LINE
  5
556
100
AcDbEntity
  8
0
100
AcDbLine
 10
-0.980716
 20
-3.696113
 30
0.0
 11
-0.955117
 21
-3.715779
 31
0.0
0
LINE
  5
557
100
AcDbEntity
  8
0
100
AcDbLine
 10
-0.955117
 20
-3.715779
 30
0.0
 11
-0.928951
 21
-3.735449
 31
0.0
0
LINE
  5
558
100
AcDbEntity
  8
0
100
AcDbLine
 10
-0.928951
 20
-3.735449
 30
0.0
 11
-0.902210
 21
-3.755102
 31
0.0
0
LINE
  5
559
100
AcDbEntity
  8
0
100
AcDbLine
 10
-0.902210
 20
-3.755102
 30
0.0
 11
-0.874887
 21
-3.774719
 31
0.0
0
LINE
  5
560
100
AcDbEntity
  8
0
100
AcDbLine
 10
-0.874887
 20
-3.774719
 30
0.0
 11
-0.846975
 21
-3.794281
 31
0.0
0
LINE
  5
561
100
AcDbEntity
  8
0
100
AcDbLine
 10
-0.846975
 20
-3.794281
 30
0.0
 11
-0.818469
 21
-3.813769
 31
0.0
0
LINE
  5
562
100
AcDbEntity
  8
0
100
AcDbLine
 10
-0.818469
 20
-3.813769
 30
0.0
 11
-0.789365
 21
-3.833161
 31
0.0
0
LINE
  5
563
100
AcDbEntity
  8
0
100
AcDbLine
 10
-0.789365
 20
-3.833161
 30
0.0
 11
-0.759657
 21
-3.852438
 31
0.0
0
LINE
  5
564
100
AcDbEntity
  8
0
100
AcDbLine
 10
-0.759657
 20
-3.852438
 30
0.0
 11
-0.729342
 21
-3.871578
 31
0.0
0
LINE
  5
565
100
AcDbEntity
  8
0
100
AcDbLine
 10
-0.729342
 20
-3.871578
 30
0.0
 11
-0.698418
 21
-3.890562
 31
0.0
0
LINE
  5
566
100
AcDbEntity
  8
0
100
AcDbLine
 10
-0.698418
 20
-3.890562
 30
0.0
 11
-0.666881
 21
-3.909369
 31
0.0
0
LINE
  5
567
100
AcDbEntity
  8
0
100
AcDbLine
 10
-0.666881
 20
-3.909369
 30
0.0
 11
-0.634732
 21
-3.927977
 31
0.0
0
LINE
  5
568
100
AcDbEntity
  8
0
100
AcDbLine
 10
-0.634732
 20
-3.927977
 30
0.0
 11
-0.601969
 21
-3.946365
 31
0.0
0
LINE
  5
569
100
AcDbEntity
  8
0
100
AcDbLine
 10
-0.601969
 20
-3.946365
 30
0.0
 11
-0.568592
 21
-3.964513
 31
0.0
0
LINE
  5
570
100
AcDbEntity
  8
0
100
AcDbLine
 10
-0.568592
 20
-3.964513
 30
0.0
 11
-0.534602
 21
-3.982398
 31
0.0
0
LINE
  5
571
100
AcDbEntity
  8
0
100
AcDbLine
 10
-0.534602
 20
-3.982398
 30
0.0
 11
-0.500000
 21
-4.000000
 31
0.0
0
LINE
  5
572
100
AcDbEntity
  8
0
100
AcDbLine
 10
-0.500000
 20
-4.000000
 30
0.0
 11
-0.464789
 21
-4.017297
 31
0.0
0
LINE
  5
573
100
AcDbEntity
  8
0
100
AcDbLine
 10
-0.464789
 20
-4.017297
 30
0.0
 11
-0.428972
 21
-4.034269
 31
0.0
0
LINE
  5
574
100
AcDbEntity
  8
0
100
AcDbLine
 10
-0.428972
 20
-4.034269
 30
0.0
 11
-0.392553
 21
-4.050894
 31
0.0
0
LINE
  5
575
100
AcDbEntity
  8
0
100
AcDbLine
 10
-0.392553
 20
-4.050894
 30
0.0
 11
-0.355536
 21
-4.067150
 31
0.0
0
LINE
  5
576
100
AcDbEntity
  8
0
100
AcDbLine
 10
-0.355536
 20
-4.067150
 30
0.0
 11
-0.317926
 21
-4.083017
 31
0.0
0
LINE
  5
577
100
AcDbEntity
  8
0
100
AcDbLine
 10
-0.317926
 20
-4.083017
 30
0.0
 11
-0.279730
 21
-4.098474
 31
0.0
0
LINE
  5
578
100
AcDbEntity
  8
0
100
AcDbLine
 10
-0.279730
 20
-4.098474
 30
0.0
 11
-0.240954
 21
-4.113500
 31
0.0
0
LINE
  5
579
100
AcDbEntity
  8
0
100
AcDbLine
 10
-0.240954
 20
-4.113500
 30
0.0
 11
-0.201605
 21
-4.128075
 31
0.0
0
LINE
  5
580
100
AcDbEntity
  8
0
100
AcDbLine
 10
-0.201605
 20
-4.128075
 30
0.0
 11
-0.161692
 21
-4.142178
 31
0.0
0
LINE
  5
581
100
AcDbEntity
  8
0
100
AcDbLine
 10
-0.161692
 20
-4.142178
 30
0.0
 11
-0.121223
 21
-4.155789
 31
0.0
0
LINE
  5
582
100
AcDbEntity
  8
0
100
AcDbLine
 10
-0.121223
 20
-4.155789
 30
0.0
 11
-0.080209
 21
-4.168888
 31
0.0
0
LINE
  5
583
100
AcDbEntity
  8
0
100
AcDbLine
 10
-0.080209
 20
-4.168888
 30
0.0
 11
-0.038659
 21
-4.181456
 31
0.0
0
LINE
  5
584
100
AcDbEntity
  8
0
100
AcDbLine
 10
-0.038659
 20
-4.181456
 30
0.0
 11
0.003416
 21
-4.193473
 31
0.0
0
LINE
  5
585
100
AcDbEntity
  8
0
100
AcDbLine
 10
0.003416
 20
-4.193473
 30
0.0
 11
0.046004
 21
-4.204920
 31
0.0
0
LINE
  5
586
100
AcDbEntity
  8
0
100
AcDbLine
 10
0.046004
 20
-4.204920
 30
0.0
 11
0.089092
 21
-4.215779
 31
0.0
0
LINE
  5
587
100
AcDbEntity
  8
0
100
AcDbLine
 10
0.089092
 20
-4.215779
 30
0.0
 11
0.132668
 21
-4.226032
 31
0.0
0
LINE
  5
588
100
AcDbEntity
  8
0
100
AcDbLine
 10
0.132668
 20
-4.226032
 30
0.0
 11
0.176719
 21
-4.235660
 31
0.0
0
LINE
  5
589
100
AcDbEntity
  8
0
100
AcDbLine
 10
0.176719
 20
-4.235660
 30
0.0
 11
0.221229
 21
-4.244646
 31
0.0
0
LINE
  5
590
100
AcDbEntity
  8
0
100
AcDbLine
 10
0.221229
 20
-4.244646
 30
0.0
 11
0.266185
 21
-4.252973
 31
0.0
0
LINE
  5
591
100
AcDbEntity
  8
0
100
AcDbLine
 10
0.266185
 20
-4.252973
 30
0.0
 11
0.311570
 21
-4.260625
 31
0.0
0
LINE
  5
592
100
AcDbEntity
  8
0
100
AcDbLine
 10
0.311570
 20
-4.260625
 30
0.0
 11
0.357370
 21
-4.267585
 31
0.0
0
LINE
  5
593
100
AcDbEntity
  8
0
100
AcDbLine
 10
0.357370
 20
-4.267585
 30
0.0
 11
0.403566
 21
-4.273838
 31
0.0
0
LINE
  5
594
100
AcDbEntity
  8
0
100
AcDbLine
 10
0.403566
 20
-4.273838
 30
0.0
 11
0.450143
 21
-4.279369
 31
0.0
0
LINE
  5
595
100
AcDbEntity
  8
0
100
AcDbLine
 10
0.450143
 20
-4.279369
 30
0.0
 11
0.497081
 21
-4.284163
 31
0.0
0
LINE
  5
596
100
AcDbEntity
  8
0
100
AcDbLine
 10
0.497081
 20
-4.284163
 30
0.0
 11
0.544365
 21
-4.288206
 31
0.0
0
LINE
  5
597
100
AcDbEntity
  8
0
100
AcDbLine
 10
0.544365
 20
-4.288206
 30
0.0
 11
0.591973
 21
-4.291486
 31
0.0
0
LINE
  5
598
100
AcDbEntity
  8
0
100
AcDbLine
 10
0.591973
 20
-4.291486
 30
0.0
 11
0.639889
 21
-4.293988
 31
0.0
0
LINE
  5
599
100
AcDbEntity
  8
0
100
AcDbLine
 10
0.639889
 20
-4.293988
 30
0.0
 11
0.688091
 21
-4.295702
 31
0.0
0
LINE
  5
600
100
AcDbEntity
  8
0
100
AcDbLine
 10
0.688091
 20
-4.295702
 30
0.0
 11
0.736560
 21
-4.296615
 31
0.0
0
LINE
  5
601
100
AcDbEntity
  8
0
100
AcDbLine
 10
0.736560
 20
-4.296615
 30
0.0
 11
0.785276
 21
-4.296716
 31
0.0
0
LINE
  5
602
100
AcDbEntity
  8
0
100
AcDbLine
 10
0.785276
 20
-4.296716
 30
0.0
 11
0.834218
 21
-4.295996
 31
0.0
0
LINE
  5
603
100
AcDbEntity
  8
0
100
AcDbLine
 10
0.834218
 20
-4.295996
 30
0.0
 11
0.883364
 21
-4.294444
 31
0.0
0
LINE
  5
604
100
AcDbEntity
  8
0
100
AcDbLine
 10
0.883364
 20
-4.294444
 30
0.0
 11
0.932693
 21
-4.292052
 31
0.0
0
LINE
  5
605
100
AcDbEntity
  8
0
100
AcDbLine
 10
0.932693
 20
-4.292052
 30
0.0
 11
0.982184
 21
-4.288811
 31
0.0
0
LINE
  5
606
100
AcDbEntity
  8
0
100
AcDbLine
 10
0.982184
 20
-4.288811
 30
0.0
 11
1.031813
 21
-4.284714
 31
0.0
0
LINE
  5
607
100
AcDbEntity
  8
0
100
AcDbLine
 10
1.031813
 20
-4.284714
 30
0.0
 11
1.081559
 21
-4.279754
 31
0.0
0
LINE
  5
608
100
AcDbEntity
  8
0
100
AcDbLine
 10
1.081559
 20
-4.279754
 30
0.0
 11
1.131400
 21
-4.273925
 31
0.0
0
LINE
  5
609
100
AcDbEntity
  8
0
100
AcDbLine
 10
1.131400
 20
-4.273925
 30
0.0
 11
1.181312
 21
-4.267222
 31
0.0
0
LINE
  5
610
100
AcDbEntity
  8
0
100
AcDbLine
 10
1.181312
 20
-4.267222
 30
0.0
 11
1.231272
 21
-4.259640
 31
0.0
0
LINE
  5
611
100
AcDbEntity
  8
0
100
AcDbLine
 10
1.231272
 20
-4.259640
 30
0.0
 11
1.281256
 21
-4.251174
 31
0.0
0
LINE
  5
612
100
AcDbEntity
  8
0
100
AcDbLine
 10
1.281256
 20
-4.251174
 30
0.0
 11
1.331243
 21
-4.241823
 31
0.0
0
LINE
  5
613
100
AcDbEntity
  8
0
100
AcDbLine
 10
1.331243
 20
-4.241823
 30
0.0
 11
1.381208
 21
-4.231583
 31
0.0
0
LINE
  5
614
100
AcDbEntity
  8
0
100
AcDbLine
 10
1.381208
 20
-4.231583
 30
0.0
 11
1.431127
 21
-4.220452
 31
0.0
0
LINE
  5
615
100
AcDbEntity
  8
0
100
AcDbLine
 10
1.431127
 20
-4.220452
 30
0.0
 11
1.480977
 21
-4.208431
 31
0.0
0
LINE
  5
616
100
AcDbEntity
  8
0
100
AcDbLine
 10
1.480977
 20
-4.208431
 30
0.0
 11
1.530734
 21
-4.195518
 31
0.0
0
LINE
  5
617
100
AcDbEntity
  8
0
100
AcDbLine
 10
1.530734
 20
-4.195518
 30
0.0
 11
1.580374
 21
-4.181715
 31
0.0
0
LINE
  5
618
100
AcDbEntity
  8
0
100
AcDbLine
 10
1.580374
 20
-4.181715
 30
0.0
 11
1.629875
 21
-4.167022
 31
0.0
0
LINE
  5
619
100
AcDbEntity
  8
0
100
AcDbLine
 10
1.629875
 20
-4.167022
 30
0.0
 11
1.679211
 21
-4.151443
 31
0.0
0
LINE
  5
620
100
AcDbEntity
  8
0
100
AcDbLine
 10
1.679211
 20
-4.151443
 30
0.0
 11
1.728360
 21
-4.134979
 31
0.0
0
LINE
  5
621
100
AcDbEntity
  8
0
100
AcDbLine
 10
1.728360
 20
-4.134979
 30
0.0
 11
1.777297
 21
-4.117635
 31
0.0
0
LINE
  5
622
100
AcDbEntity
  8
0
100
AcDbLine
 10
1.777297
 20
-4.117635
 30
0.0
 11
1.826000
 21
-4.099415
 31
0.0
0
LINE
  5
623
100
AcDbEntity
  8
0
100
AcDbLine
 10
1.826000
 20
-4.099415
 30
0.0
 11
1.874446
 21
-4.080324
 31
0.0
0
LINE
  5
624
100
AcDbEntity
  8
0
100
AcDbLine
 10
1.874446
 20
-4.080324
 30
0.0
 11
1.922610
 21
-4.060368
 31
0.0
0
LINE
  5
625
100
AcDbEntity
  8
0
100
AcDbLine
 10
1.922610
 20
-4.060368
 30
0.0
 11
1.970470
 21
-4.039554
 31
0.0
0
LINE
  5
626
100
AcDbEntity
  8
0
100
AcDbLine
 10
1.970470
 20
-4.039554
 30
0.0
 11
2.018005
 21
-4.017890
 31
0.0
0
LINE
  5
627
100
AcDbEntity
  8
0
100
AcDbLine
 10
2.018005
 20
-4.017890
 30
0.0
 11
2.065190
 21
-3.995382
 31
0.0
0
LINE
  5
628
100
AcDbEntity
  8
0
100
AcDbLine
 10
2.065190
 20
-3.995382
 30
0.0
 11
2.112003
 21
-3.972041
 31
0.0
0
LINE
  5
629
100
AcDbEntity
  8
0
100
AcDbLine
 10
2.112003
 20
-3.972041
 30
0.0
 11
2.158424
 21
-3.947876
 31
0.0
0
LINE
  5
630
100
AcDbEntity
  8
0
100
AcDbLine
 10
2.158424
 20
-3.947876
 30
0.0
 11
2.204430
 21
-3.922897
 31
0.0
0
LINE
  5
631
100
AcDbEntity
  8
0
100
AcDbLine
 10
2.204430
 20
-3.922897
 30
0.0
 11
2.250000
 21
-3.897114
 31
0.0
0
LINE
  5
632
100
AcDbEntity
  8
0
100
AcDbLine
 10
2.250000
 20
-3.897114
 30
0.0
 11
2.295113
 21
-3.870541
 31
0.0
0
LINE
  5
633
100
AcDbEntity
  8
0
100
AcDbLine
 10
2.295113
 20
-3.870541
 30
0.0
 11
2.339749
 21
-3.843188
 31
0.0
0
LINE
  5
634
100
AcDbEntity
  8
0
100
AcDbLine
 10
2.339749
 20
-3.843188
 30
0.0
 11
2.383887
 21
-3.815069
 31
0.0
0
LINE
  5
635
100
AcDbEntity
  8
0
100
AcDbLine
 10
2.383887
 20
-3.815069
 30
0.0
 11
2.427508
 21
-3.786198
 31
0.0
0
LINE
  5
636
100
AcDbEntity
  8
0
100
AcDbLine
 10
2.427508
 20
-3.786198
 30
0.0
 11
2.470592
 21
-3.756588
 31
0.0
0
LINE
  5
637
100
AcDbEntity
  8
0
100
AcDbLine
 10
2.470592
 20
-3.756588
 30
0.0
 11
2.513121
 21
-3.726255
 31
0.0
0
LINE
  5
638
100
AcDbEntity
  8
0
100
AcDbLine
 10
2.513121
 20
-3.726255
 30
0.0
 11
2.555077
 21
-3.695213
 31
0.0
0
LINE
  5
639
100
AcDbEntity
  8
0
100
AcDbLine
 10
2.555077
 20
-3.695213
 30
0.0
 11
2.596442
 21
-3.663479
 31
0.0
0
LINE
  5
640
100
AcDbEntity
  8
0
100
AcDbLine
 10
2.596442
 20
-3.663479
 30
0.0
 11
2.637197
 21
-3.631070
 31
0.0
0
LINE
  5
641
100
AcDbEntity
  8
0
100
AcDbLine
 10
2.637197
 20
-3.631070
 30
0.0
 11
2.677328
 21
-3.598002
 31
0.0
0
LINE
  5
642
100
AcDbEntity
  8
0
100
AcDbLine
 10
2.677328
 20
-3.598002
 30
0.0
 11
2.716817
 21
-3.564293
 31
0.0
0
LINE
  5
643
100
AcDbEntity
  8
0
100
AcDbLine
 10
2.716817
 20
-3.564293
 30
0.0
 11
2.755650
 21
-3.529961
 31
0.0
0
LINE
  5
644
100
AcDbEntity
  8
0
100
AcDbLine
 10
2.755650
 20
-3.529961
 30
0.0
 11
2.793810
 21
-3.495024
 31
0.0
0
LINE
  5
645
100
AcDbEntity
  8
0
100
AcDbLine
 10
2.793810
 20
-3.495024
 30
0.0
 11
2.831284
 21
-3.459502
 31
0.0
0
LINE
  5
646
100
AcDbEntity
  8
0
100
AcDbLine
 10
2.831284
 20
-3.459502
 30
0.0
 11
2.868058
 21
-3.423413
 31
0.0
0
LINE
  5
647
100
AcDbEntity
  8
0
100
AcDbLine
 10
2.868058
 20
-3.423413
 30
0.0
 11
2.904120
 21
-3.386779
 31
0.0
0
LINE
  5
648
100
AcDbEntity
  8
0
100
AcDbLine
 10
2.904120
 20
-3.386779
 30
0.0
 11
2.939456
 21
-3.349618
 31
0.0
0
LINE
  5
649
100
AcDbEntity
  8
0
100
AcDbLine
 10
2.939456
 20
-3.349618
 30
0.0
 11
2.974054
 21
-3.311952
 31
0.0
0
LINE
  5
650
100
AcDbEntity
  8
0
100
AcDbLine
 10
2.974054
 20
-3.311952
 30
0.0
 11
3.007905
 21
-3.273802
 31
0.0
0
LINE
  5
651
100
AcDbEntity
  8
0
100
AcDbLine
 10
3.007905
 20
-3.273802
 30
0.0
 11
3.040997
 21
-3.235188
 31
0.0
0
LINE
  5
652
100
AcDbEntity
  8
0
100
AcDbLine
 10
3.040997
 20
-3.235188
 30
0.0
 11
3.073320
 21
-3.196132
 31
0.0
0
LINE
  5
653
100
AcDbEntity
  8
0
100
AcDbLine
 10
3.073320
 20
-3.196132
 30
0.0
 11
3.104867
 21
-3.156657
 31
0.0
0
LINE
  5
654
100
AcDbEntity
  8
0
100
AcDbLine
 10
3.104867
 20
-3.156657
 30
0.0
 11
3.135628
 21
-3.116784
 31
0.0
0
LINE
  5
655
100
AcDbEntity
  8
0
100
AcDbLine
 10
3.135628
 20
-3.116784
 30
0.0
 11
3.165596
 21
-3.076535
 31
0.0
0
LINE
  5
656
100
AcDbEntity
  8
0
100
AcDbLine
 10
3.165596
 20
-3.076535
 30
0.0
 11
3.194765
 21
-3.035933
 31
0.0
0
LINE
  5
657
100
AcDbEntity
  8
0
100
AcDbLine
 10
3.194765
 20
-3.035933
 30
0.0
 11
3.223127
 21
-2.995001
 31
0.0
0
LINE
  5
658
100
AcDbEntity
  8
0
100
AcDbLine
 10
3.223127
 20
-2.995001
 30
0.0
 11
3.250679
 21
-2.953762
 31
0.0
0
LINE
  5
659
100
AcDbEntity
  8
0
100
AcDbLine
 10
3.250679
 20
-2.953762
 30
0.0
 11
3.277416
 21
-2.912237
 31
0.0
0
LINE
  5
660
100
AcDbEntity
  8
0
100
AcDbLine
 10
3.277416
 20
-2.912237
 30
0.0
 11
3.303332
 21
-2.870452
 31
0.0
0
LINE
  5
661
100
AcDbEntity
  8
0
100
AcDbLine
 10
3.303332
 20
-2.870452
 30
0.0
 11
3.328427
 21
-2.828427
 31
0.0
0
LINE
  5
662
100
AcDbEntity
  8
0
100
AcDbLine
 10
3.328427
 20
-2.828427
 30
0.0
 11
3.352697
 21
-2.786187
 31
0.0
0
LINE
  5
663
100
AcDbEntity
  8
0
100
AcDbLine
 10
3.352697
 20
-2.786187
 30
0.0
 11
3.376141
 21
-2.743755
 31
0.0
0
LINE
  5
664
100
AcDbEntity
  8
0
100
AcDbLine
 10
3.376141
 20
-2.743755
 30
0.0
 11
3.398758
 21
-2.701154
 31
0.0
0
LINE
  5
665
100
AcDbEntity
  8
0
100
AcDbLine
 10
3.398758
 20
-2.701154
 30
0.0
 11
3.420549
 21
-2.658407
 31
0.0
0
LINE
  5
666
100
AcDbEntity
  8
0
100
AcDbLine
 10
3.420549
 20
-2.658407
 30
0.0
 11
3.441513
 21
-2.615537
 31
0.0
0
LINE
  5
667
100
AcDbEntity
  8
0
100
AcDbLine
 10
3.441513
 20
-2.615537
 30
0.0
 11
3.461653
 21
-2.572567
 31
0.0
0
LINE
  5
668
100
AcDbEntity
  8
0
100
AcDbLine
 10
3.461653
 20
-2.572567
 30
0.0
 11
3.480971
 21
-2.529519
 31
0.0
0
LINE
  5
669
100
AcDbEntity
  8
0
100
AcDbLine
 10
3.480971
 20
-2.529519
 30
0.0
 11
3.499469
 21
-2.486417
 31
0.0
0
LINE
  5
670
100
AcDbEntity
  8
0
100
AcDbLine
 10
3.499469
 20
-2.486417
 30
0.0
 11
3.517152
 21
-2.443284
 31
0.0
0
LINE
  5
671
100
AcDbEntity
  8
0
100
AcDbLine
 10
3.517152
 20
-2.443284
 30
0.0
 11
3.534024
 21
-2.400140
 31
0.0
0
LINE
  5
672
100
AcDbEntity
  8
0
100
AcDbLine
 10
3.534024
 20
-2.400140
 30
0.0
 11
3.550090
 21
-2.357010
 31
0.0
0
LINE
  5
673
100
AcDbEntity
  8
0
100
AcDbLine
 10
3.550090
 20
-2.357010
 30
0.0
 11
3.565357
 21
-2.313913
 31
0.0
0
LINE
  5
674
100
AcDbEntity
  8
0
100
AcDbLine
 10
3.565357
 20
-2.313913
 30
0.0
 11
3.579830
 21
-2.270873
 31
0.0
0
LINE
  5
675
100
AcDbEntity
  8
0
100
AcDbLine
 10
3.579830
 20
-2.270873
 30
0.0
 11
3.593517
 21
-2.227910
 31
0.0
0
LINE
  5
676
100
AcDbEntity
  8
0
100
AcDbLine
 10
3.593517
 20
-2.227910
 30
0.0
 11
3.606426
 21
-2.185046
 31
0.0
0
LINE
  5
677
100
AcDbEntity
  8
0
100
AcDbLine
 10
3.606426
 20
-2.185046
 30
0.0
 11
3.618566
 21
-2.142300
 31
0.0
0
LINE
  5
678
100
AcDbEntity
  8
0
100
AcDbLine
 10
3.618566
 20
-2.142300
 30
0.0
 11
3.629946
 21
-2.099695
 31
0.0
0
LINE
  5
679
100
AcDbEntity
  8
0
100
AcDbLine
 10
3.629946
 20
-2.099695
 30
0.0
 11
3.640576
 21
-2.057248
 31
0.0
0
LINE
  5
680
100
AcDbEntity
  8
0
100
AcDbLine
 10
3.640576
 20
-2.057248
 30
0.0
 11
3.650467
 21
-2.014981
 31
0.0
0
LINE
  5
681
100
AcDbEntity
  8
0
100
AcDbLine
 10
3.650467
 20
-2.014981
 30
0.0
 11
3.659630
 21
-1.972912
 31
0.0
0
LINE
  5
682
100
AcDbEntity
  8
0
100
AcDbLine
 10
3.659630
 20
-1.972912
 30
0.0
 11
3.668077
 21
-1.931060
 31
0.0
0
LINE
  5
683
100
AcDbEntity
  8
0
100
AcDbLine
 10
3.668077
 20
-1.931060
 30
0.0
 11
3.675820
 21
-1.889442
 31
0.0
0
LINE
  5
684
100
AcDbEntity
  8
0
100
AcDbLine
 10
3.675820
 20
-1.889442
 30
0.0
 11
3.682872
 21
-1.848078
 31
0.0
0
LINE
  5
685
100
AcDbEntity
  8
0
100
AcDbLine
 10
3.682872
 20
-1.848078
 30
0.0
 11
3.689248
 21
-1.806984
 31
0.0
0
LINE
  5
686
100
AcDbEntity
  8
0
100
AcDbLine
 10
3.689248
 20
-1.806984
 30
0.0
 11
3.694960
 21
-1.766176
 31
0.0
0
LINE
  5
687
100
AcDbEntity
  8
0
100
AcDbLine
 10
3.694960
 20
-1.766176
 30
0.0
 11
3.700023
 21
-1.725672
 31
0.0
0
LINE
  5
688
100
AcDbEntity
  8
0
100
AcDbLine
 10
3.700023
 20
-1.725672
 30
0.0
 11
3.704453
 21
-1.685486
 31
0.0
0
LINE
  5
689
100
AcDbEntity
  8
0
100
AcDbLine
 10
3.704453
 20
-1.685486
 30
0.0
 11
3.708266
 21
-1.645634
 31
0.0
0
LINE
  5
690
100
AcDbEntity
  8
0
100
AcDbLine
 10
3.708266
 20
-1.645634
 30
0.0
 11
3.711476
 21
-1.606129
 31
0.0
0
LINE
  5
691
100
AcDbEntity
  8
0
100
AcDbLine
 10
3.711476
 20
-1.606129
 30
0.0
 11
3.714102
 21
-1.566987
 31
0.0
0
LINE
  5
692
100
AcDbEntity
  8
0
100
AcDbLine
 10
3.714102
 20
-1.566987
 30
0.0
 11
3.716159
 21
-1.528220
 31
0.0
0
LINE
  5
693
100
AcDbEntity
  8
0
100
AcDbLine
 10
3.716159
 20
-1.528220
 30
0.0
 11
3.717664
 21
-1.489841
 31
0.0
0
LINE
  5
694
100
AcDbEntity
  8
0
100
AcDbLine
 10
3.717664
 20
-1.489841
 30
0.0
 11
3.718637
 21
-1.451862
 31
0.0
0
LINE
  5
695
100
AcDbEntity
  8
0
100
AcDbLine
 10
3.718637
 20
-1.451862
 30
0.0
 11
3.719094
 21
-1.414294
 31
0.0
0
LINE
  5
696
100
AcDbEntity
  8
0
100
AcDbLine
 10
3.719094
 20
-1.414294
 30
0.0
 11
3.719053
 21
-1.377148
 31
0.0
0
LINE
  5
697
100
AcDbEntity
  8
0
100
AcDbLine
 10
3.719053
 20
-1.377148
 30
0.0
 11
3.718535
 21
-1.340434
 31
0.0
0
LINE
  5
698
100
AcDbEntity
  8
0
100
AcDbLine
 10
3.718535
 20
-1.340434
 30
0.0
 11
3.717556
 21
-1.304160
 31
0.0
0
LINE
  5
699
100
AcDbEntity
  8
0
100
AcDbLine
 10
3.717556
 20
-1.304160
 30
0.0
 11
3.716137
 21
-1.268337
 31
0.0
0
LINE
  5
700
100
AcDbEntity
  8
0
100
AcDbLine
 10
3.716137
 20
-1.268337
 30
0.0
 11
3.714297
 21
-1.232971
 31
0.0
0
LINE
  5
701
100
AcDbEntity
  8
0
100
AcDbLine
 10
3.714297
 20
-1.232971
 30
0.0
 11
3.712055
 21
-1.198069
 31
0.0
0
LINE
  5
702
100
AcDbEntity
  8
0
100
AcDbLine
 10
3.712055
 20
-1.198069
 30
0.0
 11
3.709432
 21
-1.163639
 31
0.0
0
LINE
  5
703
100
AcDbEntity
  8
0
100
AcDbLine
 10
3.709432
 20
-1.163639
 30
0.0
 11
3.706446
 21
-1.129686
 31
0.0
0
LINE
  5
704
100
AcDbEntity
  8
0
100
AcDbLine
 10
3.706446
 20
-1.129686
 30
0.0
 11
3.703119
 21
-1.096214
 31
0.0
0
LINE
  5
705
100
AcDbEntity
  8
0
100
AcDbLine
 10
3.703119
 20
-1.096214
 30
0.0
 11
3.699469
 21
-1.063229
 31
0.0
0
LINE
  5
706
100
AcDbEntity
  8
0
100
AcDbLine
 10
3.699469
 20
-1.063229
 30
0.0
 11
3.695518
 21
-1.030734
 31
0.0
0
LINE
  5
707
100
AcDbEntity
  8
0
100
AcDbLine
 10
3.695518
 20
-1.030734
 30
0.0
 11
3.691286
 21
-0.998731
 31
0.0
0
LINE
  5
708
100
AcDbEntity
  8
0
100
AcDbLine
 10
3.691286
 20
-0.998731
 30
0.0
 11
3.686792
 21
-0.967223
 31
0.0
0
LINE
  5
709
100
AcDbEntity
  8
0
100
AcDbLine
 10
3.686792
 20
-0.967223
 30
0.0
 11
3.682057
 21
-0.936211
 31
0.0
0
LINE
  5
710
100
AcDbEntity
  8
0
100
AcDbLine
 10
3.682057
 20
-0.936211
 30
0.0
 11
3.677102
 21
-0.905695
 31
0.0
0
LINE
  5
711
100
AcDbEntity
  8
0
100
AcDbLine
 10
3.677102
 20
-0.905695
 30
0.0
 11
3.671946
 21
-0.875677
 31
0.0
0
LINE
  5
712
100
AcDbEntity
  8
0
100
AcDbLine
 10
3.671946
 20
-0.875677
 30
0.0
 11
3.666610
 21
-0.846154
 31
0.0
0
LINE
  5
713
100
AcDbEntity
  8
0
100
AcDbLine
 10
3.666610
 20
-0.846154
 30
0.0
 11
3.661113
 21
-0.817125
 31
0.0
0
LINE
  5
714
100
AcDbEntity
  8
0
100
AcDbLine
 10
3.661113
 20
-0.817125
 30
0.0
 11
3.655476
 21
-0.788588
 31
0.0
0
LINE
  5
715
100
AcDbEntity
  8
0
100
AcDbLine
 10
3.655476
 20
-0.788588
 30
0.0
 11
3.649718
 21
-0.760540
 31
0.0
0
LINE
  5
716
100
AcDbEntity
  8
0
100
AcDbLine
 10
3.649718
 20
-0.760540
 30
0.0
 11
3.643858
 21
-0.732977
 31
0.0
0
LINE
  5
717
100
AcDbEntity
  8
0
100
AcDbLine
 10
3.643858
 20
-0.732977
 30
0.0
 11
3.637916
 21
-0.705895
 31
0.0
0
LINE
  5
718
100
AcDbEntity
  8
0
100
AcDbLine
 10
3.637916
 20
-0.705895
 30
0.0
 11
3.631911
 21
-0.679289
 31
0.0
0
LINE
  5
719
100
AcDbEntity
  8
0
100
AcDbLine
 10
3.631911
 20
-0.679289
 30
0.0
 11
3.625861
 21
-0.653152
 31
0.0
0
LINE
  5
720
100
AcDbEntity
  8
0
100
AcDbLine
 10
3.625861
 20
-0.653152
 30
0.0
 11
3.619786
 21
-0.627480
 31
0.0
0
LINE
  5
721
100
AcDbEntity
  8
0
100
AcDbLine
 10
3.619786
 20
-0.627480
 30
0.0
 11
3.613703
 21
-0.602263
 31
0.0
0
LINE
  5
722
100
AcDbEntity
  8
0
100
AcDbLine
 10
3.613703
 20
-0.602263
 30
0.0
 11
3.607631
 21
-0.577496
 31
0.0
0
LINE
  5
723
100
AcDbEntity
  8
0
100
AcDbLine
 10
3.607631
 20
-0.577496
 30
0.0
 11
3.601586
 21
-0.553169
 31
0.0
0
LINE
  5
724
100
AcDbEntity
  8
0
100
AcDbLine
 10
3.601586
 20
-0.553169
 30
0.0
 11
3.595587
 21
-0.529273
 31
0.0
0
LINE
  5
725
100
AcDbEntity
  8
0
100
AcDbLine
 10
3.595587
 20
-0.529273
 30
0.0
 11
3.589650
 21
-0.505799
 31
0.0
0
LINE
  5
726
100
AcDbEntity
  8
0
100
AcDbLine
 10
3.589650
 20
-0.505799
 30
0.0
 11
3.583790
 21
-0.482736
 31
0.0
0
LINE
  5
727
100
AcDbEntity
  8
0
100
AcDbLine
 10
3.583790
 20
-0.482736
 30
0.0
 11
3.578025
 21
-0.460074
 31
0.0
0
LINE
  5
728
100
AcDbEntity
  8
0
100
AcDbLine
 10
3.578025
 20
-0.460074
 30
0.0
 11
3.572370
 21
-0.437802
 31
0.0
0
LINE
  5
729
100
AcDbEntity
  8
0
100
AcDbLine
 10
3.572370
 20
-0.437802
 30
0.0
 11
3.566839
 21
-0.415907
 31
0.0
0
LINE
  5
730
100
AcDbEntity
  8
0
100
AcDbLine
 10
3.566839
 20
-0.415907
 30
0.0
 11
3.561447
 21
-0.394377
 31
0.0
0
LINE
  5
731
100
AcDbEntity
  8
0
100
AcDbLine
 10
3.561447
 20
-0.394377
 30
0.0
 11
3.556209
 21
-0.373199
 31
0.0
0
LINE
  5
732
100
AcDbEntity
  8
0
100
AcDbLine
 10
3.556209
 20
-0.373199
 30
0.0
 11
3.551137
 21
-0.352360
 31
0.0
0
LINE
  5
733
100
AcDbEntity
  8
0
100
AcDbLine
 10
3.551137
 20
-0.352360
 30
0.0
 11
3.546245
 21
-0.331845
 31
0.0
0
LINE
  5
734
100
AcDbEntity
  8
0
100
AcDbLine
 10
3.546245
 20
-0.331845
 30
0.0
 11
3.541545
 21
-0.311641
 31
0.0
0
LINE
  5
735
100
AcDbEntity
  8
0
100
AcDbLine
 10
3.541545
 20
-0.311641
 30
0.0
 11
3.537048
 21
-0.291733
 31
0.0
0
LINE
  5
736
100
AcDbEntity
  8
0
100
AcDbLine
 10
3.537048
 20
-0.291733
 30
0.0
 11
3.532767
 21
-0.272105
 31
0.0
0
LINE
  5
737
100
AcDbEntity
  8
0
100
AcDbLine
 10
3.532767
 20
-0.272105
 30
0.0
 11
3.528711
 21
-0.252742
 31
0.0
0
LINE
  5
738
100
AcDbEntity
  8
0
100
AcDbLine
 10
3.528711
 20
-0.252742
 30
0.0
 11
3.524890
 21
-0.233627
 31
0.0
0
LINE
  5
739
100
AcDbEntity
  8
0
100
AcDbLine
 10
3.524890
 20
-0.233627
 30
0.0
 11
3.521315
 21
-0.214746
 31
0.0
0
LINE
  5
740
100
AcDbEntity
  8
0
100
AcDbLine
 10
3.521315
 20
-0.214746
 30
0.0
 11
3.517993
 21
-0.196080
 31
0.0
0
LINE
  5
741
100
AcDbEntity
  8
0
100
AcDbLine
 10
3.517993
 20
-0.196080
 30
0.0
 11
3.514932
 21
-0.177613
 31
0.0
0
LINE
  5
742
100
AcDbEntity
  8
0
100
AcDbLine
 10
3.514932
 20
-0.177613
 30
0.0
 11
3.512141
 21
-0.159328
 31
0.0
0
LINE
  5
743
100
AcDbEntity
  8
0
100
AcDbLine
 10
3.512141
 20
-0.159328
 30
0.0
 11
3.509625
 21
-0.141207
 31
0.0
0
LINE
  5
744
100
AcDbEntity
  8
0
100
AcDbLine
 10
3.509625
 20
-0.141207
 30
0.0
 11
3.507391
 21
-0.123233
 31
0.0
0
LINE
  5
745
100
AcDbEntity
  8
0
100
AcDbLine
 10
3.507391
 20
-0.123233
 30
0.0
 11
3.505444
 21
-0.105388
 31
0.0
0
LINE
  5
746
100
AcDbEntity
  8
0
100
AcDbLine
 10
3.505444
 20
-0.105388
 30
0.0
 11
3.503789
 21
-0.087653
 31
0.0
0
LINE
  5
747
100
AcDbEntity
  8
0
100
AcDbLine
 10
3.503789
 20
-0.087653
 30
0.0
 11
3.502429
 21
-0.070011
 31
0.0
0
LINE
  5
748
100
AcDbEntity
  8
0
100
AcDbLine
 10
3.502429
 20
-0.070011
 30
0.0
 11
3.501368
 21
-0.052444
 31
0.0
0
LINE
  5
749
100
AcDbEntity
  8
0
100
AcDbLine
 10
3.501368
 20
-0.052444
 30
0.0
 11
3.500609
 21
-0.034931
 31
0.0
0
LINE
  5
750
100
AcDbEntity
  8
0
100
AcDbLine
 10
3.500609
 20
-0.034931
 30
0.0
 11
3.500152
 21
-0.017456
 31
0.0
  0
ENDSEC
  0
SECTION
  2
OBJECTS
  0
DICTIONARY
  5
C
100
AcDbDictionary
  3
ACAD_GROUP
350
D
  3
ACAD_MLINESTYLE
350
1B
  0
DICTIONARY
  5
D
102
{ACAD_REACTORS
330
C
102
}
100
AcDbDictionary
  0
DICTIONARY
  5
1B
102
{ACAD_REACTORS
330
C
102
}
100
AcDbDictionary
  3
STANDARD
350
1C
  0
MLINESTYLE
  5
1C
102
{ACAD_REACTORS
330
1B
102
}
100
AcDbMlineStyle
  2
STANDARD
 70
     0
  3

 62
   256
 51
90.0
 52
90.0
 71
     2
 49
0.5
 62
   256
  6
BYLAYER
 49
-0.5
 62
   256
  6
BYLAYER
  0
ENDSEC
  0
EOF
